<?xml version="1.0" encoding="UTF-8" standalone="no"?>
<svg
   width="60.96mm"
   height="128.5mm"
   viewBox="0 0 60.96 128.5"
   version="1.1"
   id="svg334"
   sodipodi:docname="AcidEngine.svg"
   inkscape:version="1.4.3 (0d15f75, 2025-12-25)"
   xml:space="preserve"
   xmlns:inkscape="http://www.inkscape.org/namespaces/inkscape"
   xmlns:sodipodi="http://sodipodi.sourceforge.net/DTD/sodipodi-0.dtd"
   xmlns="http://www.w3.org/2000/svg"
   xmlns:svg="http://www.w3.org/2000/svg"><defs
     id="defs334"><rect
       x="45.354331"
       y="0.71798928"
       width="139.69134"
       height="24.030747"
       id="rect2" /><rect
       x="83.4386"
       y="466.69048"
       width="56.568543"
       height="17.677669"
       id="rect335" /><rect
       x="83.4386"
       y="466.69048"
       width="56.568543"
       height="17.677669"
       id="rect35" /><rect
       x="83.438599"
       y="466.69049"
       width="56.568542"
       height="17.67767"
       id="rect335-9" /><rect
       x="83.4386"
       y="466.69048"
       width="56.568543"
       height="17.677669"
       id="rect37" /><style
       id="style1">.cls-1{fill:#c7ff17;}.cls-2{fill:#212121;}</style><symbol
       id="a"
       data-name="Deleted Symbol"
       viewBox="0 0 82.286 105.063"><path
         d="m28.686,0h24.912c4.492,0,8.146,3.654,8.146,8.146v36.272c0,2.553,2.076,4.649,4.629,4.675l15.913.158-41.143,55.812L0,49.25l15.911-.158c2.553-.025,4.629-2.122,4.629-4.675V8.146c0-4.492,3.654-8.146,8.146-8.146Z"
         fill="#221f1f"
         stroke-width="0"
         id="path1" /></symbol><rect
       x="45.354332"
       y="0.71798927"
       width="139.69135"
       height="24.030746"
       id="rect2-0" /></defs><sodipodi:namedview
     id="namedview334"
     pagecolor="#ffffff"
     bordercolor="#000000"
     borderopacity="0.25"
     inkscape:showpageshadow="2"
     inkscape:pageopacity="0.0"
     inkscape:pagecheckerboard="0"
     inkscape:deskcolor="#d1d1d1"
     inkscape:document-units="mm"
     inkscape:zoom="1.4142136"
     inkscape:cx="179.25156"
     inkscape:cy="234.75945"
     inkscape:window-width="1376"
     inkscape:window-height="1171"
     inkscape:window-x="310"
     inkscape:window-y="152"
     inkscape:window-maximized="0"
     inkscape:current-layer="g37" /><!-- Background --><!-- Title: ACID ENGINE - centered at 30.48, ~17mm wide --><!-- VU meter section - centered at 30.48 --><!-- TUNE label - centered at x=12, y=15 (knob at y=22, radius ~4mm) --><!-- Text width ~5mm, starts at 9.5 --><!-- RES label - centered at x=48.96, y=15 --><!-- Text width ~4mm, starts at 47 --><!-- CUTOFF label - centered at x=30.48, y=27 (large knob at y=35, radius ~5mm) --><!-- Text width ~8mm, starts at 26.5 --><!-- DECAY label - centered at x=15.24, y=43 (knob at y=50) --><!-- Text width ~7mm, starts at 11.7 --><!-- ENVMOD label - centered at x=45.72, y=43 --><!-- Text width ~8mm, starts at 41.7 --><!-- WAVE label - centered at x=12, y=57 (switch at y=64) --><!-- Text width ~6mm, starts at 9 --><!-- SLIDE label - centered at x=30.48, y=57 --><!-- Text width ~6mm, starts at 27.5 --><!-- MODE label - centered at x=12, y=71 (switch at y=78) --><!-- Text width ~6mm, starts at 9 --><!-- ACCENT label - centered at x=30.48, y=71 --><!-- Text width ~8mm, starts at 26.5 --><!-- TRIG label - centered at x=48.96, y=71 --><!-- Text width ~5mm, starts at 46.5 --><!-- Knob outlines --><!-- Switch outlines (CKSSThree) --><!-- Button outline (VCVButton) --><!-- CV INPUT section - dark background --><!-- CV input jack outlines - Row 1 --><!-- CV input jack outlines - Row 2 --><!-- OUTPUT section - darker background --><!-- Output jack outlines --><!-- Brand: VULPES79 - centered at 30.48 --><g
     inkscape:groupmode="layer"
     id="layer1"
     inkscape:label="Layer 1"><rect
       x="0"
       y="0"
       width="60.959999"
       height="128.5"
       fill="#e6e6e6"
       id="rect1" /><!-- Section grouping backgrounds --><rect
       x="4"
       y="16"
       width="53"
       height="28"
       rx="2"
       fill="#dcdcdc"
       id="group-filter" /><rect
       x="4"
       y="41"
       width="53"
       height="14"
       rx="2"
       fill="#dcdcdc"
       id="group-modulation" /><rect
       x="4"
       y="53"
       width="53"
       height="29.358007"
       rx="2"
       fill="#dcdcdc"
       id="group-performance"
       style="stroke-width:0.989242" /><!-- CUTOFF decorative green halo --><circle
       cx="30.48"
       cy="35"
       r="11"
       fill="none"
       stroke="#00cc66"
       stroke-width="0.4"
       id="cutoff-halo"
       style="stroke:#ffff00;stroke-dasharray:2.40000004,2.40000004;stroke-dashoffset:0" /><!-- Acid green accent lines --><line
       x1="0"
       y1="83.264557"
       x2="60.959999"
       y2="83.264557"
       stroke="#00cc66"
       stroke-width="0.5"
       id="accent-line-cv"
       style="fill:#ffff00;stroke:#ffff00" /><!-- Signal flow line (subtle) --><rect
       x="18"
       y="9"
       width="24.959999"
       height="5"
       fill="#1a3322"
       rx="1"
       id="rect29"
       style="fill:#e2e3db" /><circle
       cx="24"
       cy="11.5"
       r="1.6"
       fill="#442200"
       stroke="#555555"
       stroke-width="0.3"
       id="circle29"
       style="fill:#ffff00" /><circle
       cx="30.48"
       cy="11.5"
       r="1.6"
       fill="#442200"
       stroke="#555555"
       stroke-width="0.3"
       id="circle30"
       style="fill:#ffff00" /><circle
       cx="36.959999"
       cy="11.5"
       r="1.6"
       fill="#442200"
       stroke="#555555"
       stroke-width="0.3"
       id="circle31"
       style="fill:#ffff00" /><circle
       cx="12"
       cy="27"
       r="4.0"
       fill="none"
       stroke="#bbbbbb"
       stroke-width="0.3"
       id="circle1" /><circle
       cx="48.959999"
       cy="27"
       r="4.0"
       fill="none"
       stroke="#bbbbbb"
       stroke-width="0.3"
       id="circle2" /><circle
       cx="30.48"
       cy="35"
       r="8.5"
       fill="none"
       stroke="#bbbbbb"
       stroke-width="0.3"
       id="circle3" /><circle
       cx="12"
       cy="45.5"
       r="5.0"
       fill="none"
       stroke="#bbbbbb"
       stroke-width="0.3"
       id="circle4" /><circle
       cx="48.959999"
       cy="45.5"
       r="5.0"
       fill="none"
       stroke="#bbbbbb"
       stroke-width="0.3"
       id="circle5" /><circle
       cx="30.48"
       cy="59"
       r="4.0"
       fill="none"
       stroke="#bbbbbb"
       stroke-width="0.3"
       id="circle6" /><circle
       cx="30.48"
       cy="76"
       r="4.0"
       fill="none"
       stroke="#bbbbbb"
       stroke-width="0.3"
       id="circle7" /><rect
       x="10.6"
       y="58"
       width="2.8"
       height="8"
       rx="1"
       fill="none"
       stroke="#bbbbbb"
       stroke-width="0.3"
       id="rect7" /><rect
       x="10.6"
       y="72"
       width="2.8"
       height="8"
       rx="1"
       fill="none"
       stroke="#bbbbbb"
       stroke-width="0.3"
       id="rect8" /><circle
       cx="48.959999"
       cy="76"
       r="3.5"
       fill="none"
       stroke="#bbbbbb"
       stroke-width="0.3"
       id="circle8" /><rect
       x="0"
       y="83.672638"
       width="60.959999"
       height="26.341581"
       fill="#222222"
       id="rect171"
       style="stroke-width:1.07017" /><circle
       cx="8"
       cy="92"
       r="4.1999998"
       fill="none"
       stroke="#444444"
       stroke-width="0.3"
       id="circle9" /><circle
       cx="22.32"
       cy="92"
       r="4.1999998"
       fill="none"
       stroke="#444444"
       stroke-width="0.3"
       id="circle10" /><circle
       cx="38.639999"
       cy="92"
       r="4.1999998"
       fill="none"
       stroke="#444444"
       stroke-width="0.3"
       id="circle11" /><circle
       cx="52.959999"
       cy="92"
       r="4.1999998"
       fill="none"
       stroke="#444444"
       stroke-width="0.3"
       id="circle12" /><circle
       cx="8"
       cy="104"
       r="4.1999998"
       fill="none"
       stroke="#444444"
       stroke-width="0.3"
       id="circle13" /><circle
       cx="22.32"
       cy="104"
       r="4.1999998"
       fill="none"
       stroke="#444444"
       stroke-width="0.3"
       id="circle14" /><circle
       cx="38.639999"
       cy="104"
       r="4.1999998"
       fill="none"
       stroke="#444444"
       stroke-width="0.3"
       id="circle15" /><circle
       cx="52.959999"
       cy="104"
       r="4.1999998"
       fill="none"
       stroke="#444444"
       stroke-width="0.3"
       id="circle16" /><rect
       x="0"
       y="110.01422"
       width="60.959999"
       height="18.485775"
       fill="#1a1a1a"
       id="rect282"
       style="stroke-width:0.973647" /><circle
       cx="20.32"
       cy="118"
       r="4.1999998"
       fill="none"
       stroke="#444444"
       stroke-width="0.3"
       id="circle17" /><circle
       cx="40.639999"
       cy="118"
       r="4.1999998"
       fill="none"
       stroke="#444444"
       stroke-width="0.3"
       id="circle18" /><!-- Waveform icons (right of WAVE switch) --><g
       id="wave-icons"
       style="stroke:#999999;stroke-width:0.3;fill:none;stroke-linecap:round;stroke-linejoin:round"><!-- Saw --><path
         d="M 15,60 L 16.75,58.6 V 60 L 18.5,58.6 V 60"
         id="icon-saw" /><!-- Blend (trapezoid) --><path
         d="M 15,62.7 L 15.5,61.3 L 16.5,61.3 L 17,62.7 L 17.5,61.3 L 18.5,61.3 L 19,62.7"
         id="icon-blend" /><!-- Square --><path
         d="M 15,65.4 V 64 H 16.75 V 65.4 H 18.5 V 64"
         id="icon-square" /></g><!-- Mode fish icons (right of MODE switch) --><g
       id="mode-icons"
       style="fill:#999999;stroke:none"><!-- Baby Fish (small) --><path
         d="M 15.2,73.3 L 15.7,72.8 Q 16.4,72.4 17.2,73.3 Q 16.4,74.2 15.7,73.8 Z"
         id="icon-baby-fish" /><circle
         cx="16.7"
         cy="73.1"
         r="0.15"
         fill="#e6e6e6"
         id="eye-baby" /><!-- Momma Fish (medium) --><path
         d="m 14.85,75.76849 0.7,-0.7 q 1,-0.6 2.3,0.7 -1.3,1.3 -2.3,0.7 z"
         id="icon-momma-fish" /><circle
         cx="17.049999"
         cy="75.468483"
         r="0.18000001"
         fill="#e6e6e6"
         id="eye-momma" /><!-- Devil Fish (medium + horns) --><path
         d="M 14.8,78.7 L 15.5,78.0 Q 16.5,77.4 17.8,78.7 Q 16.5,80.0 15.5,79.4 Z"
         id="icon-devil-fish" /><circle
         cx="17.0"
         cy="78.4"
         r="0.18"
         fill="#e6e6e6"
         id="eye-devil" /><g
         style="stroke:#999999;stroke-width:0.25;stroke-linecap:round;fill:none"
         id="g1"><path
           d="M 16.5,77.85 L 16.2,77.2"
           id="horn-left" /><path
           d="M 17.1,77.9 L 17.4,77.25"
           id="horn-right" /></g></g><g
       inkscape:groupmode="layer"
       id="layer1-0"
       inkscape:label="acid smiley"
       transform="matrix(0.00333856,0,0,0.00333856,42.369761,53.566396)"><path
         id="path3"
         d="m 10522.6,4306.4 c -30.6,-199.5 -108.4,-395.8 -250,-523.7 -46.8,-42.2 -101.7,-72.7 -160.6,-91.9 -1125.5,-368.1 -643.97,2082.4 -109.5,2436.3 349,-426.1 604.6,-1267.6 520.1,-1820.7"
         style="fill:#f7e71d;fill-opacity:1;fill-rule:nonzero;stroke:none"
         transform="matrix(0.13333333,0,0,-0.13333333,0,4000)" /><path
         id="path4"
         d="m 22390.1,16499.1 c 0,-1300 -346.2,-2589.8 -1002.4,-3712.6 -391,-668.9 -966.3,-1083.9 -1281.6,-1802.3 -449.2,-1023.5 -651.6,-2052.8 -146.6,-3089.2 312.2,-640.6 595.8,-1618.5 -70.7,-2146.4 -665.2,-526.7 -1470,15 -1539.8,775.9 -60.2,656.8 330.4,1611.5 -97.5,2191.7 -344.3,466.7 -423.2,-141.1 -622,-419.3 -233.3,-318.9 -571.3,-161.5 -825.7,-448.6 -668.1,-754 -34.7,-3649.6 255,-4426 147,-393.7 296.4,-810.4 225.4,-1224.6 -110.8,-646.8 -804.2,-1114.2 -1454.6,-1028 -650.5,86.2 -1183.3,669.6 -1268.7,1320.1 -58.5,444.8 66.2,891.8 204.9,1318.5 138.6,426.6 294.2,857.6 300,1306.2 4.4,343.4 -103.3,877.9 -440.9,1055.5 -201.6,106 -464.5,-86 -640,100.4 -256.1,272.2 32.8,983.5 70.6,1299.4 34.5,288.2 40.3,641.3 -204.7,796.8 -343.8,218.3 -785.9,-65.3 -982,-358.3 -269.3,-402.3 -112.4,-711.9 -55.6,-1127.6 71.4,-523.1 -328,-977.8 -865.9,-936.3 -635.8,49.1 -678,643.1 -611.8,1158.8 80.5,627.4 367,2876.9 -784.6,2819.1 -416.2,-21.2 -590.27,-695.2 -1093.39,-364.8 -251.02,164.9 -325,493.5 -378.12,789.2 -189.96,1057.3 -287.92,2122 -755.41,3080 -459.42,941.5 -669.23,2029.8 -669.24,3072.4 0,4069.1 3298.66,7367.7 7367.66,7367.7 4069.1,0 7367.7,-3298.6 7367.7,-7367.7"
         style="fill:#f7e71d;fill-opacity:1;fill-rule:nonzero;stroke:none"
         transform="matrix(0.13333333,0,0,-0.13333333,0,4000)" /><path
         id="path5"
         d="m 20657.4,13788.1 c -153,-261.7 -340.8,-484.2 -539.7,-719.8 -276.2,-327.1 -561.7,-665.3 -762.9,-1123.7 -268.7,-612.1 -420.3,-1157.3 -463.4,-1666.7 -53.2,-627.3 52.7,-1202.5 323.5,-1758.4 178.7,-366.6 540.2,-1261.9 40.5,-1657.6 -162.2,-128.4 -329.5,-157.1 -497.2,-85.2 -213.1,91.2 -372.2,326 -395.9,584.1 -17,185.4 13.7,425.8 46.2,680.4 72,565 153.7,1205.3 -220.1,1712.2 -178.5,241.9 -379.5,353.1 -597.5,330.6 -212.4,-21.9 -349.6,-166.1 -427.3,-283.3 -57.1,-86.1 -101.1,-182 -143.5,-274.7 -32.8,-71.5 -69.9,-152.5 -99.8,-195.1 -30.6,-41.1 -55.7,-52 -194,-86.5 -160.2,-39.8 -402.2,-100.1 -606.9,-331.1 -217.1,-245.1 -342.2,-616.4 -382.2,-1135 -29.6,-384.6 -11.9,-849.9 52.8,-1383.1 110.9,-913.4 345,-1873.4 509.1,-2313 122.1,-327.2 260.5,-698.1 205.9,-1017.3 -71.7,-418.4 -561.6,-758.1 -1007.9,-698.9 -454.5,60.2 -860.7,488.8 -924.6,975.7 -48.5,369.2 66.6,767 188.7,1142.7 12.5,38.4 25.1,76.9 37.8,115.5 135.6,413 275.8,840.1 281.8,1309.2 6.3,490.4 -161.4,1155.2 -654.7,1414.6 -120.9,63.6 -240.5,80.2 -344.6,80.2 -66.1,0 -126,-6.7 -175.9,-12.3 -3.2,-0.3 -6.6,-0.7 -10.2,-1.1 -1.2,33.1 0.2,80.8 8.7,147.7 16.9,133.6 54.8,287.6 88.3,423.4 32.1,130.6 62.5,253.8 75.3,360.4 25.7,215.1 104.2,869.8 -387.5,1182 -271.1,172.2 -599.7,186.3 -925.1,39.6 -236.9,-106.8 -456.9,-293.8 -603.7,-513.1 -303.9,-453.9 -224.4,-853 -160.6,-1173.6 15.7,-79 30.6,-153.6 41.1,-230.6 18.7,-136.8 -21,-268.6 -108.9,-361.8 -83.3,-88.4 -200.4,-131.6 -329.9,-121.6 -135.3,10.5 -171.8,55.4 -185.6,72.3 -36.9,45.3 -116.6,198.1 -60.3,636.8 32.9,256.6 101.5,790.6 93.4,1341.7 -10.9,754.4 -159.6,1276 -454.5,1594.6 -217.1,234.7 -507.7,349.9 -840.6,333.2 -306.9,-15.7 -514.23,-199.5 -665.62,-333.7 -45.61,-40.4 -112.22,-99.5 -147.71,-118.5 -8.16,3.4 -21.41,10.1 -40.06,22.3 -124.26,81.6 -176.13,370.4 -204.01,525.5 -36.28,202 -69.93,409 -102.46,609.1 -139.89,860.6 -284.54,1750.5 -687.16,2575.6 -411.31,842.9 -628.72,1844.7 -628.72,2897.1 0,3842 3125.64,6967.6 6967.64,6967.6 3842,0 6967.7,-3125.6 6967.7,-6967.6 0,-1236 -327.7,-2450 -947.7,-3510.8 z m 1137.1,6534.4 c -391.3,925 -951.3,1755.7 -1664.5,2468.9 -713.3,713.3 -1543.9,1273.3 -2468.9,1664.5 -957.9,405.2 -1975.2,610.6 -3023.7,610.6 -1048.4,0 -2065.7,-205.4 -3023.6,-610.6 -925,-391.2 -1755.71,-951.2 -2468.94,-1664.5 -713.25,-713.2 -1273.26,-1543.9 -1664.51,-2468.9 -405.16,-957.9 -610.59,-1975.2 -610.59,-3023.6 0,-1173.3 245.42,-2296.4 709.75,-3247.9 350.88,-719.1 479.9,-1512.8 616.49,-2353.1 33.06,-203.4 67.25,-413.7 104.71,-622.2 49.11,-273.5 140.54,-782.4 552.23,-1052.8 301.73,-198.1 562.6,-172 728.3,-115.1 182.67,62.7 319.45,184 429.36,281.4 49.9,44.2 142.6,126.4 176.2,133.4 118.1,5.6 171.7,-33.9 212.1,-77.6 69.1,-74.7 231.1,-327.9 241.8,-1062.9 7.2,-494.2 -56.4,-990 -87,-1228.2 -71.4,-556.2 4.9,-963 233.3,-1243.6 121.8,-149.7 349.9,-334.5 744.6,-365 369.8,-28.6 724.6,106.4 973.5,370.3 254.6,270 371,641.4 319.4,1019 -13.8,101.1 -32.5,195.3 -49.1,278.5 -58.3,292.9 -72.7,402.9 40.8,572.4 106.5,159.2 336.7,305.8 435.2,243.2 0.6,-0.4 63.6,-63.8 22,-411.6 -7,-57.9 -32.8,-162.7 -57.8,-264.1 -103.6,-420.8 -245.6,-997.2 93.1,-1357 235,-249.7 528.1,-217 685.6,-199.4 23.8,2.6 56.8,6.3 78.1,7.2 116.7,-86.6 212.2,-394.6 208.5,-684.4 -4.5,-346.4 -119.9,-697.9 -242,-1070 -12.9,-39.3 -25.8,-78.6 -38.5,-117.8 -143.8,-442.5 -291.4,-959.4 -221.1,-1494.1 52.7,-401.4 240.4,-790.2 528.5,-1094.6 297.5,-314.3 682.6,-516.8 1084.2,-570 68.2,-9 137.1,-13.5 206.4,-13.5 348.4,0 705.2,112.5 1004.4,320.9 374.1,260.4 619.4,633.1 690.7,1049.5 91.1,531.9 -95.2,1031 -244.9,1432.1 -126.7,339.6 -354.6,1224.8 -464.4,2129.7 -136.9,1128.4 -20.5,1716.8 134,1891.2 36.9,41.7 79.4,55 201.3,85.3 175.7,43.8 441.2,109.8 647.8,392.3 0.9,1.2 1.8,2.4 2.6,3.6 30.6,42.8 57.9,88.1 82.7,133.9 40.3,-244.2 0.8,-553.5 -37.7,-855.5 -36.5,-286.1 -74.2,-581.9 -49.2,-854.7 50.5,-550.4 394.9,-1039.7 877.4,-1246.4 439.1,-188.1 916.2,-117.6 1309,193.5 401.3,317.8 592.6,792.1 553.1,1371.6 -32.8,482.3 -219.9,953.3 -371.1,1263.5 -383.9,787.9 -336.6,1637 153.3,2753.2 154.6,352.4 391.1,632.5 641.6,929.2 212,251.1 431.2,510.8 619,832.1 691.6,1183.2 1057.1,2536.8 1057.1,3914.5 0,1048.4 -205.4,2065.7 -610.6,3023.6"
         style="fill:#292a2c;fill-opacity:1;fill-rule:nonzero;stroke:none"
         transform="matrix(0.13333333,0,0,-0.13333333,0,4000)" /><path
         id="path6"
         d="m 18991,16739.1 v 0 c -154.6,0 -294.9,-92.3 -354.3,-235 -652,-1566.9 -2199.1,-2671.3 -3999.3,-2671.3 -1800.2,0 -3347.2,1104.4 -3999.3,2671.3 -59.4,142.7 -199.6,235 -354.2,235 v 0 c -274.4,0 -460.24,-279.1 -354.88,-532.5 3.96,-9.5 7.95,-19 11.97,-28.5 256.71,-607 624.21,-1152.1 1092.21,-1620.1 468,-468 1013.1,-835.4 1620.1,-1092.2 628.6,-265.9 1296.2,-400.7 1984.1,-400.7 688,0 1355.5,134.8 1984.2,400.7 607,256.8 1152.1,624.2 1620,1092.2 468,468 835.5,1013.1 1092.3,1620.1 4,9.5 8,19 11.9,28.5 105.4,253.4 -80.4,532.5 -354.8,532.5"
         style="fill:#292a2c;fill-opacity:1;fill-rule:nonzero;stroke:none"
         transform="matrix(0.13333333,0,0,-0.13333333,0,4000)" /><path
         id="path7"
         d="m 12074.2,17128.7 c 230.7,-374 536.2,-429.8 697.7,-429.8 161.6,0 467.1,55.8 697.7,429.7 89.8,145.6 162.6,328.2 222.7,558.3 103.3,395.9 160.1,912.3 160.1,1453.9 0,541.6 -56.8,1058 -160.1,1453.9 -60.1,230.1 -132.9,412.7 -222.7,558.2 -230.6,374 -536.1,429.8 -697.7,429.8 -161.5,0 -467,-55.8 -697.7,-429.8 -89.8,-145.5 -162.6,-328.1 -222.6,-558.2 -103.3,-395.9 -160.2,-912.3 -160.2,-1453.9 0,-541.6 56.9,-1058 160.2,-1453.9 60,-230.1 132.8,-412.7 222.6,-558.2"
         style="fill:#292a2c;fill-opacity:1;fill-rule:nonzero;stroke:none"
         transform="matrix(0.13333333,0,0,-0.13333333,0,4000)" /><path
         id="path8"
         d="m 15805.2,17128.7 c 230.6,-374 536.1,-429.8 697.7,-429.8 161.6,0 467.1,55.8 697.7,429.8 89.8,145.5 162.6,328.1 222.6,558.2 103.3,395.9 160.2,912.3 160.2,1453.9 0,541.6 -56.9,1058 -160.2,1453.9 -60,230.1 -132.8,412.7 -222.6,558.2 -230.6,374 -536.1,429.8 -697.7,429.8 -161.6,0 -467.1,-55.8 -697.7,-429.8 -89.8,-145.5 -162.6,-328.1 -222.6,-558.2 -103.3,-395.9 -160.2,-912.3 -160.2,-1453.9 0,-541.6 56.9,-1058 160.2,-1453.9 60,-230.1 132.8,-412.7 222.6,-558.2"
         style="fill:#292a2c;fill-opacity:1;fill-rule:nonzero;stroke:none"
         transform="matrix(0.13333333,0,0,-0.13333333,0,4000)" /><path
         id="path9"
         d="m 9742.17,5166.6 c -19.62,-128.3 -65.45,-235.7 -122.57,-287.2 -3.51,-3.2 -9.51,-6.3 -16.9,-8.7 -44.42,-14.5 -73.62,-17.8 -87.89,-17.8 -0.13,0 -0.28,0 -0.41,0 -25.43,35.2 -86.45,181.5 -69.14,503.1 13.22,245.5 68.68,524.9 152.98,772.6 120.38,-331.3 183.36,-704.1 143.93,-962 z m -345.51,2093.8 c -395.92,-262.2 -592.61,-951.7 -658.8,-1236 -66.51,-285.7 -195.54,-1003.2 42.33,-1495.1 95.95,-198.3 243.92,-342.8 427.93,-417.9 95.96,-39.1 198.32,-58.7 306.36,-58.7 106.98,0 219.53,19.2 336.87,57.6 114.69,37.5 217.15,96.5 304.35,175.3 198.1,178.9 328.6,441.7 377.3,760 v 0.1 c 99.1,648.1 -172.8,1605.7 -606.05,2134.6 -130.05,158.8 -359.16,193.4 -530.29,80.1"
         style="fill:#292a2c;fill-opacity:1;fill-rule:nonzero;stroke:none"
         transform="matrix(0.13333333,0,0,-0.13333333,0,4000)" /></g></g><path
     d="m 25.290635,124.7398 v -0.0318 h -0.5715 v 0.0318 h 0.169334 c 0.232833,0 0.215194,0.10583 0.172861,0.23636 l -0.377473,1.20297 -0.06703,0.20814 -0.02822,-0.007 0.07056,-0.23284 -0.448028,-1.43228 c -0.0071,-0.0212 -0.08114,-0.0635 -0.116417,-0.0635 -0.04233,0 -0.07408,0.0564 -0.123472,0.127 l -0.09172,0.13406 0.02117,0.0176 0.08819,-0.11995 c 0.02822,-0.0388 0.06703,-0.0247 0.07761,0.0106 l 0.518583,1.651 h 0.03881 l 0.469195,-1.49578 c 0.04586,-0.14111 0.08467,-0.23636 0.197555,-0.23636 z m 0.469195,1.25942 v -1.25942 c 0,-0.0388 -0.09525,-0.0882 -0.130527,-0.0882 -0.04233,0 -0.07408,0.0564 -0.123473,0.127 l -0.09172,0.13406 0.02117,0.0176 0.08819,-0.11995 c 0.02822,-0.0388 0.06703,-0.0282 0.06703,0.0106 v 1.16064 c 0,0.33161 0.116417,0.5468 0.366889,0.5468 0.208139,0 0.352778,-0.21519 0.458612,-0.41275 l 0.130527,-0.24341 0.105834,-0.1905 0.02822,0.0141 -0.123472,0.22578 v 0.51858 c 0,0.0388 0.09525,0.0882 0.130528,0.0882 0.04233,0 0.07408,-0.0564 0.123472,-0.127 l 0.09172,-0.13405 -0.02117,-0.0176 -0.0882,0.11994 c -0.02822,0.0388 -0.06703,0.0282 -0.06703,-0.0106 v -1.61925 c 0,-0.0388 -0.09525,-0.0882 -0.130528,-0.0882 -0.04233,0 -0.07408,0.0564 -0.123472,0.127 l -0.09172,0.13406 0.02117,0.0176 0.08819,-0.11995 c 0.02822,-0.0388 0.06703,-0.0282 0.06703,0.0106 v 0.97367 l -0.155223,0.28575 c -0.105833,0.19402 -0.197555,0.32455 -0.363361,0.32455 -0.176389,0 -0.278695,-0.15169 -0.278695,-0.40569 z m 1.495779,-1.88384 v 2.28953 c 0,0.0459 0.123472,0.12347 0.165806,0.12347 0.04233,0 0.07761,-0.06 0.123472,-0.127 l 0.141111,-0.20461 -0.02117,-0.0176 -0.119944,0.16934 c -0.04233,0.06 -0.119945,0.0282 -0.119945,-0.06 v -2.25425 c 0,-0.0388 -0.09525,-0.0882 -0.130528,-0.0882 -0.04233,0 -0.07408,0.0564 -0.123472,0.127 l -0.09172,0.13405 0.02117,0.0176 0.08819,-0.11994 c 0.02822,-0.0388 0.06703,-0.0282 0.06703,0.0106 z m 0.818445,0.70556 v 2.14489 c 0,0.14817 -0.0635,0.17992 -0.211667,0.17992 v 0.0317 h 0.592668 v -0.0317 c -0.148167,0 -0.211667,-0.0318 -0.211667,-0.17992 v -0.57503 c 0.151694,0.0811 0.352778,0.13758 0.5715,0.13758 0.550334,0 0.952501,-0.39511 0.952501,-0.93839 0,-0.51505 -0.359834,-0.93839 -0.797279,-0.93839 -0.306916,0 -0.437444,0.22578 -0.599722,0.51859 l -0.116417,0.20814 -0.105833,0.1905 -0.02822,-0.0176 0.123473,-0.21872 v -0.59267 c 0,-0.0388 -0.09525,-0.0882 -0.130528,-0.0882 -0.04233,0 -0.07408,0.0564 -0.123472,0.127 l -0.09172,0.13406 0.02117,0.0176 0.08819,-0.11995 c 0.02822,-0.0388 0.06703,-0.0282 0.06703,0.0106 z m 0.169334,1.4358 v -0.8008 l 0.141111,-0.25047 c 0.134056,-0.23989 0.254,-0.43039 0.504472,-0.43039 0.409223,0 0.709084,0.38805 0.709084,0.91722 0,0.51858 -0.321028,0.79728 -0.702028,0.79728 -0.211667,0 -0.504473,-0.0882 -0.652639,-0.23284 z m 1.841501,-2.14136 v 2.28953 c 0,0.0459 0.123472,0.12347 0.165805,0.12347 0.04233,0 0.07761,-0.06 0.123473,-0.127 l 0.141111,-0.20461 -0.02117,-0.0176 -0.119944,0.16934 c -0.04233,0.06 -0.119945,0.0282 -0.119945,-0.06 v -2.25425 c 0,-0.0388 -0.09525,-0.0882 -0.130528,-0.0882 -0.04233,0 -0.07408,0.0564 -0.123472,0.127 l -0.09172,0.13405 0.02117,0.0176 0.08819,-0.11994 c 0.02822,-0.0388 0.06703,-0.0282 0.06703,0.0106 z m 0.571501,1.47461 c 0,0.54328 0.402167,0.93839 0.9525,0.93839 0.229306,0 0.490362,-0.0564 0.645584,-0.11994 l 0.09525,-0.67733 h -0.02822 l -0.04233,0.26458 c -0.04233,0.25753 -0.264583,0.50447 -0.670278,0.50447 -0.328083,0 -0.5715,-0.16933 -0.694972,-0.45861 l -0.09525,0.06 -0.01764,-0.0247 1.114778,-0.69497 c 0.165806,-0.10231 0.264584,-0.20109 0.264584,-0.31398 0,-0.23989 -0.239889,-0.41628 -0.571501,-0.41628 -0.550333,0 -0.9525,0.39512 -0.9525,0.93839 z m 0.176389,0 c 0,-0.55386 0.303389,-0.91016 0.776111,-0.91016 0.239889,0 0.41275,0.13758 0.41275,0.32808 0,0.19756 -0.151694,0.36689 -0.416278,0.5327 l -0.712611,0.4445 c -0.03881,-0.11642 -0.05997,-0.24695 -0.05997,-0.39512 z m 2.391833,-0.13405 c 0.232834,0.1905 0.437445,0.3563 0.437445,0.59619 0,0.29634 -0.243417,0.44803 -0.479778,0.44803 -0.335139,0 -0.567973,-0.17639 -0.62089,-0.50447 l -0.04233,-0.26458 h -0.02822 l 0.09525,0.67733 c 0.155222,0.0635 0.402167,0.11994 0.560917,0.11994 0.381,0 0.663223,-0.23636 0.663223,-0.55739 0,-0.27163 -0.211667,-0.42686 -0.448028,-0.62794 -0.299862,-0.25047 -0.606779,-0.4445 -0.606779,-0.56092 0,-0.0282 0.0247,-0.0459 0.05292,-0.0459 h 0.440973 c 0.15875,0 0.282222,0.11995 0.313972,0.30692 l 0.02822,0.16228 h 0.03175 l -0.07056,-0.49742 h -0.786695 c -0.112889,0 -0.176389,0.06 -0.176389,0.12347 0,0.16581 0.331611,0.37747 0.635,0.62442 z m 1.001891,1.016 h 0.186972 c 0,-0.16933 0.01058,-0.32808 0.03881,-0.47272 0.172861,-0.89253 0.663222,-1.37937 0.663222,-1.92617 v -0.0706 h -1.245306 l -0.130528,0.6985 h 0.03175 l 0.05644,-0.26811 c 0.05292,-0.25047 0.208139,-0.28222 0.437444,-0.28222 h 0.814917 c -0.0388,0.43039 -0.508,0.96661 -0.751417,1.65806 -0.07408,0.21519 -0.102305,0.4445 -0.102305,0.66322 z m 1.919112,-2.49061 c 0.465667,0 0.744362,0.47977 0.744362,1.11477 0,0.0988 -0.0071,0.19756 -0.01764,0.29634 -0.176389,0.21519 -0.440973,0.35278 -0.670279,0.35278 -0.426861,0 -0.737306,-0.34925 -0.737306,-0.87842 0,-0.48331 0.239889,-0.88547 0.680863,-0.88547 z m -0.871362,0.88194 c 0,0.54328 0.381,0.91722 0.90664,0.91722 0.239889,0 0.500944,-0.127 0.684389,-0.32808 -0.08114,0.53975 -0.345722,1.03717 -0.790223,1.03717 -0.268111,0 -0.515056,-0.19756 -0.613833,-0.62442 l -0.08467,-0.36336 h -0.03175 l 0.179917,0.92075 c 0.109361,0.0388 0.313972,0.10583 0.515056,0.10583 0.624417,0 1.040695,-0.75494 1.040695,-1.43228 0,-0.6985 -0.366889,-1.15005 -0.934862,-1.15005 -0.504473,0 -0.871362,0.39864 -0.871362,0.91722 z"
     id="text22-0"
     style="font-size:3.52778px;font-family:Relimuss;-inkscape-font-specification:Relimuss;fill:#cccccc;stroke:#cccccc;stroke-width:0.264583"
     inkscape:label="brand"
     aria-label="vulples79" /><g
     inkscape:groupmode="layer"
     id="layer2"
     inkscape:label="text-editable"
     style="display:none"
     sodipodi:insensitive="true"><text
       xml:space="preserve"
       style="font-style:normal;font-variant:normal;font-weight:600;font-stretch:normal;font-size:1.41111px;font-family:'JetBrains Mono';-inkscape-font-specification:'JetBrains Mono Semi-Bold';writing-mode:lr-tb;direction:ltr;display:inline;fill:#b3b3b3;stroke-width:0.264583"
       x="20.213917"
       y="98.517876"
       id="text5"
       inkscape:label="cv-slide"><tspan
         sodipodi:role="line"
         id="tspan5"
         style="stroke-width:0.264583"
         x="20.213917"
         y="98.517876">SLIDE</tspan></text><text
       xml:space="preserve"
       style="font-style:normal;font-variant:normal;font-weight:600;font-stretch:normal;font-size:1.41111px;font-family:'JetBrains Mono';-inkscape-font-specification:'JetBrains Mono Semi-Bold';writing-mode:lr-tb;direction:ltr;fill:#b3b3b3;stroke-width:0.264583"
       x="51.266666"
       y="98.516464"
       id="text7"
       inkscape:label="cv-gate"><tspan
         sodipodi:role="line"
         id="tspan7"
         style="stroke-width:0.264583"
         x="51.266666"
         y="98.516464">GATE</tspan></text><text
       xml:space="preserve"
       style="font-style:normal;font-variant:normal;font-weight:600;font-stretch:normal;font-size:1.41111px;font-family:'JetBrains Mono';-inkscape-font-specification:'JetBrains Mono Semi-Bold';writing-mode:lr-tb;direction:ltr;display:inline;fill:#b3b3b3;stroke-width:0.264583"
       x="5.8459396"
       y="98.516472"
       id="text5-5"
       inkscape:label="cv-decay"><tspan
         sodipodi:role="line"
         id="tspan5-7"
         style="stroke-width:0.264583"
         x="5.8459396"
         y="98.516472">DECAY</tspan></text><text
       xml:space="preserve"
       style="font-style:normal;font-variant:normal;font-weight:600;font-stretch:normal;font-size:1.41111px;font-family:'JetBrains Mono';-inkscape-font-specification:'JetBrains Mono Semi-Bold';writing-mode:lr-tb;direction:ltr;fill:#b3b3b3;stroke-width:0.264583"
       x="36.085182"
       y="98.515053"
       id="text6"
       inkscape:label="cv-envmod"><tspan
         sodipodi:role="line"
         id="tspan6"
         style="stroke-width:0.264583"
         x="36.085182"
         y="98.515053">ENVMOD</tspan></text><text
       xml:space="preserve"
       style="font-style:normal;font-variant:normal;font-weight:600;font-stretch:normal;font-size:1.41111px;font-family:'JetBrains Mono';-inkscape-font-specification:'JetBrains Mono Semi-Bold';writing-mode:lr-tb;direction:ltr;fill:#b3b3b3;stroke-width:0.264583"
       x="35.099266"
       y="86.51506"
       id="text10"
       inkscape:label="cv-res"><tspan
         sodipodi:role="line"
         id="tspan10"
         style="stroke-width:0.264583"
         x="35.099266"
         y="86.51506">RESONANCE</tspan></text><text
       xml:space="preserve"
       style="font-style:normal;font-variant:normal;font-weight:600;font-stretch:normal;font-size:1.41111px;font-family:'JetBrains Mono';-inkscape-font-specification:'JetBrains Mono Semi-Bold';writing-mode:lr-tb;direction:ltr;fill:#b3b3b3;stroke-width:0.264583"
       x="19.985249"
       y="86.513641"
       id="text9"
       inkscape:label="cv-cutoff"><tspan
         sodipodi:role="line"
         id="tspan9"
         style="stroke-width:0.264583"
         x="19.985249"
         y="86.513641">CUTOFF</tspan></text><text
       xml:space="preserve"
       style="font-style:normal;font-variant:normal;font-weight:600;font-stretch:normal;font-size:1.41111px;font-family:'JetBrains Mono';-inkscape-font-specification:'JetBrains Mono Semi-Bold';writing-mode:lr-tb;direction:ltr;fill:#b3b3b3;stroke-width:0.264583"
       x="6.1344433"
       y="86.513641"
       id="text8"
       inkscape:label="cv-pitch"><tspan
         sodipodi:role="line"
         id="tspan8"
         style="stroke-width:0.264583"
         x="6.1344433"
         y="86.513641">PITCH</tspan></text><text
       xml:space="preserve"
       style="font-style:normal;font-variant:normal;font-weight:600;font-stretch:normal;font-size:1.41111px;font-family:'JetBrains Mono';-inkscape-font-specification:'JetBrains Mono Semi-Bold';writing-mode:lr-tb;direction:ltr;display:inline;fill:#b3b3b3;stroke-width:0.264583"
       x="50.42635"
       y="86.513649"
       id="text11"
       inkscape:label="cv-accent"><tspan
         sodipodi:role="line"
         id="tspan11"
         style="stroke-width:0.264583"
         x="50.42635"
         y="86.513649">ACCENT</tspan></text><text
       xml:space="preserve"
       id="text334"
       style="font-style:normal;font-variant:normal;font-weight:200;font-stretch:normal;font-size:8px;font-family:'JetBrains Mono';-inkscape-font-specification:'JetBrains Mono Ultra-Light';writing-mode:lr-tb;direction:ltr;white-space:pre;shape-inside:url(#rect335);display:inline;fill:#b3b3b3"
       inkscape:label="brand"
       transform="matrix(0.26458333,0,0,0.26458333,3.4570681,1.8373773)"><tspan
         x="83.439453"
         y="473.87322"
         id="tspan16"><tspan
           style="font-weight:normal;-inkscape-font-specification:'JetBrains Mono'"
           id="tspan1">vulpes79</tspan></tspan></text><text
       xml:space="preserve"
       style="font-style:normal;font-variant:normal;font-weight:600;font-stretch:normal;font-size:1.76389px;font-family:'JetBrains Mono';-inkscape-font-specification:'JetBrains Mono Semi-Bold';writing-mode:lr-tb;direction:ltr;fill:#b3b3b3;stroke-width:0.264583"
       x="37.967705"
       y="112.42699"
       id="text2-0"
       inkscape:label="out-r"><tspan
         sodipodi:role="line"
         id="tspan2-0"
         style="font-size:1.76389px;stroke-width:0.264583"
         x="37.967705"
         y="112.42699">OUT R</tspan></text><text
       xml:space="preserve"
       style="font-style:normal;font-variant:normal;font-weight:600;font-stretch:normal;font-size:1.76389px;font-family:'JetBrains Mono';-inkscape-font-specification:'JetBrains Mono Semi-Bold';writing-mode:lr-tb;direction:ltr;fill:#b3b3b3;stroke-width:0.264583"
       x="17.662699"
       y="112.42699"
       id="text2"
       inkscape:label="out-l"><tspan
         sodipodi:role="line"
         id="tspan2"
         style="font-size:1.76389px;stroke-width:0.264583"
         x="17.662699"
         y="112.42699">OUT L</tspan></text><text
       xml:space="preserve"
       style="font-style:normal;font-variant:normal;font-weight:600;font-stretch:normal;font-size:2.11667px;font-family:'JetBrains Mono';-inkscape-font-specification:'JetBrains Mono Semi-Bold';writing-mode:lr-tb;direction:ltr;fill:#b3b3b3;stroke-width:0.264583"
       x="41.885651"
       y="42.878834"
       id="text12-3"
       inkscape:label="envmod"><tspan
         sodipodi:role="line"
         id="tspan12-8"
         style="font-style:normal;font-variant:normal;font-weight:bold;font-stretch:normal;font-size:2.11667px;font-family:'JetBrains Mono';-inkscape-font-specification:'JetBrains Mono Bold';fill:#1a1a1a;stroke-width:0.264583"
         x="41.885651"
         y="42.878834">ENVMOD</tspan></text><text
       xml:space="preserve"
       style="font-style:normal;font-variant:normal;font-weight:600;font-stretch:normal;font-size:2.11667px;font-family:'JetBrains Mono';-inkscape-font-specification:'JetBrains Mono Semi-Bold';writing-mode:lr-tb;direction:ltr;fill:#b3b3b3;stroke-width:0.264583"
       x="11.769959"
       y="42.878834"
       id="text12"
       inkscape:label="decay"><tspan
         sodipodi:role="line"
         id="tspan12"
         style="font-style:normal;font-variant:normal;font-weight:bold;font-stretch:normal;font-size:2.11667px;font-family:'JetBrains Mono';-inkscape-font-specification:'JetBrains Mono Bold';fill:#1a1a1a;stroke-width:0.264583"
         x="11.769959"
         y="42.878834">DECAY</tspan></text><text
       xml:space="preserve"
       style="font-style:normal;font-variant:normal;font-weight:600;font-stretch:normal;font-size:2.11667px;font-family:'JetBrains Mono';-inkscape-font-specification:'JetBrains Mono Semi-Bold';writing-mode:lr-tb;direction:ltr;fill:#b3b3b3;stroke-width:0.264583"
       x="9.4790449"
       y="70.421165"
       id="text12-7"
       inkscape:label="mode"><tspan
         sodipodi:role="line"
         id="tspan12-82"
         style="font-style:normal;font-variant:normal;font-weight:bold;font-stretch:normal;font-size:2.11667px;font-family:'JetBrains Mono';-inkscape-font-specification:'JetBrains Mono Bold';fill:#1a1a1a;stroke-width:0.264583"
         x="9.4790449"
         y="70.421165">MODE</tspan></text><text
       xml:space="preserve"
       style="font-style:normal;font-variant:normal;font-weight:600;font-stretch:normal;font-size:2.11667px;font-family:'JetBrains Mono';-inkscape-font-specification:'JetBrains Mono Semi-Bold';writing-mode:lr-tb;direction:ltr;fill:#b3b3b3;stroke-width:0.264583"
       x="26.652845"
       y="70.421165"
       id="text12-19"
       inkscape:label="accent"><tspan
         sodipodi:role="line"
         id="tspan12-4"
         style="font-style:normal;font-variant:normal;font-weight:bold;font-stretch:normal;font-size:2.11667px;font-family:'JetBrains Mono';-inkscape-font-specification:'JetBrains Mono Bold';fill:#1a1a1a;stroke-width:0.264583"
         x="26.652845"
         y="70.421165">ACCENT</tspan></text><text
       xml:space="preserve"
       style="font-style:normal;font-variant:normal;font-weight:600;font-stretch:normal;font-size:2.11667px;font-family:'JetBrains Mono';-inkscape-font-specification:'JetBrains Mono Semi-Bold';writing-mode:lr-tb;direction:ltr;fill:#b3b3b3;stroke-width:0.264583"
       x="46.347599"
       y="70.421165"
       id="text12-08"
       inkscape:label="gate"><tspan
         sodipodi:role="line"
         id="tspan12-2"
         style="font-style:normal;font-variant:normal;font-weight:bold;font-stretch:normal;font-size:2.11667px;font-family:'JetBrains Mono';-inkscape-font-specification:'JetBrains Mono Bold';fill:#1a1a1a;stroke-width:0.264583"
         x="46.347599"
         y="70.421165">GATE</tspan></text><text
       xml:space="preserve"
       style="font-style:normal;font-variant:normal;font-weight:600;font-stretch:normal;font-size:2.11667px;font-family:'JetBrains Mono';-inkscape-font-specification:'JetBrains Mono Semi-Bold';writing-mode:lr-tb;direction:ltr;fill:#b3b3b3;stroke-width:0.264583"
       x="9.5213766"
       y="56.400002"
       id="text12-0"
       inkscape:label="wave"><tspan
         sodipodi:role="line"
         id="tspan12-6"
         style="font-style:normal;font-variant:normal;font-weight:bold;font-stretch:normal;font-size:2.11667px;font-family:'JetBrains Mono';-inkscape-font-specification:'JetBrains Mono Bold';fill:#1a1a1a;stroke-width:0.264583"
         x="9.5213766"
         y="56.400002">WAVE</tspan></text><text
       xml:space="preserve"
       style="font-style:normal;font-variant:normal;font-weight:600;font-stretch:normal;font-size:2.11667px;font-family:'JetBrains Mono';-inkscape-font-specification:'JetBrains Mono Semi-Bold';writing-mode:lr-tb;direction:ltr;fill:#b3b3b3;stroke-width:0.264583"
       x="46.910645"
       y="18.066336"
       id="text12-34"
       inkscape:label="res"><tspan
         sodipodi:role="line"
         id="tspan12-3"
         style="font-style:normal;font-variant:normal;font-weight:bold;font-stretch:normal;font-size:2.11667px;font-family:'JetBrains Mono';-inkscape-font-specification:'JetBrains Mono Bold';fill:#1a1a1a;stroke-width:0.264583"
         x="46.910645"
         y="18.066336">RES</tspan></text><text
       xml:space="preserve"
       style="font-style:normal;font-variant:normal;font-weight:600;font-stretch:normal;font-size:2.11667px;font-family:'JetBrains Mono';-inkscape-font-specification:'JetBrains Mono Semi-Bold';writing-mode:lr-tb;direction:ltr;fill:#b3b3b3;stroke-width:0.264583"
       x="9.4766216"
       y="18.045168"
       id="text12-5"
       inkscape:label="tune"><tspan
         sodipodi:role="line"
         id="tspan12-00"
         style="font-style:normal;font-variant:normal;font-weight:bold;font-stretch:normal;font-size:2.11667px;font-family:'JetBrains Mono';-inkscape-font-specification:'JetBrains Mono Bold';fill:#1a1a1a;stroke-width:0.264583"
         x="9.4766216"
         y="18.045168">TUNE</tspan></text><text
       xml:space="preserve"
       style="font-style:normal;font-variant:normal;font-weight:600;font-stretch:normal;font-size:2.11667px;font-family:'JetBrains Mono';-inkscape-font-specification:'JetBrains Mono Semi-Bold';writing-mode:lr-tb;direction:ltr;fill:#b3b3b3;stroke-width:0.264583"
       x="26.663641"
       y="28.591333"
       id="text12-9"
       inkscape:label="cutoff"><tspan
         sodipodi:role="line"
         id="tspan12-81"
         style="font-style:normal;font-variant:normal;font-weight:bold;font-stretch:normal;font-size:2.11667px;font-family:'JetBrains Mono';-inkscape-font-specification:'JetBrains Mono Bold';fill:#1a1a1a;stroke-width:0.264583"
         x="26.663641"
         y="28.591333">CUTOFF</tspan></text><text
       xml:space="preserve"
       style="font-style:normal;font-variant:normal;font-weight:600;font-stretch:normal;font-size:2.11667px;font-family:'JetBrains Mono';-inkscape-font-specification:'JetBrains Mono Semi-Bold';writing-mode:lr-tb;direction:ltr;fill:#b3b3b3;stroke-width:0.264583"
       x="27.322985"
       y="56.400002"
       id="text12-1"
       inkscape:label="slide"><tspan
         sodipodi:role="line"
         id="tspan12-0"
         style="font-style:normal;font-variant:normal;font-weight:bold;font-stretch:normal;font-size:2.11667px;font-family:'JetBrains Mono';-inkscape-font-specification:'JetBrains Mono Bold';fill:#1a1a1a;stroke-width:0.264583"
         x="27.322985"
         y="56.400002">SLIDE</tspan></text><text
       xml:space="preserve"
       style="font-style:normal;font-variant:normal;font-weight:bold;font-stretch:normal;font-size:3.52778px;font-family:'JetBrains Mono';-inkscape-font-specification:'JetBrains Mono Bold';writing-mode:lr-tb;direction:ltr;fill:#1a1a1a;stroke-width:0.264583"
       x="19.437693"
       y="6.6876388"
       id="text13"
       inkscape:label="title"><tspan
         sodipodi:role="line"
         id="tspan13"
         style="font-style:normal;font-variant:normal;font-weight:800;font-stretch:normal;font-size:3.52778px;font-family:'JetBrains Mono';-inkscape-font-specification:'JetBrains Mono Ultra-Bold';stroke-width:0.264583"
         x="19.437693"
         y="6.6876388">ACID ENGINE</tspan></text><text
       xml:space="preserve"
       style="font-style:normal;font-variant:normal;font-weight:normal;font-stretch:normal;font-size:1.76389px;font-family:'JetBrains Mono';-inkscape-font-specification:'JetBrains Mono';writing-mode:lr-tb;direction:ltr;fill:#1a1a1a;stroke-width:0.264583"
       x="-17.264063"
       y="75.935417"
       id="text18"><tspan
         sodipodi:role="line"
         id="tspan18"
         style="stroke-width:0.264583"
         x="-17.264063"
         y="75.935417" /></text><text
       xml:space="preserve"
       style="display:inline;font-style:normal;font-variant:normal;font-weight:normal;font-stretch:normal;font-size:3.52778px;font-family:Relimuss;-inkscape-font-specification:Relimuss;writing-mode:lr-tb;direction:ltr;fill:#cccccc;stroke:#cccccc;stroke-width:0.264583"
       x="23.826607"
       y="126.47194"
       id="text22"
       inkscape:label="brand"><tspan
         sodipodi:role="line"
         id="tspan4"
         style="font-style:normal;font-variant:normal;font-weight:normal;font-stretch:normal;font-size:3.52778px;font-family:Relimuss;-inkscape-font-specification:Relimuss;fill:#cccccc;stroke:#cccccc;stroke-width:0.264583;writing-mode:lr-tb;direction:ltr"
         x="23.826607"
         y="126.47194">vulples79</tspan></text><text
       xml:space="preserve"
       style="font-style:normal;font-variant:normal;font-weight:normal;font-stretch:normal;font-size:5.11144px;font-family:'Dephunked (BRK)';-inkscape-font-specification:'Dephunked (BRK)';writing-mode:lr-tb;direction:ltr;fill:#cccccc;stroke:#1a1a1a;stroke-width:0.191679"
       x="7.7790189"
       y="7.6641116"
       id="text23"
       inkscape:label="title"><tspan
         sodipodi:role="line"
         id="tspan22"
         style="font-style:normal;font-variant:normal;font-weight:normal;font-stretch:normal;font-size:5.11144px;font-family:'Dephunked (BRK)';-inkscape-font-specification:'Dephunked (BRK)';fill:#1a1a1a;stroke:#1a1a1a;stroke-width:0.191679"
         x="7.7790189"
         y="7.6641116">ACID ENGINE</tspan></text><text
       xml:space="preserve"
       transform="matrix(0.37794314,0,0,0.37794314,-13.573655,2.3293725)"
       id="text1"
       style="font-style:normal;font-variant:normal;font-weight:normal;font-stretch:normal;font-size:16px;font-family:QUARTZO;-inkscape-font-specification:QUARTZO;text-align:center;writing-mode:lr-tb;direction:ltr;white-space:pre;shape-inside:url(#rect2);display:inline;fill:none;stroke:#000000;stroke-width:0.999999"
       x="69.845665"
       y="0"
       inkscape:label="title"><tspan
         x="66.839218"
         y="14.71875"
         id="tspan17">ACID ENGINE</tspan></text></g><g
     inkscape:groupmode="layer"
     id="g37"
     inkscape:label="text_shapes"
     style="display:inline"><path
       d="m 20.640072,98.531987 q -0.104422,0 -0.180622,-0.03528 -0.0762,-0.03528 -0.118533,-0.100189 -0.04092,-0.06491 -0.04092,-0.1524 h 0.163689 q 0,0.06632 0.04798,0.104422 0.04798,0.0381 0.131233,0.0381 0.07761,0 0.122767,-0.03669 0.04515,-0.0381 0.04515,-0.104423 0,-0.05503 -0.03104,-0.09454 -0.03105,-0.04092 -0.0889,-0.05503 l -0.124178,-0.03528 q -0.117122,-0.03246 -0.180622,-0.111478 -0.0635,-0.08043 -0.0635,-0.1905 0,-0.08749 0.0381,-0.150988 0.03951,-0.0635 0.110067,-0.09878 0.07197,-0.03669 0.169333,-0.03669 0.146755,0 0.232833,0.07761 0.08608,0.0762 0.08749,0.204611 h -0.1651 q 0,-0.0635 -0.04092,-0.100189 -0.04092,-0.03669 -0.115711,-0.03669 -0.07197,0 -0.112889,0.03528 -0.03951,0.03387 -0.03951,0.09454 0,0.05644 0.02963,0.09596 0.03104,0.03951 0.08749,0.05644 l 0.128411,0.03669 q 0.117122,0.03105 0.179211,0.110067 0.0635,0.07902 0.0635,0.193322 0,0.08749 -0.04233,0.153811 -0.04092,0.06491 -0.115711,0.1016 -0.07479,0.03669 -0.176389,0.03669 z m 0.570089,-0.01411 v -1.030111 h 0.1651 v 0.877711 h 0.443088 v 0.1524 z m 0.829733,0 v -0.145345 h 0.207433 V 97.63311 h -0.207433 v -0.145345 h 0.581378 v 0.145345 h -0.207434 v 0.739421 h 0.207434 v 0.145345 z m 0.8255,0 v -1.030111 h 0.296333 q 0.104422,0 0.179211,0.03951 0.0762,0.03951 0.118534,0.111478 0.04233,0.07056 0.04233,0.167922 v 0.390878 q 0,0.09737 -0.04233,0.169333 -0.04233,0.07197 -0.118534,0.111478 -0.07479,0.03951 -0.179211,0.03951 z m 0.1651,-0.150989 h 0.131233 q 0.08185,0 0.128411,-0.04516 0.04657,-0.04515 0.04657,-0.124177 v -0.390878 q 0,-0.07761 -0.04657,-0.122766 -0.04657,-0.04516 -0.128411,-0.04516 h -0.131233 z m 0.6985,0.150989 v -1.030111 h 0.611011 v 0.143934 h -0.448733 v 0.28081 h 0.399344 v 0.143934 h -0.399344 v 0.317499 h 0.448733 v 0.143934 z"
       id="text4"
       style="font-weight:600;font-size:1.41111px;font-family:'JetBrains Mono';-inkscape-font-specification:'JetBrains Mono Semi-Bold';fill:#b3b3b3;stroke-width:0.264583"
       inkscape:label="cv-slide"
       aria-label="SLIDE" /><path
       d="m 51.695643,98.600004 q -0.09737,0 -0.170744,-0.03669 -0.07197,-0.03669 -0.111478,-0.104422 -0.03951,-0.06914 -0.03951,-0.160866 v -0.454377 q 0,-0.09313 0.03951,-0.160866 0.03951,-0.06773 0.111478,-0.104422 0.07338,-0.03669 0.170744,-0.03669 0.09878,0 0.169333,0.0381 0.07197,0.03669 0.111478,0.104422 0.03951,0.06632 0.03951,0.159455 h -0.163689 q 0,-0.0762 -0.04092,-0.115711 -0.04092,-0.04092 -0.115711,-0.04092 -0.07479,0 -0.117122,0.04092 -0.04092,0.03951 -0.04092,0.115711 v 0.454378 q 0,0.07479 0.04092,0.117122 0.04233,0.04092 0.117122,0.04092 0.07479,0 0.115711,-0.04092 0.04092,-0.04233 0.04092,-0.118533 V 98.187959 H 51.66742 v -0.143933 h 0.348544 v 0.254 q 0,0.09172 -0.03951,0.159455 -0.03951,0.06773 -0.111478,0.105833 -0.07056,0.03669 -0.169333,0.03669 z m 0.472722,-0.01411 0.261056,-1.03011 h 0.214488 l 0.261056,1.03011 h -0.166511 l -0.06068,-0.255411 h -0.282222 l -0.05927,0.255411 z m 0.256822,-0.390877 h 0.221545 l -0.06491,-0.286456 q -0.01693,-0.07338 -0.02963,-0.131233 -0.01129,-0.05786 -0.01552,-0.08043 -0.0042,0.02258 -0.01552,0.08043 -0.01129,0.05644 -0.02822,0.129822 z m 0.8763,0.390877 v -0.879121 h -0.273755 v -0.1524 h 0.711199 v 0.1524 h -0.273755 v 0.879121 z m 0.633589,0 v -1.03011 h 0.611011 v 0.143933 h -0.448733 v 0.280811 h 0.399344 v 0.143933 h -0.399344 v 0.3175 h 0.448733 v 0.143933 z"
       id="text14"
       style="font-weight:600;font-size:1.41111px;font-family:'JetBrains Mono';-inkscape-font-specification:'JetBrains Mono Semi-Bold';fill:#b3b3b3;stroke-width:0.264583"
       inkscape:label="cv-gate"
       aria-label="GATE" /><path
       d="m 5.9574173,98.516472 v -1.03011 h 0.2963331 q 0.1044222,0 0.179211,0.03951 0.0762,0.03951 0.1185333,0.111477 0.042333,0.07056 0.042333,0.167922 v 0.390878 q 0,0.09737 -0.042333,0.169333 -0.042333,0.07197 -0.1185333,0.111478 -0.074789,0.03951 -0.179211,0.03951 z m 0.1650999,-0.150989 h 0.1312332 q 0.081844,0 0.1284111,-0.04515 0.046567,-0.04516 0.046567,-0.124178 v -0.390878 q 0,-0.07761 -0.046567,-0.122766 -0.046567,-0.04516 -0.1284111,-0.04516 H 6.1225172 Z m 0.6985,0.150989 v -1.03011 h 0.6110107 v 0.143933 h -0.448733 v 0.280811 H 7.382639 v 0.143933 H 6.9832949 v 0.3175 h 0.448733 v 0.143933 z m 1.147233,0.01411 q -0.097367,0 -0.1707443,-0.03669 -0.071967,-0.03669 -0.1114777,-0.104422 -0.039511,-0.06914 -0.039511,-0.160867 v -0.454377 q 0,-0.09313 0.039511,-0.160867 0.039511,-0.06773 0.1114777,-0.104422 0.073378,-0.03669 0.1707443,-0.03669 0.098778,0 0.1693332,0.0381 0.071967,0.03669 0.1114777,0.104423 0.039511,0.06632 0.039511,0.159455 H 8.1248835 q 0,-0.0762 -0.040922,-0.115711 -0.040922,-0.04092 -0.1157111,-0.04092 -0.074789,0 -0.1171221,0.04092 -0.040922,0.03951 -0.040922,0.115711 v 0.454377 q 0,0.07479 0.040922,0.115711 0.042333,0.04092 0.1171221,0.04092 0.074789,0 0.1157111,-0.04092 0.040922,-0.04092 0.040922,-0.115711 h 0.1636887 q 0,0.09031 -0.039511,0.159456 -0.039511,0.06773 -0.1114777,0.105833 -0.070556,0.03669 -0.1693332,0.03669 z m 0.4727225,-0.01411 0.2610553,-1.03011 h 0.2144887 l 0.2610554,1.03011 h -0.166511 l -0.060678,-0.255411 h -0.282222 l -0.059267,0.255411 z m 0.256822,-0.390878 H 8.919339 l -0.064911,-0.286455 q -0.016933,-0.07338 -0.029633,-0.131233 -0.011289,-0.05786 -0.015522,-0.08043 -0.00423,0.02258 -0.015522,0.08043 -0.011289,0.05644 -0.028222,0.129822 z m 0.8762999,0.390878 V 98.139705 L 9.2692948,97.486362 h 0.1707443 l 0.1721554,0.373944 q 0.018345,0.03951 0.029633,0.0762 0.0127,0.03669 0.016933,0.05786 0.00423,-0.02117 0.015522,-0.05786 0.0127,-0.03669 0.029633,-0.0762 l 0.1679221,-0.373944 h 0.1707442 l -0.3047997,0.653343 v 0.376767 z"
       id="text15"
       style="font-weight:600;font-size:1.41111px;font-family:'JetBrains Mono';-inkscape-font-specification:'JetBrains Mono Semi-Bold';fill:#b3b3b3;stroke-width:0.264583"
       inkscape:label="cv-decay"
       aria-label="DECAY" /><path
       d="m 36.213593,98.515053 v -1.030111 h 0.611011 v 0.143934 h -0.448733 v 0.280811 h 0.399344 v 0.143933 h -0.399344 v 0.3175 h 0.448733 v 0.143933 z m 0.826911,0 v -1.030111 h 0.2032 l 0.293511,0.843844 q -0.0028,-0.04233 -0.0085,-0.100189 -0.0042,-0.05927 -0.0071,-0.121355 -0.0028,-0.0635 -0.0028,-0.112889 v -0.509411 h 0.150988 v 1.030111 h -0.2032 L 37.17456,97.671209 q 0.0042,0.0381 0.0071,0.09454 0.0042,0.05644 0.0071,0.117122 0.0028,0.05927 0.0028,0.110067 v 0.522111 z m 1.0541,0 -0.261055,-1.030111 h 0.169333 l 0.160866,0.678744 q 0.01411,0.05503 0.0254,0.112889 0.01129,0.05786 0.01693,0.09313 0.0056,-0.03528 0.01552,-0.09313 0.01129,-0.05785 0.0254,-0.1143 l 0.158044,-0.677333 h 0.1651 l -0.261055,1.030111 z m 0.616656,0 v -1.030111 h 0.198966 l 0.1016,0.328789 q 0.01552,0.04798 0.0254,0.09031 0.0099,0.04092 0.01411,0.06068 0.0042,-0.01976 0.01411,-0.06068 0.0099,-0.04233 0.02399,-0.09031 l 0.09737,-0.328789 h 0.198966 v 1.030111 h -0.155222 v -0.333022 q 0,-0.06914 0.0042,-0.150989 0.0042,-0.08184 0.0099,-0.1651 0.0071,-0.08326 0.01411,-0.158044 0.0085,-0.0762 0.01411,-0.131233 l -0.145344,0.492477 h -0.155222 l -0.148167,-0.492477 q 0.0071,0.05362 0.01411,0.127 0.0071,0.07197 0.0127,0.155222 0.0071,0.08184 0.01129,0.1651 0.0042,0.08325 0.0042,0.158044 v 0.333022 z m 1.183922,0.01411 q -0.09737,0 -0.169334,-0.03669 -0.07055,-0.03669 -0.108655,-0.104422 -0.0381,-0.06915 -0.0381,-0.160867 v -0.454377 q 0,-0.09313 0.0381,-0.160867 0.0381,-0.06773 0.108655,-0.104422 0.07197,-0.03669 0.169334,-0.03669 0.09878,0 0.169333,0.03669 0.07055,0.03669 0.108655,0.104422 0.0381,0.06773 0.0381,0.160867 v 0.454377 q 0,0.09172 -0.0381,0.160867 -0.0381,0.06773 -0.108655,0.104422 -0.07056,0.03669 -0.169333,0.03669 z m 0,-0.145344 q 0.07479,0 0.112888,-0.04092 0.03951,-0.04092 0.03951,-0.115711 v -0.454377 q 0,-0.0762 -0.03951,-0.115711 -0.0381,-0.04092 -0.112888,-0.04092 -0.07479,0 -0.1143,0.04092 -0.0381,0.03951 -0.0381,0.115711 v 0.454377 q 0,0.07479 0.03951,0.115711 0.03951,0.04092 0.112889,0.04092 z m 0.534811,0.131233 v -1.030111 h 0.296333 q 0.104422,0 0.179211,0.03951 0.0762,0.03951 0.118533,0.111477 0.04233,0.07056 0.04233,0.167922 v 0.390878 q 0,0.09737 -0.04233,0.169333 -0.04233,0.07197 -0.118533,0.111478 -0.07479,0.03951 -0.179211,0.03951 z m 0.165099,-0.150989 h 0.131234 q 0.08184,0 0.128411,-0.04516 0.04657,-0.04515 0.04657,-0.124177 v -0.390878 q 0,-0.07761 -0.04657,-0.122766 -0.04657,-0.04516 -0.128411,-0.04516 h -0.131234 z"
       id="text16"
       style="font-weight:600;font-size:1.41111px;font-family:'JetBrains Mono';-inkscape-font-specification:'JetBrains Mono Semi-Bold';fill:#b3b3b3;stroke-width:0.264583"
       inkscape:label="cv-envmod"
       aria-label="ENVMOD" /><path
       d="m 34.940067,86.44563 v -1.03011 h 0.324555 q 0.100189,0 0.173567,0.0381 0.07479,0.03669 0.115711,0.105833 0.04092,0.06773 0.04092,0.159456 0,0.103011 -0.05221,0.180622 -0.05221,0.0762 -0.141111,0.107244 l 0.207433,0.438855 h -0.184854 l -0.184856,-0.416277 h -0.135466 v 0.416277 z m 0.163689,-0.561621 h 0.160866 q 0.07479,0 0.118533,-0.04233 0.04516,-0.04374 0.04516,-0.118533 0,-0.07479 -0.04516,-0.118533 -0.04374,-0.04374 -0.118533,-0.04374 h -0.160866 z m 0.6985,0.561621 v -1.03011 h 0.61101 v 0.143933 h -0.448733 v 0.280811 h 0.399344 v 0.143933 h -0.399344 v 0.3175 h 0.448733 v 0.143933 z m 1.14441,0.01411 q -0.104422,0 -0.180622,-0.03528 -0.0762,-0.03528 -0.118533,-0.100189 -0.04092,-0.06491 -0.04092,-0.1524 h 0.163689 q 0,0.06632 0.04798,0.104422 0.04798,0.0381 0.131234,0.0381 0.07761,0 0.122766,-0.03669 0.04516,-0.0381 0.04516,-0.104422 0,-0.05503 -0.03104,-0.09454 -0.03104,-0.04092 -0.0889,-0.05503 l -0.124177,-0.03528 q -0.117122,-0.03246 -0.180622,-0.111478 -0.0635,-0.08043 -0.0635,-0.1905 0,-0.08749 0.0381,-0.150989 0.03951,-0.0635 0.110066,-0.09878 0.07197,-0.03669 0.169333,-0.03669 0.146756,0 0.232834,0.07761 0.08608,0.0762 0.08749,0.204611 h -0.165099 q 0,-0.0635 -0.04092,-0.100189 -0.04092,-0.03669 -0.115711,-0.03669 -0.07197,0 -0.112888,0.03528 -0.03951,0.03387 -0.03951,0.09454 0,0.05644 0.02963,0.09596 0.03104,0.03951 0.08749,0.05644 l 0.128411,0.03669 q 0.117122,0.03104 0.179211,0.110067 0.0635,0.07902 0.0635,0.193322 0,0.08749 -0.04233,0.153811 -0.04092,0.06491 -0.115711,0.1016 -0.07479,0.03669 -0.176389,0.03669 z m 0.843845,0 q -0.09737,0 -0.169333,-0.03669 -0.07056,-0.03669 -0.108656,-0.104422 -0.0381,-0.06914 -0.0381,-0.160867 v -0.454377 q 0,-0.09313 0.0381,-0.160867 0.0381,-0.06773 0.108656,-0.104422 0.07197,-0.03669 0.169333,-0.03669 0.09878,0 0.169333,0.03669 0.07055,0.03669 0.108655,0.104422 0.0381,0.06773 0.0381,0.160867 v 0.454377 q 0,0.09172 -0.0381,0.160867 -0.0381,0.06773 -0.108655,0.104422 -0.07056,0.03669 -0.169333,0.03669 z m 0,-0.145345 q 0.07479,0 0.112889,-0.04092 0.03951,-0.04092 0.03951,-0.115711 v -0.454377 q 0,-0.0762 -0.03951,-0.115711 -0.0381,-0.04092 -0.112889,-0.04092 -0.07479,0 -0.1143,0.04092 -0.0381,0.03951 -0.0381,0.115711 v 0.454377 q 0,0.07479 0.03951,0.115711 0.03951,0.04092 0.11289,0.04092 z m 0.531989,0.131233 v -1.03011 h 0.2032 l 0.293511,0.843844 q -0.0028,-0.04233 -0.0085,-0.100189 -0.0042,-0.05927 -0.0071,-0.121355 -0.0028,-0.0635 -0.0028,-0.112889 V 85.41552 H 38.9518 v 1.03011 h -0.2032 l -0.2921,-0.843843 q 0.0042,0.0381 0.0071,0.09454 0.0042,0.05644 0.0071,0.117122 0.0028,0.05927 0.0028,0.110067 v 0.52211 z m 0.793044,0 0.261055,-1.03011 h 0.214489 l 0.261055,1.03011 h -0.166511 l -0.06068,-0.25541 H 39.34273 l -0.05927,0.25541 z m 0.256822,-0.390877 H 39.59391 L 39.529,85.768296 q -0.01693,-0.07338 -0.02963,-0.131234 -0.01129,-0.05786 -0.01552,-0.08043 -0.0042,0.02258 -0.01552,0.08043 -0.01129,0.05644 -0.02822,0.129822 z m 0.643467,0.390877 v -1.03011 h 0.2032 l 0.293511,0.843844 q -0.0028,-0.04233 -0.0085,-0.100189 -0.0042,-0.05927 -0.0071,-0.121355 -0.0028,-0.0635 -0.0028,-0.112889 V 85.41552 h 0.150989 v 1.03011 h -0.2032 l -0.2921,-0.843843 q 0.0042,0.0381 0.0071,0.09454 0.0042,0.05644 0.0071,0.117122 0.0028,0.05927 0.0028,0.110067 v 0.52211 z m 1.166989,0.01411 q -0.09737,0 -0.170745,-0.03669 -0.07197,-0.03669 -0.111477,-0.104422 -0.03951,-0.06914 -0.03951,-0.160867 v -0.454377 q 0,-0.09313 0.03951,-0.160867 0.03951,-0.06773 0.111477,-0.104422 0.07338,-0.03669 0.170745,-0.03669 0.09878,0 0.169333,0.0381 0.07197,0.03669 0.111478,0.104422 0.03951,0.06632 0.03951,0.159456 h -0.163689 q 0,-0.0762 -0.04092,-0.115711 -0.04092,-0.04092 -0.115711,-0.04092 -0.07479,0 -0.117122,0.04092 -0.04092,0.03951 -0.04092,0.115711 v 0.454377 q 0,0.07479 0.04092,0.115711 0.04233,0.04092 0.117122,0.04092 0.07479,0 0.115711,-0.04092 0.04092,-0.04092 0.04092,-0.115711 h 0.163689 q 0,0.09031 -0.03951,0.159455 -0.03951,0.06773 -0.111478,0.105834 -0.07056,0.03669 -0.169333,0.03669 z m 0.5461,-0.01411 v -1.03011 h 0.61101 v 0.143933 h -0.448733 v 0.280811 h 0.399344 v 0.143933 h -0.399344 v 0.3175 h 0.448733 v 0.143933 z"
       id="text17"
       style="font-weight:600;font-size:1.41111px;font-family:'JetBrains Mono';-inkscape-font-specification:'JetBrains Mono Semi-Bold';fill:#b3b3b3;stroke-width:0.264583"
       inkscape:label="cv-res"
       aria-label="RESONANCE" /><path
       d="m 20.203333,86.458329 q -0.09737,0 -0.170744,-0.03669 -0.07197,-0.03669 -0.111478,-0.104423 -0.03951,-0.06914 -0.03951,-0.160866 v -0.454378 q 0,-0.09313 0.03951,-0.160866 0.03951,-0.06773 0.111478,-0.104422 0.07338,-0.03669 0.170744,-0.03669 0.09878,0 0.169333,0.0381 0.07197,0.03669 0.111478,0.104422 0.03951,0.06632 0.03951,0.159455 h -0.163689 q 0,-0.0762 -0.04092,-0.115711 -0.04092,-0.04092 -0.115711,-0.04092 -0.07479,0 -0.117122,0.04092 -0.04092,0.03951 -0.04092,0.115711 v 0.454378 q 0,0.07479 0.04092,0.115711 0.04233,0.04092 0.117122,0.04092 0.07479,0 0.115711,-0.04092 0.04092,-0.04092 0.04092,-0.115711 h 0.163689 q 0,0.09031 -0.03951,0.159455 -0.03951,0.06773 -0.111478,0.105834 -0.07056,0.03669 -0.169333,0.03669 z m 0.841022,0 q -0.149578,0 -0.232833,-0.08184 -0.08184,-0.08184 -0.08184,-0.222955 v -0.739422 h 0.163688 v 0.738011 q 0,0.0762 0.0381,0.119944 0.0381,0.04233 0.112889,0.04233 0.07338,0 0.111478,-0.04233 0.03951,-0.04374 0.03951,-0.119944 v -0.738011 h 0.163689 v 0.739422 q 0,0.141111 -0.08184,0.222955 -0.08184,0.08184 -0.232833,0.08184 z m 0.764822,-0.01411 v -0.879122 h -0.273755 v -0.1524 h 0.711199 v 0.1524 h -0.273755 v 0.879121 z m 0.928511,0.01411 q -0.09737,0 -0.169333,-0.03669 -0.07055,-0.03669 -0.108655,-0.104423 -0.0381,-0.06914 -0.0381,-0.160866 v -0.454378 q 0,-0.09313 0.0381,-0.160866 0.0381,-0.06773 0.108655,-0.104422 0.07197,-0.03669 0.169333,-0.03669 0.09878,0 0.169334,0.03669 0.07055,0.03669 0.108655,0.104422 0.0381,0.06773 0.0381,0.160866 v 0.454378 q 0,0.09172 -0.0381,0.160866 -0.0381,0.06773 -0.108655,0.104423 -0.07056,0.03669 -0.169334,0.03669 z m 0,-0.145344 q 0.07479,0 0.112889,-0.04092 0.03951,-0.04092 0.03951,-0.115711 v -0.454378 q 0,-0.0762 -0.03951,-0.115711 -0.0381,-0.04092 -0.112889,-0.04092 -0.07479,0 -0.1143,0.04092 -0.0381,0.03951 -0.0381,0.115711 v 0.454378 q 0,0.07479 0.03951,0.115711 0.03951,0.04092 0.112889,0.04092 z m 0.541867,0.131233 v -1.031521 h 0.632177 v 0.1524 h -0.47131 v 0.2921 h 0.434622 v 0.152399 h -0.4318 v 0.434622 z m 0.846666,0 v -1.031521 h 0.632178 v 0.1524 h -0.471311 v 0.2921 h 0.434622 v 0.152399 h -0.4318 v 0.434622 z"
       id="text19"
       style="font-weight:600;font-size:1.41111px;font-family:'JetBrains Mono';-inkscape-font-specification:'JetBrains Mono Semi-Bold';fill:#b3b3b3;stroke-width:0.264583"
       inkscape:label="cv-cutoff"
       aria-label="CUTOFF" /><path
       d="m 5.996928,86.444219 v -1.03011 h 0.3414886 q 0.1015999,0 0.1763888,0.03951 0.074789,0.0381 0.115711,0.108656 0.042333,0.07055 0.042333,0.166511 0,0.09313 -0.042333,0.165099 -0.040922,0.07056 -0.115711,0.110067 -0.074789,0.0381 -0.1763888,0.0381 H 6.162028 v 0.402166 z m 0.1651,-0.550333 h 0.1763886 q 0.0762,0 0.1213555,-0.04515 0.046567,-0.04516 0.046567,-0.119944 0,-0.07761 -0.046567,-0.121356 -0.045155,-0.04515 -0.1213555,-0.04515 H 6.162028 Z m 0.7013221,0.550333 V 86.298875 H 7.0707833 V 85.559453 H 6.8633501 v -0.145344 h 0.5813773 v 0.145344 H 7.2372943 v 0.739422 h 0.2074331 v 0.145344 z m 1.0555109,0 V 85.565098 H 7.6451056 v -0.1524 h 0.7111995 v 0.1524 H 8.0825497 v 0.879121 z m 0.9341554,0.01411 q -0.097367,0 -0.1707444,-0.03669 -0.071967,-0.03669 -0.1114776,-0.104423 -0.039511,-0.06914 -0.039511,-0.160866 v -0.454378 q 0,-0.09313 0.039511,-0.160866 0.039511,-0.06773 0.1114776,-0.104422 0.073378,-0.03669 0.1707444,-0.03669 0.098778,0 0.1693332,0.0381 0.071967,0.03669 0.1114777,0.104422 0.039511,0.06632 0.039511,0.159455 H 9.0096496 q 0,-0.0762 -0.040922,-0.115711 -0.040922,-0.04092 -0.115711,-0.04092 -0.074789,0 -0.1171222,0.04092 -0.040922,0.03951 -0.040922,0.115711 v 0.454378 q 0,0.07479 0.040922,0.115711 0.042333,0.04092 0.1171222,0.04092 0.074789,0 0.115711,-0.04092 0.040922,-0.04092 0.040922,-0.115711 h 0.1636887 q 0,0.09031 -0.039511,0.159455 -0.039511,0.06773 -0.1114777,0.105834 -0.070556,0.03669 -0.1693332,0.03669 z m 0.531989,-0.01411 v -1.03011 h 0.1650999 v 0.420511 h 0.2878666 v -0.420511 h 0.1651001 v 1.03011 H 9.8379719 V 85.98702 H 9.5501053 v 0.457199 z"
       id="text20"
       style="font-weight:600;font-size:1.41111px;font-family:'JetBrains Mono';-inkscape-font-specification:'JetBrains Mono Semi-Bold';fill:#b3b3b3;stroke-width:0.264583"
       inkscape:label="cv-pitch"
       aria-label="PITCH" /><path
       d="m 50.481383,86.444218 0.261055,-1.03011 h 0.214489 l 0.261055,1.03011 h -0.166511 l -0.06068,-0.255411 h -0.282222 l -0.05927,0.255411 z m 0.256822,-0.390877 h 0.221544 l -0.06491,-0.286456 q -0.01693,-0.07338 -0.02963,-0.131233 -0.01129,-0.05786 -0.01552,-0.08043 -0.0042,0.02258 -0.01552,0.08043 -0.01129,0.05644 -0.02822,0.129822 z m 0.963789,0.404988 q -0.09737,0 -0.170745,-0.03669 -0.07197,-0.03669 -0.111477,-0.104422 -0.03951,-0.06914 -0.03951,-0.160866 v -0.454378 q 0,-0.09313 0.03951,-0.160866 0.03951,-0.06773 0.111477,-0.104423 0.07338,-0.03669 0.170745,-0.03669 0.09878,0 0.169333,0.0381 0.07197,0.03669 0.111478,0.104422 0.03951,0.06632 0.03951,0.159455 h -0.163689 q 0,-0.0762 -0.04092,-0.115711 -0.04092,-0.04092 -0.115711,-0.04092 -0.07479,0 -0.117122,0.04092 -0.04092,0.03951 -0.04092,0.115711 v 0.454378 q 0,0.07479 0.04092,0.115711 0.04233,0.04092 0.117122,0.04092 0.07479,0 0.115711,-0.04092 0.04092,-0.04092 0.04092,-0.115711 h 0.163689 q 0,0.09031 -0.03951,0.159455 -0.03951,0.06773 -0.111478,0.105833 -0.07056,0.03669 -0.169333,0.03669 z m 0.846666,0 q -0.09737,0 -0.170744,-0.03669 -0.07197,-0.03669 -0.111478,-0.104422 -0.03951,-0.06914 -0.03951,-0.160866 v -0.454378 q 0,-0.09313 0.03951,-0.160866 0.03951,-0.06773 0.111478,-0.104423 0.07338,-0.03669 0.170744,-0.03669 0.09878,0 0.169333,0.0381 0.07197,0.03669 0.111478,0.104422 0.03951,0.06632 0.03951,0.159455 h -0.163689 q 0,-0.0762 -0.04092,-0.115711 -0.04092,-0.04092 -0.115711,-0.04092 -0.07479,0 -0.117122,0.04092 -0.04092,0.03951 -0.04092,0.115711 v 0.454378 q 0,0.07479 0.04092,0.115711 0.04233,0.04092 0.117122,0.04092 0.07479,0 0.115711,-0.04092 0.04092,-0.04092 0.04092,-0.115711 h 0.163689 q 0,0.09031 -0.03951,0.159455 -0.03951,0.06773 -0.111478,0.105833 -0.07055,0.03669 -0.169333,0.03669 z m 0.5461,-0.01411 v -1.03011 h 0.611011 v 0.143933 h -0.448733 v 0.280811 h 0.399344 v 0.143933 h -0.399344 v 0.3175 h 0.448733 v 0.143933 z m 0.826911,0 v -1.03011 h 0.2032 l 0.293511,0.843843 q -0.0028,-0.04233 -0.0085,-0.100188 -0.0042,-0.05927 -0.0071,-0.121356 -0.0028,-0.0635 -0.0028,-0.112889 v -0.50941 h 0.150988 v 1.03011 h -0.203199 l -0.2921,-0.843844 q 0.0042,0.0381 0.0071,0.09454 0.0042,0.05644 0.0071,0.117122 0.0028,0.05927 0.0028,0.110066 v 0.522111 z m 1.0795,0 v -0.879122 h -0.273755 v -0.152399 h 0.711199 v 0.152399 H 55.16486 v 0.879122 z"
       id="text21"
       style="font-weight:600;font-size:1.41111px;font-family:'JetBrains Mono';-inkscape-font-specification:'JetBrains Mono Semi-Bold';fill:#b3b3b3;stroke-width:0.264583"
       inkscape:label="cv-accent"
       aria-label="ACCENT" /><path
       d="m 38.496872,112.44463 q -0.121709,0 -0.211667,-0.0459 -0.08819,-0.0459 -0.13582,-0.13052 -0.04763,-0.0864 -0.04763,-0.20109 v -0.56797 q 0,-0.11642 0.04763,-0.20108 0.04762,-0.0847 0.13582,-0.13053 0.08996,-0.0459 0.211667,-0.0459 0.123472,0 0.211667,0.0459 0.08819,0.0459 0.135819,0.13053 0.04763,0.0847 0.04763,0.20108 v 0.56797 q 0,0.11466 -0.04763,0.20109 -0.04762,0.0847 -0.135819,0.13052 -0.08819,0.0459 -0.211667,0.0459 z m 0,-0.18169 q 0.09349,0 0.141111,-0.0512 0.04939,-0.0511 0.04939,-0.14464 v -0.56797 q 0,-0.0952 -0.04939,-0.14464 -0.04762,-0.0512 -0.141111,-0.0512 -0.09349,0 -0.142875,0.0512 -0.04762,0.0494 -0.04762,0.14464 v 0.56797 q 0,0.0935 0.04939,0.14464 0.04939,0.0512 0.141111,0.0512 z m 1.058334,0.18169 q -0.186972,0 -0.291041,-0.10231 -0.102306,-0.10231 -0.102306,-0.27869 v -0.92428 h 0.204611 v 0.92251 q 0,0.0953 0.04763,0.14993 0.04762,0.0529 0.141111,0.0529 0.09172,0 0.139348,-0.0529 0.04939,-0.0547 0.04939,-0.14993 v -0.92251 h 0.204611 v 0.92428 q 0,0.17638 -0.102306,0.27869 -0.102305,0.10231 -0.291042,0.10231 z m 0.95603,-0.0176 v -1.09891 h -0.342195 v -0.1905 h 0.889 v 0.1905 h -0.342194 v 1.09891 z m 1.830919,0 v -1.28764 h 0.405695 q 0.125236,0 0.216958,0.0476 0.09349,0.0459 0.144639,0.13229 0.05115,0.0847 0.05115,0.19932 0,0.12877 -0.06526,0.22578 -0.06526,0.0952 -0.176389,0.13406 l 0.259292,0.54857 h -0.23107 l -0.23107,-0.52035 h -0.169333 v 0.52035 z m 0.204611,-0.70203 h 0.201084 q 0.09349,0 0.148166,-0.0529 0.05644,-0.0547 0.05644,-0.14816 0,-0.0935 -0.05644,-0.14817 -0.05468,-0.0547 -0.148166,-0.0547 h -0.201084 z"
       id="text24"
       style="font-weight:600;font-size:1.76389px;font-family:'JetBrains Mono';-inkscape-font-specification:'JetBrains Mono Semi-Bold';fill:#b3b3b3;stroke-width:0.264583"
       inkscape:label="out-r"
       aria-label="OUT R" /><path
       d="m 18.191866,112.44463 q -0.121709,0 -0.211667,-0.0459 -0.08819,-0.0459 -0.13582,-0.13052 -0.04763,-0.0864 -0.04763,-0.20109 v -0.56797 q 0,-0.11642 0.04763,-0.20108 0.04763,-0.0847 0.13582,-0.13053 0.08996,-0.0459 0.211667,-0.0459 0.123472,0 0.211667,0.0459 0.08819,0.0459 0.135819,0.13053 0.04763,0.0847 0.04763,0.20108 v 0.56797 q 0,0.11466 -0.04763,0.20109 -0.04763,0.0847 -0.135819,0.13052 -0.08819,0.0459 -0.211667,0.0459 z m 0,-0.18169 q 0.09349,0 0.141111,-0.0512 0.04939,-0.0511 0.04939,-0.14464 v -0.56797 q 0,-0.0952 -0.04939,-0.14464 -0.04763,-0.0512 -0.141111,-0.0512 -0.09349,0 -0.142875,0.0512 -0.04763,0.0494 -0.04763,0.14464 v 0.56797 q 0,0.0935 0.04939,0.14464 0.04939,0.0512 0.141111,0.0512 z m 1.058334,0.18169 q -0.186972,0 -0.291041,-0.10231 -0.102306,-0.10231 -0.102306,-0.27869 v -0.92428 h 0.204611 v 0.92251 q 0,0.0953 0.04763,0.14993 0.04763,0.0529 0.141111,0.0529 0.09172,0 0.139348,-0.0529 0.04939,-0.0547 0.04939,-0.14993 v -0.92251 h 0.204611 v 0.92428 q 0,0.17638 -0.102306,0.27869 -0.102305,0.10231 -0.291042,0.10231 z m 0.95603,-0.0176 v -1.09891 h -0.342195 v -0.1905 h 0.889 v 0.1905 h -0.342194 v 1.09891 z m 1.87678,0 v -1.28764 h 0.206375 v 1.09714 h 0.553862 v 0.1905 z"
       id="text25"
       style="font-weight:600;font-size:1.76389px;font-family:'JetBrains Mono';-inkscape-font-specification:'JetBrains Mono Semi-Bold';fill:#b3b3b3;stroke-width:0.264583"
       inkscape:label="out-l"
       aria-label="OUT L" /><path
       style="font-weight:bold;font-size:2.11667px;font-family:'JetBrains Mono';-inkscape-font-specification:'JetBrains Mono Bold';fill:#1a1a1a;stroke-width:0.264583"
       d="m 45.311917,36.920496 v -1.545169 h 0.927101 v 0.230717 h -0.666751 v 0.402167 h 0.592668 v 0.2286 h -0.592668 v 0.452968 h 0.666751 v 0.230717 z m 1.236136,0 v -1.545169 h 0.32385 l 0.429684,1.248835 q -0.0063,-0.06773 -0.01482,-0.15875 -0.0063,-0.09313 -0.01058,-0.188384 -0.0042,-0.09737 -0.0042,-0.169333 v -0.732368 h 0.2413 v 1.545169 h -0.32385 l -0.425451,-1.248835 q 0.0042,0.06138 0.01058,0.148166 0.0063,0.08678 0.01058,0.177801 0.0042,0.09102 0.0042,0.167217 v 0.755651 z m 1.581153,0 -0.389467,-1.545169 h 0.275167 l 0.232833,1.007535 q 0.01905,0.07408 0.03598,0.15875 0.01693,0.08467 0.0254,0.137583 0.0085,-0.05292 0.02328,-0.137583 0.01482,-0.08467 0.03175,-0.160867 l 0.230717,-1.005418 h 0.266701 l -0.389468,1.545169 z m 0.924985,0 v -1.545169 h 0.313267 l 0.150284,0.491067 q 0.02328,0.07408 0.0381,0.135467 0.01482,0.06138 0.01905,0.0889 0.0042,-0.02752 0.01905,-0.0889 0.01482,-0.06138 0.03598,-0.135467 l 0.143934,-0.491067 h 0.313267 v 1.545169 h -0.24765 v -0.480484 q 0,-0.105834 0.0063,-0.230717 0.0064,-0.124884 0.01482,-0.249767 0.0085,-0.124884 0.01905,-0.237067 0.0127,-0.112184 0.02117,-0.196851 L 49.69338,36.255861 H 49.452079 L 49.238295,35.52561 q 0.01058,0.08043 0.02117,0.190501 0.01058,0.10795 0.01905,0.232833 0.01058,0.122767 0.01693,0.249767 0.0064,0.127001 0.0064,0.241301 v 0.480484 z m 1.78647,0.02117 q -0.148166,0 -0.258233,-0.05503 -0.10795,-0.05715 -0.167217,-0.15875 -0.05715,-0.103717 -0.05715,-0.243417 v -0.673101 q 0,-0.1397 0.05715,-0.241301 0.05927,-0.103716 0.167217,-0.15875 0.110067,-0.05715 0.258233,-0.05715 0.150284,0 0.258234,0.05715 0.10795,0.05503 0.1651,0.15875 0.05927,0.101601 0.05927,0.239184 v 0.675215 q 0,0.1397 -0.05927,0.243417 -0.05715,0.1016 -0.1651,0.15875 -0.10795,0.05503 -0.258234,0.05503 z m 0,-0.232833 q 0.107951,0 0.162984,-0.05715 0.05503,-0.05927 0.05503,-0.167217 v -0.673101 q 0,-0.110067 -0.05503,-0.167217 -0.05503,-0.05715 -0.162984,-0.05715 -0.10795,0 -0.162983,0.05715 -0.05503,0.05715 -0.05503,0.167217 v 0.673101 q 0,0.10795 0.05503,0.167217 0.05715,0.05715 0.162983,0.05715 z m 0.793753,0.211667 v -1.545169 h 0.459317 q 0.156634,0 0.270934,0.05927 0.116417,0.05927 0.179917,0.167216 0.0635,0.107951 0.0635,0.256117 v 0.577851 q 0,0.146051 -0.0635,0.256117 -0.0635,0.107951 -0.179917,0.169334 -0.1143,0.05927 -0.270934,0.05927 z m 0.264583,-0.243417 h 0.194734 q 0.1143,0 0.182034,-0.0635 0.06773,-0.06562 0.06773,-0.177801 v -0.577851 q 0,-0.110066 -0.06773,-0.173566 -0.06773,-0.06562 -0.182034,-0.06562 h -0.194734 z"
       id="text26"
       inkscape:label="envmod"
       aria-label="ENVMOD" /><path
       style="font-weight:bold;font-size:2.11667px;font-family:'JetBrains Mono';-inkscape-font-specification:'JetBrains Mono Bold';fill:#1a1a1a;stroke-width:0.264583"
       d="M 8.928707,37.087169 V 35.542 h 0.459317 q 0.156634,0 0.270934,0.05927 0.116417,0.05927 0.179917,0.167216 0.0635,0.107951 0.0635,0.256117 v 0.577851 q 0,0.146051 -0.0635,0.256117 -0.0635,0.107951 -0.179917,0.169334 -0.1143,0.05927 -0.270934,0.05927 z M 9.19329,36.843752 h 0.194734 q 0.1143,0 0.182034,-0.0635 0.06773,-0.06562 0.06773,-0.177801 V 36.0246 q 0,-0.110066 -0.06773,-0.173566 -0.06773,-0.06562 -0.182034,-0.06562 H 9.19329 Z m 1.032936,0.243417 V 35.542 h 0.927102 v 0.230717 h -0.666751 v 0.402167 h 0.592667 v 0.2286 h -0.592667 v 0.452968 h 0.666751 v 0.230717 z m 1.727204,0.02117 q -0.148167,0 -0.260351,-0.05503 -0.110067,-0.05715 -0.17145,-0.15875 -0.05927,-0.103717 -0.05927,-0.243417 v -0.673101 q 0,-0.141817 0.05927,-0.243417 0.06138,-0.1016 0.17145,-0.156634 0.112184,-0.05715 0.260351,-0.05715 0.150283,0 0.258233,0.05715 0.110067,0.05503 0.171451,0.156634 0.06138,0.1016 0.06138,0.243417 h -0.2667 q 0,-0.110067 -0.05927,-0.167217 -0.05715,-0.05715 -0.1651,-0.05715 -0.107951,0 -0.167217,0.05715 -0.05927,0.05715 -0.05927,0.1651 v 0.675215 q 0,0.10795 0.05927,0.167217 0.05927,0.05715 0.167217,0.05715 0.10795,0 0.1651,-0.05715 0.05927,-0.05927 0.05927,-0.167217 h 0.2667 q 0,0.137583 -0.06138,0.2413 -0.06138,0.103717 -0.171451,0.160867 -0.10795,0.05503 -0.258233,0.05503 z m 0.700618,-0.02117 0.389467,-1.545169 h 0.340784 l 0.391584,1.545169 h -0.270934 l -0.08467,-0.374651 h -0.410634 l -0.08467,0.374651 z m 0.404284,-0.590551 h 0.313267 l -0.09313,-0.414867 q -0.02328,-0.103717 -0.04022,-0.186267 -0.01693,-0.08467 -0.02328,-0.122767 -0.0063,0.0381 -0.02328,0.122767 -0.01482,0.08255 -0.04022,0.18415 z m 1.293286,0.590551 V 36.526251 L 13.898651,35.542 h 0.277284 l 0.2413,0.535517 q 0.02752,0.0635 0.04657,0.124884 0.01905,0.06138 0.0254,0.09525 0.0085,-0.03387 0.0254,-0.09525 0.01905,-0.06138 0.04657,-0.124884 L 14.796126,35.542 h 0.275167 l -0.452967,0.984251 v 0.560918 z"
       id="text27"
       inkscape:label="decay"
       aria-label="DECAY" /><path
       style="font-weight:bold;font-size:2.11667px;font-family:'JetBrains Mono';-inkscape-font-specification:'JetBrains Mono Bold';fill:#1a1a1a;stroke-width:0.264583"
       d="m 9.5975784,72.421165 v -1.545169 h 0.3132672 l 0.1502834,0.491068 q 0.02328,0.07408 0.0381,0.135467 0.01482,0.06138 0.01905,0.0889 0.0042,-0.02752 0.01905,-0.0889 0.01482,-0.06138 0.03598,-0.135467 l 0.143933,-0.491068 h 0.313267 v 1.545169 h -0.24765 v -0.480484 q 0,-0.105833 0.0063,-0.230717 0.0063,-0.124883 0.01482,-0.249767 0.0085,-0.124883 0.01905,-0.237067 0.0127,-0.112183 0.02117,-0.19685 l -0.207433,0.730251 H 9.9955124 L 9.7817287,71.02628 q 0.010583,0.08043 0.021167,0.1905 0.010583,0.10795 0.01905,0.232834 0.010583,0.122767 0.016933,0.249767 0.00635,0.127 0.00635,0.2413 v 0.480484 z m 1.7864706,0.02117 q -0.148167,0 -0.258234,-0.05503 -0.10795,-0.05715 -0.167217,-0.15875 -0.05715,-0.103717 -0.05715,-0.243418 V 71.31203 q 0,-0.1397 0.05715,-0.2413 0.05927,-0.103717 0.167217,-0.15875 0.110067,-0.05715 0.258234,-0.05715 0.150283,0 0.258233,0.05715 0.10795,0.05503 0.165101,0.15875 0.05927,0.1016 0.05927,0.239184 v 0.675217 q 0,0.139701 -0.05927,0.243418 -0.05715,0.1016 -0.165101,0.15875 -0.10795,0.05503 -0.258233,0.05503 z m 0,-0.232834 q 0.10795,0 0.162983,-0.05715 0.05503,-0.05927 0.05503,-0.167217 V 71.31203 q 0,-0.110066 -0.05503,-0.167216 -0.05503,-0.05715 -0.162983,-0.05715 -0.107951,0 -0.162984,0.05715 -0.05503,0.05715 -0.05503,0.167216 v 0.673101 q 0,0.107951 0.05503,0.167217 0.05715,0.05715 0.162984,0.05715 z m 0.793752,0.211667 v -1.545169 h 0.459317 q 0.156634,0 0.270934,0.05927 0.116417,0.05927 0.179917,0.167217 0.0635,0.10795 0.0635,0.256117 v 0.577851 q 0,0.14605 -0.0635,0.256117 -0.0635,0.10795 -0.179917,0.169334 -0.1143,0.05927 -0.270934,0.05927 z m 0.264583,-0.243417 h 0.194734 q 0.1143,0 0.182034,-0.0635 0.06773,-0.06562 0.06773,-0.1778 v -0.577851 q 0,-0.110067 -0.06773,-0.173567 -0.06773,-0.06562 -0.182034,-0.06562 h -0.194734 z m 1.032936,0.243417 v -1.545169 h 0.927101 v 0.230717 H 13.73567 v 0.402168 h 0.592668 v 0.2286 H 13.73567 v 0.452967 h 0.666751 v 0.230717 z"
       id="text28"
       inkscape:label="mode"
       aria-label="MODE"
       transform="translate(0,-2)" /><path
       style="font-weight:bold;font-size:2.11667px;font-family:'JetBrains Mono';-inkscape-font-specification:'JetBrains Mono Bold';fill:#1a1a1a;stroke-width:0.264583"
       d="m 26.726926,69.183891 0.389467,-1.545169 h 0.340784 l 0.391584,1.545169 h -0.270934 l -0.08467,-0.37465 h -0.410634 l -0.08467,0.37465 z m 0.404284,-0.59055 h 0.313267 l -0.09313,-0.414868 q -0.02328,-0.103717 -0.04022,-0.186267 -0.01693,-0.08467 -0.02328,-0.122767 -0.0063,0.0381 -0.02328,0.122767 -0.01482,0.08255 -0.04022,0.184151 z m 1.435103,0.611717 q -0.148167,0 -0.260351,-0.05503 -0.110066,-0.05715 -0.17145,-0.15875 -0.05927,-0.103717 -0.05927,-0.243418 v -0.673104 q 0,-0.141816 0.05927,-0.243417 0.06138,-0.1016 0.17145,-0.156633 0.112184,-0.05715 0.260351,-0.05715 0.150283,0 0.258233,0.05715 0.110067,0.05503 0.171451,0.156633 0.06138,0.101601 0.06138,0.243417 h -0.2667 q 0,-0.110066 -0.05927,-0.167216 -0.05715,-0.05715 -0.1651,-0.05715 -0.10795,0 -0.167217,0.05715 -0.05927,0.05715 -0.05927,0.1651 v 0.675217 q 0,0.107951 0.05927,0.167217 0.05927,0.05715 0.167217,0.05715 0.10795,0 0.1651,-0.05715 0.05927,-0.05927 0.05927,-0.167217 h 0.2667 q 0,0.137584 -0.06138,0.241301 -0.06138,0.103717 -0.171451,0.160867 -0.10795,0.05503 -0.258233,0.05503 z m 1.270002,0 q -0.148166,0 -0.26035,-0.05503 -0.110067,-0.05715 -0.17145,-0.15875 -0.05927,-0.103717 -0.05927,-0.243418 v -0.673104 q 0,-0.141816 0.05927,-0.243417 0.06138,-0.1016 0.17145,-0.156633 0.112184,-0.05715 0.26035,-0.05715 0.150284,0 0.258234,0.05715 0.110067,0.05503 0.17145,0.156633 0.06138,0.101601 0.06138,0.243417 h -0.266701 q 0,-0.110066 -0.05927,-0.167216 -0.05715,-0.05715 -0.165101,-0.05715 -0.10795,0 -0.167216,0.05715 -0.05927,0.05715 -0.05927,0.1651 v 0.675217 q 0,0.107951 0.05927,0.167217 0.05927,0.05715 0.167216,0.05715 0.107951,0 0.165101,-0.05715 0.05927,-0.05927 0.05927,-0.167217 h 0.266701 q 0,0.137584 -0.06138,0.241301 -0.06138,0.103717 -0.17145,0.160867 -0.10795,0.05503 -0.258234,0.05503 z m 0.812802,-0.02117 v -1.545169 h 0.927102 v 0.230717 h -0.666751 v 0.402168 h 0.592667 v 0.2286 h -0.592667 v 0.452967 h 0.666751 v 0.230717 z m 1.236137,0 v -1.545169 h 0.32385 l 0.429684,1.248836 q -0.0063,-0.06773 -0.01482,-0.158751 -0.0063,-0.09313 -0.01058,-0.188383 -0.0042,-0.09737 -0.0042,-0.169334 v -0.732368 h 0.2413 v 1.545169 h -0.323851 l -0.42545,-1.248835 q 0.0042,0.06138 0.01058,0.148167 0.0064,0.08678 0.01058,0.1778 0.0042,0.09102 0.0042,0.167217 v 0.755651 z m 1.619253,0 v -1.299632 h -0.404284 v -0.245534 h 1.075268 v 0.245534 h -0.404284 v 1.299635 z"
       id="text29"
       inkscape:label="accent"
       aria-label="ACCENT" /><path
       style="font-weight:bold;font-size:2.11667px;font-family:'JetBrains Mono';-inkscape-font-specification:'JetBrains Mono Bold';fill:#1a1a1a;stroke-width:0.264583"
       d="m 46.991067,72.442332 q -0.148167,0 -0.260351,-0.05503 -0.110067,-0.05715 -0.17145,-0.15875 -0.05927,-0.103717 -0.05927,-0.243418 V 71.31203 q 0,-0.141816 0.05927,-0.243417 0.06138,-0.1016 0.17145,-0.156633 0.112184,-0.05715 0.260351,-0.05715 0.150283,0 0.258233,0.05715 0.110067,0.05503 0.171451,0.156633 0.06138,0.101601 0.06138,0.243417 h -0.2667 q 0,-0.110066 -0.05927,-0.167216 -0.05715,-0.05715 -0.1651,-0.05715 -0.10795,0 -0.167217,0.05715 -0.05927,0.05715 -0.05927,0.1651 v 0.675217 q 0,0.107951 0.05927,0.167217 0.05927,0.05927 0.167217,0.05927 0.10795,0 0.1651,-0.05927 0.05927,-0.05927 0.05927,-0.167217 v -0.156633 h -0.262467 v -0.2286 h 0.529167 v 0.385233 q 0,0.139701 -0.06138,0.243418 -0.06138,0.1016 -0.171451,0.15875 -0.10795,0.05503 -0.258233,0.05503 z m 0.700618,-0.02117 0.389467,-1.545169 h 0.340784 l 0.391584,1.545169 h -0.270934 l -0.08467,-0.37465 h -0.410634 l -0.08467,0.37465 z m 0.404284,-0.59055 h 0.313267 l -0.09313,-0.414868 q -0.02328,-0.103717 -0.04022,-0.186267 -0.01693,-0.08467 -0.02328,-0.122767 -0.0063,0.0381 -0.02328,0.122767 -0.01482,0.08255 -0.04022,0.184151 z m 1.293286,0.59055 V 71.12153 h -0.404284 v -0.245534 h 1.075269 v 0.245534 h -0.404284 v 1.299635 z m 0.954619,0 v -1.545169 h 0.927101 v 0.230717 h -0.666751 v 0.402168 h 0.592668 v 0.2286 h -0.592668 v 0.452967 h 0.666751 v 0.230717 z"
       id="text30"
       inkscape:label="gate"
       aria-label="GATE"
       transform="translate(0,-2)" /><path
       style="font-weight:bold;font-size:2.11667px;font-family:'JetBrains Mono';-inkscape-font-specification:'JetBrains Mono Bold';fill:#1a1a1a;stroke-width:0.264583"
       d="M 9.7139936,58.400002 9.5552433,56.854833 h 0.2286004 l 0.093134,1.079501 q 0.00423,0.03598 0.00635,0.0889 0.00423,0.0508 0.00635,0.103717 0.00423,0.05292 0.00423,0.09313 0.00423,-0.04022 0.00847,-0.09313 0.00423,-0.05292 0.00847,-0.103717 0.00635,-0.05292 0.010583,-0.0889 l 0.1269998,-1.079501 h 0.222251 l 0.118533,1.079501 q 0.0064,0.03598 0.01058,0.0889 0.0064,0.0508 0.0127,0.103717 0.0063,0.05292 0.01058,0.09313 0.0021,-0.04022 0.0042,-0.09313 0.0021,-0.05292 0.0042,-0.103717 0.0042,-0.05292 0.0085,-0.0889 l 0.09102,-1.079501 h 0.226484 l -0.167217,1.545169 h -0.292101 l -0.1143,-1.083735 q -0.0042,-0.04022 -0.01058,-0.09313 -0.0042,-0.05503 -0.0085,-0.10795 -0.0042,-0.05503 -0.0064,-0.09313 -0.0021,0.0381 -0.0085,0.09313 -0.0042,0.05292 -0.0085,0.10795 -0.0042,0.05292 -0.0085,0.09313 l -0.124883,1.083735 z m 1.1514694,0 0.389467,-1.545169 h 0.340784 l 0.391584,1.545169 h -0.270934 l -0.08467,-0.374651 h -0.410634 l -0.08467,0.374651 z m 0.404284,-0.590551 h 0.313267 l -0.09313,-0.414868 q -0.02328,-0.103716 -0.04022,-0.186267 -0.01693,-0.08467 -0.02328,-0.122766 -0.0063,0.0381 -0.02328,0.122766 -0.01482,0.08255 -0.04022,0.184151 z m 1.255186,0.590551 -0.389467,-1.545169 h 0.275167 l 0.232833,1.007534 q 0.01905,0.07408 0.03598,0.158751 0.01693,0.08467 0.0254,0.137583 0.0085,-0.05292 0.02328,-0.137583 0.01482,-0.08467 0.03175,-0.160867 L 12.9906,56.854833 h 0.266701 l -0.389468,1.545169 z m 0.992719,0 v -1.545169 h 0.927101 v 0.230717 h -0.666751 v 0.402167 h 0.592668 v 0.2286 h -0.592668 v 0.452968 h 0.666751 v 0.230717 z"
       id="text31"
       inkscape:label="wave"
       aria-label="WAVE"
       transform="translate(0,-2)" /><path
       style="font-weight:bold;font-size:2.11667px;font-family:'JetBrains Mono';-inkscape-font-specification:'JetBrains Mono Bold';fill:#1a1a1a;stroke-width:0.264583"
       d="m 47.195755,19.687164 v -1.545169 h 0.488951 q 0.154517,0 0.266701,0.05715 0.1143,0.05715 0.1778,0.160867 0.0635,0.1016 0.0635,0.2413 0,0.1524 -0.07832,0.268817 -0.0762,0.116417 -0.207433,0.1651 l 0.306917,0.651935 H 47.917537 L 47.64872,19.073329 h -0.188384 v 0.613835 z m 0.264584,-0.846668 h 0.224367 q 0.112184,0 0.175684,-0.06138 0.0635,-0.06138 0.0635,-0.169333 0,-0.110067 -0.0635,-0.171451 -0.0635,-0.0635 -0.175684,-0.0635 h -0.224367 z m 1.030819,0.846668 v -1.545169 h 0.927102 v 0.230717 h -0.666751 v 0.402167 h 0.592667 v 0.2286 h -0.592667 v 0.452968 h 0.666751 v 0.230717 z m 1.72297,0.02117 q -0.15875,0 -0.275167,-0.05292 -0.116417,-0.05292 -0.179917,-0.150284 -0.06138,-0.09948 -0.0635,-0.232834 h 0.264584 q 0,0.09525 0.06773,0.150284 0.06985,0.05292 0.188384,0.05292 0.1143,0 0.1778,-0.05292 0.06562,-0.05292 0.06562,-0.14605 0,-0.07832 -0.04657,-0.135467 -0.04445,-0.05927 -0.129117,-0.08043 l -0.1778,-0.04868 q -0.182033,-0.04657 -0.281517,-0.167217 -0.09737,-0.12065 -0.09737,-0.2921 0,-0.131234 0.05927,-0.228601 0.05927,-0.09737 0.167217,-0.150283 0.11007,-0.05292 0.258237,-0.05292 0.224367,0 0.3556,0.116417 0.131234,0.1143 0.13335,0.309034 h -0.264583 q 0,-0.09102 -0.05927,-0.141817 -0.05927,-0.05292 -0.167217,-0.05292 -0.103717,0 -0.160867,0.04868 -0.05715,0.04868 -0.05715,0.137584 0,0.08043 0.04233,0.137583 0.04445,0.05503 0.127001,0.07832 l 0.18415,0.0508 q 0.18415,0.04657 0.281517,0.167217 0.09737,0.118534 0.09737,0.294217 0,0.131234 -0.0635,0.232834 -0.0635,0.09948 -0.177801,0.154517 -0.1143,0.05503 -0.268817,0.05503 z"
       id="text32"
       inkscape:label="res"
       aria-label="RES" /><path
       style="font-weight:bold;font-size:2.11667px;font-family:'JetBrains Mono';-inkscape-font-specification:'JetBrains Mono Bold';fill:#1a1a1a;stroke-width:0.264583"
       d="M 9.9912793,19.676582 V 18.376947 H 9.5869952 v -0.245534 h 1.0752688 v 0.245534 H 10.25798 v 1.299635 z m 1.4033527,0.02117 q -0.226483,0 -0.3556,-0.122767 -0.127,-0.124884 -0.127,-0.338667 v -1.104902 h 0.2667 v 1.102785 q 0,0.110067 0.05503,0.17145 0.05503,0.06138 0.160867,0.06138 0.103717,0 0.158751,-0.06138 0.05715,-0.06138 0.05715,-0.17145 v -1.102785 h 0.2667 v 1.104902 q 0,0.213783 -0.127,0.338667 -0.127,0.122767 -0.355601,0.122767 z m 0.787402,-0.02117 v -1.545169 h 0.323851 l 0.429684,1.248835 q -0.0063,-0.06773 -0.01482,-0.15875 -0.0063,-0.09313 -0.01058,-0.188384 -0.0042,-0.09737 -0.0042,-0.169333 v -0.732368 h 0.241301 v 1.545169 h -0.323851 l -0.42545,-1.248835 q 0.0042,0.06138 0.01058,0.148167 0.0063,0.08678 0.01058,0.1778 0.0042,0.09102 0.0042,0.167217 v 0.755651 z m 1.30387,0 v -1.545169 h 0.927101 v 0.230717 h -0.666751 v 0.402167 h 0.592668 v 0.228601 h -0.592668 v 0.452967 h 0.666751 v 0.230717 z"
       id="text33"
       inkscape:label="tune"
       aria-label="TUNE" /><path
       style="font-weight:bold;font-size:2.11667px;font-family:'JetBrains Mono';-inkscape-font-specification:'JetBrains Mono Bold';fill:#1a1a1a;stroke-width:0.505999"
       d="m 25.002083,21.055946 q -0.270955,0 -0.476107,-0.11006 -0.20128,-0.1143 -0.313532,-0.317502 -0.108388,-0.207432 -0.108388,-0.486834 v -1.346203 q 0,-0.283634 0.108388,-0.486834 0.112246,-0.2032 0.313532,-0.313266 0.205152,-0.1143 0.476107,-0.1143 0.274824,0 0.472234,0.1143 0.201281,0.11006 0.313534,0.313266 0.112247,0.2032 0.112247,0.486834 H 25.41238 q 0,-0.220132 -0.108388,-0.334434 -0.10451,-0.1143 -0.30192,-0.1143 -0.197411,0 -0.305791,0.1143 -0.108388,0.1143 -0.108388,0.330202 v 1.350435 q 0,0.215902 0.108388,0.334434 0.108387,0.1143 0.305791,0.1143 0.19741,0 0.30192,-0.1143 0.108388,-0.11854 0.108388,-0.334434 h 0.487718 q 0,0.275168 -0.112247,0.482602 -0.112246,0.207434 -0.313534,0.321734 -0.19741,0.11006 -0.472234,0.11006 z m 2.306986,0 q -0.414174,0 -0.650292,-0.245534 -0.232246,-0.249766 -0.232246,-0.677334 v -2.209805 h 0.487717 v 2.205571 q 0,0.220134 0.100634,0.342902 0.100634,0.12276 0.294179,0.12276 0.189667,0 0.290308,-0.12276 0.104511,-0.12276 0.104511,-0.342902 v -2.205571 h 0.487717 v 2.209805 q 0,0.427568 -0.232246,0.677334 -0.232246,0.245534 -0.65029,0.245534 z m 2.078608,-0.04234 v -2.599271 h -0.739319 v -0.491068 h 1.966357 v 0.491068 h -0.739319 v 2.599271 z m 2.566328,0.04234 q -0.270955,0 -0.472236,-0.11006 -0.197409,-0.1143 -0.305791,-0.317502 -0.104511,-0.207432 -0.104511,-0.486834 v -1.346203 q 0,-0.2794 0.104511,-0.4826 0.108388,-0.207434 0.305791,-0.3175 0.201281,-0.1143 0.472236,-0.1143 0.274826,0 0.472235,0.1143 0.19741,0.11006 0.301921,0.3175 0.108387,0.2032 0.108387,0.478368 v 1.350435 q 0,0.279402 -0.108387,0.486834 -0.104511,0.203202 -0.301921,0.317502 -0.197409,0.11006 -0.472235,0.11006 z m 0,-0.465668 q 0.197409,0 0.298051,-0.1143 0.100634,-0.11854 0.100634,-0.334434 v -1.346203 q 0,-0.220132 -0.100634,-0.334434 -0.100634,-0.1143 -0.298051,-0.1143 -0.197409,0 -0.298051,0.1143 -0.100634,0.1143 -0.100634,0.334434 v 1.346203 q 0,0.215902 0.100634,0.334434 0.104511,0.1143 0.298051,0.1143 z m 1.470897,0.423334 v -3.090339 h 1.757335 v 0.491068 h -1.281228 v 0.825502 h 1.180586 v 0.491067 h -1.172846 v 1.282702 z m 2.322469,0 v -3.090339 h 1.757333 v 0.491068 h -1.281226 v 0.825502 h 1.180587 v 0.491067 h -1.172846 v 1.282702 z"
       id="text34"
       inkscape:label="cutoff"
       aria-label="CUTOFF" /><path
       style="font-weight:bold;font-size:2.11667px;font-family:'JetBrains Mono';-inkscape-font-specification:'JetBrains Mono Bold';fill:#1a1a1a;stroke-width:0.264583"
       d="m 27.982219,52.34345 q -0.15875,0 -0.275167,-0.05292 -0.116417,-0.05292 -0.179917,-0.150283 -0.06138,-0.09948 -0.0635,-0.232834 h 0.264584 q 0,0.09525 0.06773,0.150284 0.06985,0.05292 0.188384,0.05292 0.1143,0 0.1778,-0.05292 0.06562,-0.05292 0.06562,-0.14605 0,-0.07832 -0.04657,-0.135467 -0.04445,-0.05927 -0.129117,-0.08043 l -0.1778,-0.04868 q -0.182034,-0.04657 -0.281517,-0.167217 -0.09737,-0.12065 -0.09737,-0.292101 0,-0.131233 0.05927,-0.2286 0.05927,-0.09737 0.167217,-0.150283 0.110066,-0.05292 0.258233,-0.05292 0.224367,0 0.355601,0.116417 0.131233,0.1143 0.13335,0.309033 h -0.264584 q 0,-0.09102 -0.05927,-0.141816 -0.05927,-0.05292 -0.167217,-0.05292 -0.103717,0 -0.160867,0.04868 -0.05715,0.04868 -0.05715,0.137584 0,0.08043 0.04233,0.137583 0.04445,0.05503 0.127,0.07832 l 0.184151,0.0508 q 0.18415,0.04657 0.281517,0.167217 0.09737,0.118534 0.09737,0.294217 0,0.131234 -0.0635,0.232834 -0.0635,0.09948 -0.1778,0.154517 -0.1143,0.05503 -0.268817,0.05503 z m 0.848785,-0.02117 v -1.545169 h 0.264584 v 1.299635 h 0.656168 v 0.245534 z m 1.242486,0 v -0.232834 h 0.311151 V 51.009948 H 30.07349 v -0.232833 h 0.889002 v 0.232833 h -0.311151 v 1.079502 h 0.311151 v 0.232834 z m 1.238253,0 v -1.545169 h 0.459317 q 0.156634,0 0.270934,0.05927 0.116417,0.05927 0.179917,0.167217 0.0635,0.10795 0.0635,0.256117 v 0.577851 q 0,0.14605 -0.0635,0.256117 -0.0635,0.10795 -0.179917,0.169334 -0.1143,0.05927 -0.270934,0.05927 z m 0.264584,-0.243418 h 0.194733 q 0.114301,0 0.182034,-0.0635 0.06773,-0.06562 0.06773,-0.1778 v -0.577851 q 0,-0.110067 -0.06773,-0.173567 -0.06773,-0.06562 -0.182034,-0.06562 h -0.194733 z m 1.032936,0.243418 v -1.545169 h 0.927101 v 0.230717 h -0.666751 v 0.402167 h 0.592669 v 0.2286 h -0.592669 v 0.452968 h 0.666751 v 0.230717 z"
       id="text35"
       inkscape:label="slide"
       aria-label="SLIDE" /></g><g
     inkscape:groupmode="layer"
     id="screw-guides"
     inkscape:label="Screw Guides"
     style="display:none"><circle
       cx="7.6199999"
       cy="2.54"
       r="2.25"
       fill="none"
       stroke="#ff0000"
       stroke-width="0.2"
       stroke-dasharray="0.5, 0.3"
       id="screw-tl" /><line
       x1="6.1199999"
       y1="2.54"
       x2="9.1199999"
       y2="2.54"
       stroke="#ff0000"
       stroke-width="0.15"
       id="screw-tl-h" /><line
       x1="7.6199999"
       y1="1.04"
       x2="7.6199999"
       y2="4.04"
       stroke="#ff0000"
       stroke-width="0.15"
       id="screw-tl-v" /><circle
       cx="53.34"
       cy="2.54"
       r="2.25"
       fill="none"
       stroke="#ff0000"
       stroke-width="0.2"
       stroke-dasharray="0.5, 0.3"
       id="screw-tr" /><line
       x1="51.84"
       y1="2.54"
       x2="54.84"
       y2="2.54"
       stroke="#ff0000"
       stroke-width="0.15"
       id="screw-tr-h" /><line
       x1="53.34"
       y1="1.04"
       x2="53.34"
       y2="4.04"
       stroke="#ff0000"
       stroke-width="0.15"
       id="screw-tr-v" /><circle
       cx="7.6199999"
       cy="125.96"
       r="2.25"
       fill="none"
       stroke="#ff0000"
       stroke-width="0.2"
       stroke-dasharray="0.5, 0.3"
       id="screw-bl" /><line
       x1="6.1199999"
       y1="125.96"
       x2="9.1199999"
       y2="125.96"
       stroke="#ff0000"
       stroke-width="0.15"
       id="screw-bl-h" /><line
       x1="7.6199999"
       y1="124.46"
       x2="7.6199999"
       y2="127.46"
       stroke="#ff0000"
       stroke-width="0.15"
       id="screw-bl-v" /><circle
       cx="53.34"
       cy="125.96"
       r="2.25"
       fill="none"
       stroke="#ff0000"
       stroke-width="0.2"
       stroke-dasharray="0.5, 0.3"
       id="screw-br" /><line
       x1="51.84"
       y1="125.96"
       x2="54.84"
       y2="125.96"
       stroke="#ff0000"
       stroke-width="0.15"
       id="screw-br-h" /><line
       x1="53.34"
       y1="124.46"
       x2="53.34"
       y2="127.46"
       stroke="#ff0000"
       stroke-width="0.15"
       id="screw-br-v" /></g><path
     d="m 74.487218,3.11875 3.584,11.6 h -3.36 l -0.368,-1.376 h -3.504 l -0.352,1.376 h -3.36 l 3.584,-11.6 z m -1.232,6.976 -0.656,-2.672 -0.672,2.672 z m 14.943991,2.272 q -0.064,0.096 -0.176,0.24 -0.112,0.128 -0.24,0.256 -0.112,0.128 -0.24,0.256 -0.112,0.112 -0.192,0.176 -0.88,0.752 -1.936,1.136 -1.056,0.384 -2.16,0.384 -1.216,0 -2.416,-0.512 -1.2,-0.512 -2.096,-1.44 -0.768,-0.848 -1.168,-1.872 -0.4,-1.04 -0.4,-2.096 0,-1.216 0.512,-2.352 0.512,-1.152 1.488,-2.016 0.864,-0.752 1.904,-1.136 1.056,-0.384 2.128,-0.384 1.264,0 2.448,0.496 1.2,0.496 2.112,1.504 l -2.528,2.208 q -0.416,-0.448 -0.944,-0.656 -0.528,-0.224 -1.072,-0.224 -0.96,0 -1.76,0.656 -0.416,0.368 -0.64,0.88 -0.224,0.512 -0.224,1.024 0,0.464 0.16,0.928 0.176,0.448 0.528,0.816 0.4,0.448 0.912,0.672 0.512,0.208 1.056,0.208 0.464,0 0.928,-0.16 0.464,-0.16 0.832,-0.496 0.112,-0.08 0.224,-0.208 0.112,-0.144 0.16,-0.224 z m 0.464024,-9.248 h 5.024 v 2.976 h -0.832 v 5.648 h 0.832 v 2.976 h -5.024 v -2.976 h 0.832 v -5.648 h -0.832 z m 9.024001,0 q 1.2,0 2.256,0.464 1.055996,0.448 1.839996,1.248 0.784,0.784 1.232,1.84 0.464,1.04 0.464,2.24 0,1.2 -0.464,2.256 -0.448,1.056 -1.232,1.856 -0.784,0.784 -1.839996,1.248 -1.056,0.448 -2.256,0.448 h -3.36 v -11.6 z m 0,8.208 q 0.512,0 0.96,-0.176 0.464,-0.192 0.8,-0.512 0.336,-0.336 0.528,-0.784 0.191996,-0.448 0.191996,-0.96 0,-0.512 -0.191996,-0.96 -0.192,-0.448 -0.528,-0.768 -0.336,-0.336 -0.8,-0.528 -0.448,-0.192 -0.96,-0.192 z m 21.104016,0.032 v 3.36 h -8.048 v -11.6 h 8.048 v 3.36 h -4.688 v 1.04 h 3.92 v 2.816 h -3.92 v 1.024 z m 9.27997,-8.24 v 11.6 h -3.2 l -2.288,-4.192 v 4.192 h -3.12 v -11.6 h 3.184 l 2.016,4.56 v -4.56 z m 11.53601,4.672 v 6.976 l -3.152,-0.016 v -0.336 q -0.752,0.288 -1.552,0.368 -0.8,0.096 -1.6,-0.032 -0.784,-0.128 -1.536,-0.464 -0.736,-0.352 -1.376,-0.928 -0.912,-0.8 -1.408,-1.856 -0.496,-1.072 -0.576,-2.192 -0.064,-1.136 0.304,-2.24 0.368,-1.12 1.168,-2.032 0.768,-0.864 1.872,-1.36 1.12,-0.496 2.336,-0.608 1.232,-0.112 2.416,0.176 1.2,0.288 2.112,0.992 l -2.192,2.464 q -0.576,-0.352 -1.2,-0.432 -0.624,-0.096 -1.184,0.016 -0.56,0.096 -1.024,0.352 -0.448,0.24 -0.672,0.576 -0.304,0.432 -0.464,0.928 -0.144,0.496 -0.128,0.992 0.016,0.496 0.208,0.96 0.208,0.448 0.624,0.8 0.4,0.368 0.88,0.528 0.496,0.16 0.992,0.128 0.512,-0.048 0.976,-0.256 0.48,-0.224 0.848,-0.64 l 0.064,-0.08 h -1.488 l 0.592,-2.8 z m 0.63999,-4.672 h 5.024 v 2.976 h -0.832 v 5.648 h 0.832 v 2.976 h -5.024 v -2.976 h 0.832 v -5.648 h -0.832 z m 14.272,0 v 11.6 h -3.2 l -2.288,-4.192 v 4.192 h -3.12 v -11.6 h 3.184 l 2.016,4.56 v -4.56 z m 8.68801,8.24 v 3.36 h -8.048 v -11.6 h 8.048 v 3.36 h -4.688 v 1.04 h 3.92 v 2.816 h -3.92 v 1.024 z"
     id="text1-2"
     style="font-size:16px;font-family:QUARTZO;-inkscape-font-specification:QUARTZO;text-align:center;white-space:pre;fill:none;stroke:#000000;stroke-width:0.999999"
     inkscape:label="title"
     transform="matrix(0.37794313,0,0,0.37794313,-13.573655,2.3293725)"
     aria-label="ACID ENGINE" /></svg>
