<?xml version="1.0" encoding="UTF-8" standalone="no"?>
<svg
   width="60.96mm"
   height="128.5mm"
   viewBox="0 0 60.96 128.5"
   version="1.1"
   id="svg334"
   sodipodi:docname="AcidEngine.svg"
   inkscape:version="1.4.3 (0d15f75, 2025-12-25)"
   xml:space="preserve"
   xmlns:inkscape="http://www.inkscape.org/namespaces/inkscape"
   xmlns:sodipodi="http://sodipodi.sourceforge.net/DTD/sodipodi-0.dtd"
   xmlns:xlink="http://www.w3.org/1999/xlink"
   xmlns="http://www.w3.org/2000/svg"
   xmlns:svg="http://www.w3.org/2000/svg"><defs
     id="defs334"><rect
       x="83.4386"
       y="466.69048"
       width="56.568543"
       height="17.677669"
       id="rect335" /><rect
       x="83.4386"
       y="466.69048"
       width="56.568543"
       height="17.677669"
       id="rect35" /><rect
       x="83.438599"
       y="466.69049"
       width="56.568542"
       height="17.67767"
       id="rect335-9" /><rect
       x="83.4386"
       y="466.69048"
       width="56.568543"
       height="17.677669"
       id="rect37" /><style
       id="style1">.cls-1{fill:#c7ff17;}.cls-2{fill:#212121;}</style><symbol
       id="a"
       data-name="Deleted Symbol"
       viewBox="0 0 82.286 105.063"><path
         d="m28.686,0h24.912c4.492,0,8.146,3.654,8.146,8.146v36.272c0,2.553,2.076,4.649,4.629,4.675l15.913.158-41.143,55.812L0,49.25l15.911-.158c2.553-.025,4.629-2.122,4.629-4.675V8.146c0-4.492,3.654-8.146,8.146-8.146Z"
         fill="#221f1f"
         stroke-width="0"
         id="path1" /></symbol></defs><sodipodi:namedview
     id="namedview334"
     pagecolor="#ffffff"
     bordercolor="#000000"
     borderopacity="0.25"
     inkscape:showpageshadow="2"
     inkscape:pageopacity="0.0"
     inkscape:pagecheckerboard="0"
     inkscape:deskcolor="#d1d1d1"
     inkscape:document-units="mm"
     inkscape:zoom="1.4142136"
     inkscape:cx="155.56348"
     inkscape:cy="190.21171"
     inkscape:window-width="2023"
     inkscape:window-height="1171"
     inkscape:window-x="0"
     inkscape:window-y="44"
     inkscape:window-maximized="0"
     inkscape:current-layer="layer1" /><!-- Background --><!-- Title: ACID ENGINE - centered at 30.48, ~17mm wide --><!-- VU meter section - centered at 30.48 --><!-- TUNE label - centered at x=12, y=15 (knob at y=22, radius ~4mm) --><!-- Text width ~5mm, starts at 9.5 --><!-- RES label - centered at x=48.96, y=15 --><!-- Text width ~4mm, starts at 47 --><!-- CUTOFF label - centered at x=30.48, y=27 (large knob at y=35, radius ~5mm) --><!-- Text width ~8mm, starts at 26.5 --><!-- DECAY label - centered at x=15.24, y=43 (knob at y=50) --><!-- Text width ~7mm, starts at 11.7 --><!-- ENVMOD label - centered at x=45.72, y=43 --><!-- Text width ~8mm, starts at 41.7 --><!-- WAVE label - centered at x=12, y=57 (switch at y=64) --><!-- Text width ~6mm, starts at 9 --><!-- SLIDE label - centered at x=30.48, y=57 --><!-- Text width ~6mm, starts at 27.5 --><!-- MODE label - centered at x=12, y=71 (switch at y=78) --><!-- Text width ~6mm, starts at 9 --><!-- ACCENT label - centered at x=30.48, y=71 --><!-- Text width ~8mm, starts at 26.5 --><!-- TRIG label - centered at x=48.96, y=71 --><!-- Text width ~5mm, starts at 46.5 --><!-- Knob outlines --><!-- Switch outlines (CKSSThree) --><!-- Button outline (VCVButton) --><!-- CV INPUT section - dark background --><!-- CV input jack outlines - Row 1 --><!-- CV input jack outlines - Row 2 --><!-- OUTPUT section - darker background --><!-- Output jack outlines --><!-- Brand: VULPES79 - centered at 30.48 --><g
     inkscape:groupmode="layer"
     id="layer1"
     inkscape:label="Layer 1"><rect
       x="0"
       y="0"
       width="60.959999"
       height="128.5"
       fill="#e6e6e6"
       id="rect1" /><rect
       x="18"
       y="9"
       width="24.959999"
       height="5"
       fill="#333333"
       rx="1"
       id="rect29" /><circle
       cx="24"
       cy="11.5"
       r="1.6"
       fill="#442200"
       stroke="#555555"
       stroke-width="0.3"
       id="circle29" /><circle
       cx="30.48"
       cy="11.5"
       r="1.6"
       fill="#442200"
       stroke="#555555"
       stroke-width="0.3"
       id="circle30" /><circle
       cx="36.959999"
       cy="11.5"
       r="1.6"
       fill="#442200"
       stroke="#555555"
       stroke-width="0.3"
       id="circle31" /><circle
       cx="12"
       cy="23.5"
       r="4.1999998"
       fill="none"
       stroke="#bbbbbb"
       stroke-width="0.3"
       id="circle1" /><circle
       cx="48.959999"
       cy="23.5"
       r="4.1999998"
       fill="none"
       stroke="#bbbbbb"
       stroke-width="0.3"
       id="circle2" /><circle
       cx="30.48"
       cy="35"
       r="5.0999999"
       fill="none"
       stroke="#bbbbbb"
       stroke-width="0.3"
       id="circle3" /><circle
       cx="15.24"
       cy="48.5"
       r="4.1999998"
       fill="none"
       stroke="#bbbbbb"
       stroke-width="0.3"
       id="circle4" /><circle
       cx="45.720001"
       cy="48.5"
       r="4.1999998"
       fill="none"
       stroke="#bbbbbb"
       stroke-width="0.3"
       id="circle5" /><circle
       cx="30.48"
       cy="62"
       r="4.1999998"
       fill="none"
       stroke="#bbbbbb"
       stroke-width="0.3"
       id="circle6" /><circle
       cx="30.48"
       cy="76"
       r="4.1999998"
       fill="none"
       stroke="#bbbbbb"
       stroke-width="0.3"
       id="circle7" /><rect
       x="10.6"
       y="58"
       width="2.8"
       height="8"
       rx="1"
       fill="none"
       stroke="#bbbbbb"
       stroke-width="0.3"
       id="rect7" /><rect
       x="10.6"
       y="72"
       width="2.8"
       height="8"
       rx="1"
       fill="none"
       stroke="#bbbbbb"
       stroke-width="0.3"
       id="rect8" /><circle
       cx="48.959999"
       cy="76"
       r="3.5"
       fill="none"
       stroke="#bbbbbb"
       stroke-width="0.3"
       id="circle8" /><rect
       x="0"
       y="84.210648"
       width="60.959999"
       height="26.171738"
       fill="#222222"
       id="rect171"
       style="stroke-width:1.06672" /><circle
       cx="8"
       cy="92"
       r="4.1999998"
       fill="none"
       stroke="#444444"
       stroke-width="0.3"
       id="circle9" /><circle
       cx="22.32"
       cy="92"
       r="4.1999998"
       fill="none"
       stroke="#444444"
       stroke-width="0.3"
       id="circle10" /><circle
       cx="38.639999"
       cy="92"
       r="4.1999998"
       fill="none"
       stroke="#444444"
       stroke-width="0.3"
       id="circle11" /><circle
       cx="52.959999"
       cy="92"
       r="4.1999998"
       fill="none"
       stroke="#444444"
       stroke-width="0.3"
       id="circle12" /><circle
       cx="8"
       cy="104"
       r="4.1999998"
       fill="none"
       stroke="#444444"
       stroke-width="0.3"
       id="circle13" /><circle
       cx="22.32"
       cy="104"
       r="4.1999998"
       fill="none"
       stroke="#444444"
       stroke-width="0.3"
       id="circle14" /><circle
       cx="38.639999"
       cy="104"
       r="4.1999998"
       fill="none"
       stroke="#444444"
       stroke-width="0.3"
       id="circle15" /><circle
       cx="52.959999"
       cy="104"
       r="4.1999998"
       fill="none"
       stroke="#444444"
       stroke-width="0.3"
       id="circle16" /><rect
       x="0"
       y="110.01422"
       width="60.959999"
       height="18.485775"
       fill="#1a1a1a"
       id="rect282"
       style="stroke-width:0.973647" /><circle
       cx="20.32"
       cy="118"
       r="4.1999998"
       fill="none"
       stroke="#444444"
       stroke-width="0.3"
       id="circle17" /><circle
       cx="40.639999"
       cy="118"
       r="4.1999998"
       fill="none"
       stroke="#444444"
       stroke-width="0.3"
       id="circle18" /><!-- Waveform icons (right of WAVE switch) --><g
       id="wave-icons"
       style="stroke:#999999;stroke-width:0.3;fill:none;stroke-linecap:round;stroke-linejoin:round"><!-- Saw --><path
         d="M 15,60 L 16.75,58.6 V 60 L 18.5,58.6 V 60"
         id="icon-saw" /><!-- Blend (trapezoid) --><path
         d="M 15,62.7 L 15.5,61.3 L 16.5,61.3 L 17,62.7 L 17.5,61.3 L 18.5,61.3 L 19,62.7"
         id="icon-blend" /><!-- Square --><path
         d="M 15,65.4 V 64 H 16.75 V 65.4 H 18.5 V 64"
         id="icon-square" /></g><!-- Mode fish icons (right of MODE switch) --><g
       id="mode-icons"
       style="fill:#999999;stroke:none"><!-- Baby Fish (small) --><path
         d="M 15.2,73.3 L 15.7,72.8 Q 16.4,72.4 17.2,73.3 Q 16.4,74.2 15.7,73.8 Z"
         id="icon-baby-fish" /><circle
         cx="16.7"
         cy="73.1"
         r="0.15"
         fill="#e6e6e6"
         id="eye-baby" /><!-- Momma Fish (medium) --><path
         d="m 14.85,75.76849 0.7,-0.7 q 1,-0.6 2.3,0.7 -1.3,1.3 -2.3,0.7 z"
         id="icon-momma-fish" /><circle
         cx="17.049999"
         cy="75.468483"
         r="0.18000001"
         fill="#e6e6e6"
         id="eye-momma" /><!-- Devil Fish (medium + horns) --><path
         d="M 14.8,78.7 L 15.5,78.0 Q 16.5,77.4 17.8,78.7 Q 16.5,80.0 15.5,79.4 Z"
         id="icon-devil-fish" /><circle
         cx="17.0"
         cy="78.4"
         r="0.18"
         fill="#e6e6e6"
         id="eye-devil" /><g
         style="stroke:#999999;stroke-width:0.25;stroke-linecap:round;fill:none"
         id="g1"><path
           d="M 16.5,77.85 L 16.2,77.2"
           id="horn-left" /><path
           d="M 17.1,77.9 L 17.4,77.25"
           id="horn-right" /></g></g></g><g
     inkscape:groupmode="layer"
     id="layer2"
     inkscape:label="text-editable"
     style="display:none"
     sodipodi:insensitive="true"><text
       xml:space="preserve"
       style="font-style:normal;font-variant:normal;font-weight:600;font-stretch:normal;font-size:1.41111px;font-family:'JetBrains Mono';-inkscape-font-specification:'JetBrains Mono Semi-Bold';writing-mode:lr-tb;direction:ltr;display:inline;fill:#b3b3b3;stroke-width:0.264583"
       x="20.213917"
       y="98.517876"
       id="text5"
       inkscape:label="cv-slide"><tspan
         sodipodi:role="line"
         id="tspan5"
         style="stroke-width:0.264583"
         x="20.213917"
         y="98.517876">SLIDE</tspan></text><text
       xml:space="preserve"
       style="font-style:normal;font-variant:normal;font-weight:600;font-stretch:normal;font-size:1.41111px;font-family:'JetBrains Mono';-inkscape-font-specification:'JetBrains Mono Semi-Bold';writing-mode:lr-tb;direction:ltr;fill:#b3b3b3;stroke-width:0.264583"
       x="51.266666"
       y="98.516464"
       id="text7"
       inkscape:label="cv-gate"><tspan
         sodipodi:role="line"
         id="tspan7"
         style="stroke-width:0.264583"
         x="51.266666"
         y="98.516464">GATE</tspan></text><text
       xml:space="preserve"
       style="font-style:normal;font-variant:normal;font-weight:600;font-stretch:normal;font-size:1.41111px;font-family:'JetBrains Mono';-inkscape-font-specification:'JetBrains Mono Semi-Bold';writing-mode:lr-tb;direction:ltr;display:inline;fill:#b3b3b3;stroke-width:0.264583"
       x="5.8459396"
       y="98.516472"
       id="text5-5"
       inkscape:label="cv-decay"><tspan
         sodipodi:role="line"
         id="tspan5-7"
         style="stroke-width:0.264583"
         x="5.8459396"
         y="98.516472">DECAY</tspan></text><text
       xml:space="preserve"
       style="font-style:normal;font-variant:normal;font-weight:600;font-stretch:normal;font-size:1.41111px;font-family:'JetBrains Mono';-inkscape-font-specification:'JetBrains Mono Semi-Bold';writing-mode:lr-tb;direction:ltr;fill:#b3b3b3;stroke-width:0.264583"
       x="36.085182"
       y="98.515053"
       id="text6"
       inkscape:label="cv-envmod"><tspan
         sodipodi:role="line"
         id="tspan6"
         style="stroke-width:0.264583"
         x="36.085182"
         y="98.515053">ENVMOD</tspan></text><text
       xml:space="preserve"
       style="font-style:normal;font-variant:normal;font-weight:600;font-stretch:normal;font-size:1.41111px;font-family:'JetBrains Mono';-inkscape-font-specification:'JetBrains Mono Semi-Bold';writing-mode:lr-tb;direction:ltr;fill:#b3b3b3;stroke-width:0.264583"
       x="35.099266"
       y="86.51506"
       id="text10"
       inkscape:label="cv-res"><tspan
         sodipodi:role="line"
         id="tspan10"
         style="stroke-width:0.264583"
         x="35.099266"
         y="86.51506">RESONANCE</tspan></text><text
       xml:space="preserve"
       style="font-style:normal;font-variant:normal;font-weight:600;font-stretch:normal;font-size:1.41111px;font-family:'JetBrains Mono';-inkscape-font-specification:'JetBrains Mono Semi-Bold';writing-mode:lr-tb;direction:ltr;fill:#b3b3b3;stroke-width:0.264583"
       x="19.985249"
       y="86.513641"
       id="text9"
       inkscape:label="cv-cutoff"><tspan
         sodipodi:role="line"
         id="tspan9"
         style="stroke-width:0.264583"
         x="19.985249"
         y="86.513641">CUTOFF</tspan></text><text
       xml:space="preserve"
       style="font-style:normal;font-variant:normal;font-weight:600;font-stretch:normal;font-size:1.41111px;font-family:'JetBrains Mono';-inkscape-font-specification:'JetBrains Mono Semi-Bold';writing-mode:lr-tb;direction:ltr;fill:#b3b3b3;stroke-width:0.264583"
       x="6.1344433"
       y="86.513641"
       id="text8"
       inkscape:label="cv-pitch"><tspan
         sodipodi:role="line"
         id="tspan8"
         style="stroke-width:0.264583"
         x="6.1344433"
         y="86.513641">PITCH</tspan></text><text
       xml:space="preserve"
       style="font-style:normal;font-variant:normal;font-weight:600;font-stretch:normal;font-size:1.41111px;font-family:'JetBrains Mono';-inkscape-font-specification:'JetBrains Mono Semi-Bold';writing-mode:lr-tb;direction:ltr;display:inline;fill:#b3b3b3;stroke-width:0.264583"
       x="50.42635"
       y="86.513649"
       id="text11"
       inkscape:label="cv-accent"><tspan
         sodipodi:role="line"
         id="tspan11"
         style="stroke-width:0.264583"
         x="50.42635"
         y="86.513649">ACCENT</tspan></text><text
       xml:space="preserve"
       id="text334"
       style="font-style:normal;font-variant:normal;font-weight:200;font-stretch:normal;font-size:8px;font-family:'JetBrains Mono';-inkscape-font-specification:'JetBrains Mono Ultra-Light';writing-mode:lr-tb;direction:ltr;white-space:pre;shape-inside:url(#rect335);display:inline;fill:#b3b3b3"
       inkscape:label="brand"
       transform="matrix(0.26458333,0,0,0.26458333,3.4570681,1.8373773)"><tspan
         x="83.439453"
         y="473.87322"
         id="tspan14"><tspan
           style="font-weight:normal;-inkscape-font-specification:'JetBrains Mono'"
           id="tspan4">vulpes79</tspan></tspan></text><text
       xml:space="preserve"
       style="font-style:normal;font-variant:normal;font-weight:600;font-stretch:normal;font-size:1.76389px;font-family:'JetBrains Mono';-inkscape-font-specification:'JetBrains Mono Semi-Bold';writing-mode:lr-tb;direction:ltr;fill:#b3b3b3;stroke-width:0.264583"
       x="37.967705"
       y="112.42699"
       id="text2-0"
       inkscape:label="out-r"><tspan
         sodipodi:role="line"
         id="tspan2-0"
         style="font-size:1.76389px;stroke-width:0.264583"
         x="37.967705"
         y="112.42699">OUT R</tspan></text><text
       xml:space="preserve"
       style="font-style:normal;font-variant:normal;font-weight:600;font-stretch:normal;font-size:1.76389px;font-family:'JetBrains Mono';-inkscape-font-specification:'JetBrains Mono Semi-Bold';writing-mode:lr-tb;direction:ltr;fill:#b3b3b3;stroke-width:0.264583"
       x="17.662699"
       y="112.42699"
       id="text2"
       inkscape:label="out-l"><tspan
         sodipodi:role="line"
         id="tspan2"
         style="font-size:1.76389px;stroke-width:0.264583"
         x="17.662699"
         y="112.42699">OUT L</tspan></text><text
       xml:space="preserve"
       style="font-style:normal;font-variant:normal;font-weight:600;font-stretch:normal;font-size:2.11667px;font-family:'JetBrains Mono';-inkscape-font-specification:'JetBrains Mono Semi-Bold';writing-mode:lr-tb;direction:ltr;fill:#b3b3b3;stroke-width:0.264583"
       x="41.885651"
       y="42.878834"
       id="text12-3"
       inkscape:label="envmod"><tspan
         sodipodi:role="line"
         id="tspan12-8"
         style="font-style:normal;font-variant:normal;font-weight:bold;font-stretch:normal;font-size:2.11667px;font-family:'JetBrains Mono';-inkscape-font-specification:'JetBrains Mono Bold';fill:#1a1a1a;stroke-width:0.264583"
         x="41.885651"
         y="42.878834">ENVMOD</tspan></text><text
       xml:space="preserve"
       style="font-style:normal;font-variant:normal;font-weight:600;font-stretch:normal;font-size:2.11667px;font-family:'JetBrains Mono';-inkscape-font-specification:'JetBrains Mono Semi-Bold';writing-mode:lr-tb;direction:ltr;fill:#b3b3b3;stroke-width:0.264583"
       x="11.769959"
       y="42.878834"
       id="text12"
       inkscape:label="decay"><tspan
         sodipodi:role="line"
         id="tspan12"
         style="font-style:normal;font-variant:normal;font-weight:bold;font-stretch:normal;font-size:2.11667px;font-family:'JetBrains Mono';-inkscape-font-specification:'JetBrains Mono Bold';fill:#1a1a1a;stroke-width:0.264583"
         x="11.769959"
         y="42.878834">DECAY</tspan></text><text
       xml:space="preserve"
       style="font-style:normal;font-variant:normal;font-weight:600;font-stretch:normal;font-size:2.11667px;font-family:'JetBrains Mono';-inkscape-font-specification:'JetBrains Mono Semi-Bold';writing-mode:lr-tb;direction:ltr;fill:#b3b3b3;stroke-width:0.264583"
       x="9.4790449"
       y="70.421165"
       id="text12-7"
       inkscape:label="mode"><tspan
         sodipodi:role="line"
         id="tspan12-82"
         style="font-style:normal;font-variant:normal;font-weight:bold;font-stretch:normal;font-size:2.11667px;font-family:'JetBrains Mono';-inkscape-font-specification:'JetBrains Mono Bold';fill:#1a1a1a;stroke-width:0.264583"
         x="9.4790449"
         y="70.421165">MODE</tspan></text><text
       xml:space="preserve"
       style="font-style:normal;font-variant:normal;font-weight:600;font-stretch:normal;font-size:2.11667px;font-family:'JetBrains Mono';-inkscape-font-specification:'JetBrains Mono Semi-Bold';writing-mode:lr-tb;direction:ltr;fill:#b3b3b3;stroke-width:0.264583"
       x="26.652845"
       y="70.421165"
       id="text12-19"
       inkscape:label="accent"><tspan
         sodipodi:role="line"
         id="tspan12-4"
         style="font-style:normal;font-variant:normal;font-weight:bold;font-stretch:normal;font-size:2.11667px;font-family:'JetBrains Mono';-inkscape-font-specification:'JetBrains Mono Bold';fill:#1a1a1a;stroke-width:0.264583"
         x="26.652845"
         y="70.421165">ACCENT</tspan></text><text
       xml:space="preserve"
       style="font-style:normal;font-variant:normal;font-weight:600;font-stretch:normal;font-size:2.11667px;font-family:'JetBrains Mono';-inkscape-font-specification:'JetBrains Mono Semi-Bold';writing-mode:lr-tb;direction:ltr;fill:#b3b3b3;stroke-width:0.264583"
       x="46.347599"
       y="70.421165"
       id="text12-08"
       inkscape:label="gate"><tspan
         sodipodi:role="line"
         id="tspan12-2"
         style="font-style:normal;font-variant:normal;font-weight:bold;font-stretch:normal;font-size:2.11667px;font-family:'JetBrains Mono';-inkscape-font-specification:'JetBrains Mono Bold';fill:#1a1a1a;stroke-width:0.264583"
         x="46.347599"
         y="70.421165">GATE</tspan></text><text
       xml:space="preserve"
       style="font-style:normal;font-variant:normal;font-weight:600;font-stretch:normal;font-size:2.11667px;font-family:'JetBrains Mono';-inkscape-font-specification:'JetBrains Mono Semi-Bold';writing-mode:lr-tb;direction:ltr;fill:#b3b3b3;stroke-width:0.264583"
       x="9.5213766"
       y="56.400002"
       id="text12-0"
       inkscape:label="wave"><tspan
         sodipodi:role="line"
         id="tspan12-6"
         style="font-style:normal;font-variant:normal;font-weight:bold;font-stretch:normal;font-size:2.11667px;font-family:'JetBrains Mono';-inkscape-font-specification:'JetBrains Mono Bold';fill:#1a1a1a;stroke-width:0.264583"
         x="9.5213766"
         y="56.400002">WAVE</tspan></text><text
       xml:space="preserve"
       style="font-style:normal;font-variant:normal;font-weight:600;font-stretch:normal;font-size:2.11667px;font-family:'JetBrains Mono';-inkscape-font-specification:'JetBrains Mono Semi-Bold';writing-mode:lr-tb;direction:ltr;fill:#b3b3b3;stroke-width:0.264583"
       x="46.910645"
       y="18.066336"
       id="text12-34"
       inkscape:label="res"><tspan
         sodipodi:role="line"
         id="tspan12-3"
         style="font-style:normal;font-variant:normal;font-weight:bold;font-stretch:normal;font-size:2.11667px;font-family:'JetBrains Mono';-inkscape-font-specification:'JetBrains Mono Bold';fill:#1a1a1a;stroke-width:0.264583"
         x="46.910645"
         y="18.066336">RES</tspan></text><text
       xml:space="preserve"
       style="font-style:normal;font-variant:normal;font-weight:600;font-stretch:normal;font-size:2.11667px;font-family:'JetBrains Mono';-inkscape-font-specification:'JetBrains Mono Semi-Bold';writing-mode:lr-tb;direction:ltr;fill:#b3b3b3;stroke-width:0.264583"
       x="9.4766216"
       y="18.045168"
       id="text12-5"
       inkscape:label="tune"><tspan
         sodipodi:role="line"
         id="tspan12-00"
         style="font-style:normal;font-variant:normal;font-weight:bold;font-stretch:normal;font-size:2.11667px;font-family:'JetBrains Mono';-inkscape-font-specification:'JetBrains Mono Bold';fill:#1a1a1a;stroke-width:0.264583"
         x="9.4766216"
         y="18.045168">TUNE</tspan></text><text
       xml:space="preserve"
       style="font-style:normal;font-variant:normal;font-weight:600;font-stretch:normal;font-size:2.11667px;font-family:'JetBrains Mono';-inkscape-font-specification:'JetBrains Mono Semi-Bold';writing-mode:lr-tb;direction:ltr;fill:#b3b3b3;stroke-width:0.264583"
       x="26.663641"
       y="28.591333"
       id="text12-9"
       inkscape:label="cutoff"><tspan
         sodipodi:role="line"
         id="tspan12-81"
         style="font-style:normal;font-variant:normal;font-weight:bold;font-stretch:normal;font-size:2.11667px;font-family:'JetBrains Mono';-inkscape-font-specification:'JetBrains Mono Bold';fill:#1a1a1a;stroke-width:0.264583"
         x="26.663641"
         y="28.591333">CUTOFF</tspan></text><text
       xml:space="preserve"
       style="font-style:normal;font-variant:normal;font-weight:600;font-stretch:normal;font-size:2.11667px;font-family:'JetBrains Mono';-inkscape-font-specification:'JetBrains Mono Semi-Bold';writing-mode:lr-tb;direction:ltr;fill:#b3b3b3;stroke-width:0.264583"
       x="27.322985"
       y="56.400002"
       id="text12-1"
       inkscape:label="slide"><tspan
         sodipodi:role="line"
         id="tspan12-0"
         style="font-style:normal;font-variant:normal;font-weight:bold;font-stretch:normal;font-size:2.11667px;font-family:'JetBrains Mono';-inkscape-font-specification:'JetBrains Mono Bold';fill:#1a1a1a;stroke-width:0.264583"
         x="27.322985"
         y="56.400002">SLIDE</tspan></text><text
       xml:space="preserve"
       style="font-style:normal;font-variant:normal;font-weight:bold;font-stretch:normal;font-size:3.52778px;font-family:'JetBrains Mono';-inkscape-font-specification:'JetBrains Mono Bold';writing-mode:lr-tb;direction:ltr;fill:#1a1a1a;stroke-width:0.264583"
       x="19.437693"
       y="6.6876388"
       id="text13"
       inkscape:label="title"><tspan
         sodipodi:role="line"
         id="tspan13"
         style="font-style:normal;font-variant:normal;font-weight:800;font-stretch:normal;font-size:3.52778px;font-family:'JetBrains Mono';-inkscape-font-specification:'JetBrains Mono Ultra-Bold';stroke-width:0.264583"
         x="19.437693"
         y="6.6876388">ACID ENGINE</tspan></text><text
       xml:space="preserve"
       style="font-style:normal;font-variant:normal;font-weight:normal;font-stretch:normal;font-size:1.76389px;font-family:'JetBrains Mono';-inkscape-font-specification:'JetBrains Mono';writing-mode:lr-tb;direction:ltr;fill:#1a1a1a;stroke-width:0.264583"
       x="-17.264063"
       y="75.935417"
       id="text18"><tspan
         sodipodi:role="line"
         id="tspan18"
         style="stroke-width:0.264583"
         x="-17.264063"
         y="75.935417" /></text></g><g
     inkscape:groupmode="layer"
     id="g37"
     inkscape:label="text-editable copy"
     style="display:inline"><path
       d="m 20.640072,98.531987 q -0.104422,0 -0.180622,-0.03528 -0.0762,-0.03528 -0.118533,-0.100189 -0.04092,-0.06491 -0.04092,-0.1524 h 0.163689 q 0,0.06632 0.04798,0.104422 0.04798,0.0381 0.131233,0.0381 0.07761,0 0.122767,-0.03669 0.04515,-0.0381 0.04515,-0.104423 0,-0.05503 -0.03104,-0.09454 -0.03105,-0.04092 -0.0889,-0.05503 l -0.124178,-0.03528 q -0.117122,-0.03246 -0.180622,-0.111478 -0.0635,-0.08043 -0.0635,-0.1905 0,-0.08749 0.0381,-0.150988 0.03951,-0.0635 0.110067,-0.09878 0.07197,-0.03669 0.169333,-0.03669 0.146755,0 0.232833,0.07761 0.08608,0.0762 0.08749,0.204611 h -0.1651 q 0,-0.0635 -0.04092,-0.100189 -0.04092,-0.03669 -0.115711,-0.03669 -0.07197,0 -0.112889,0.03528 -0.03951,0.03387 -0.03951,0.09454 0,0.05644 0.02963,0.09596 0.03104,0.03951 0.08749,0.05644 l 0.128411,0.03669 q 0.117122,0.03105 0.179211,0.110067 0.0635,0.07902 0.0635,0.193322 0,0.08749 -0.04233,0.153811 -0.04092,0.06491 -0.115711,0.1016 -0.07479,0.03669 -0.176389,0.03669 z m 0.570089,-0.01411 v -1.030111 h 0.1651 v 0.877711 h 0.443088 v 0.1524 z m 0.829733,0 v -0.145345 h 0.207433 V 97.63311 h -0.207433 v -0.145345 h 0.581378 v 0.145345 h -0.207434 v 0.739421 h 0.207434 v 0.145345 z m 0.8255,0 v -1.030111 h 0.296333 q 0.104422,0 0.179211,0.03951 0.0762,0.03951 0.118534,0.111478 0.04233,0.07056 0.04233,0.167922 v 0.390878 q 0,0.09737 -0.04233,0.169333 -0.04233,0.07197 -0.118534,0.111478 -0.07479,0.03951 -0.179211,0.03951 z m 0.1651,-0.150989 h 0.131233 q 0.08185,0 0.128411,-0.04516 0.04657,-0.04515 0.04657,-0.124177 v -0.390878 q 0,-0.07761 -0.04657,-0.122766 -0.04657,-0.04516 -0.128411,-0.04516 h -0.131233 z m 0.6985,0.150989 v -1.030111 h 0.611011 v 0.143934 h -0.448733 v 0.28081 h 0.399344 v 0.143934 h -0.399344 v 0.317499 h 0.448733 v 0.143934 z"
       id="text4"
       style="font-weight:600;font-size:1.41111px;font-family:'JetBrains Mono';-inkscape-font-specification:'JetBrains Mono Semi-Bold';fill:#b3b3b3;stroke-width:0.264583"
       inkscape:label="cv-slide"
       aria-label="SLIDE" /><path
       d="m 51.695644,98.530575 q -0.09737,0 -0.170744,-0.03669 -0.07197,-0.03669 -0.111478,-0.104422 -0.03951,-0.06914 -0.03951,-0.160866 V 97.77422 q 0,-0.09313 0.03951,-0.160866 0.03951,-0.06773 0.111478,-0.104422 0.07338,-0.03669 0.170744,-0.03669 0.09878,0 0.169333,0.0381 0.07197,0.03669 0.111478,0.104422 0.03951,0.06632 0.03951,0.159455 h -0.163689 q 0,-0.0762 -0.04092,-0.115711 -0.04092,-0.04092 -0.115711,-0.04092 -0.07479,0 -0.117122,0.04092 -0.04092,0.03951 -0.04092,0.115711 v 0.454378 q 0,0.07479 0.04092,0.117122 0.04233,0.04092 0.117122,0.04092 0.07479,0 0.115711,-0.04092 0.04092,-0.04233 0.04092,-0.118533 v -0.108656 h -0.184855 v -0.143933 h 0.348544 v 0.254 q 0,0.09172 -0.03951,0.159455 -0.03951,0.06773 -0.111478,0.105833 -0.07056,0.03669 -0.169333,0.03669 z m 0.472722,-0.01411 0.261056,-1.03011 h 0.214488 l 0.261056,1.03011 h -0.166511 l -0.06068,-0.255411 h -0.282222 l -0.05927,0.255411 z m 0.256822,-0.390877 h 0.221545 l -0.06491,-0.286456 q -0.01693,-0.07338 -0.02963,-0.131233 -0.01129,-0.05786 -0.01552,-0.08043 -0.0042,0.02258 -0.01552,0.08043 -0.01129,0.05644 -0.02822,0.129822 z m 0.8763,0.390877 v -0.879121 h -0.273755 v -0.1524 h 0.711199 v 0.1524 h -0.273755 v 0.879121 z m 0.633589,0 v -1.03011 h 0.611011 v 0.143933 h -0.448733 v 0.280811 h 0.399344 v 0.143933 h -0.399344 v 0.3175 h 0.448733 v 0.143933 z"
       id="text14"
       style="font-weight:600;font-size:1.41111px;font-family:'JetBrains Mono';-inkscape-font-specification:'JetBrains Mono Semi-Bold';fill:#b3b3b3;stroke-width:0.264583"
       inkscape:label="cv-gate"
       aria-label="GATE" /><path
       d="m 5.9574173,98.516472 v -1.03011 h 0.2963331 q 0.1044222,0 0.179211,0.03951 0.0762,0.03951 0.1185333,0.111477 0.042333,0.07056 0.042333,0.167922 v 0.390878 q 0,0.09737 -0.042333,0.169333 -0.042333,0.07197 -0.1185333,0.111478 -0.074789,0.03951 -0.179211,0.03951 z m 0.1650999,-0.150989 h 0.1312332 q 0.081844,0 0.1284111,-0.04515 0.046567,-0.04516 0.046567,-0.124178 v -0.390878 q 0,-0.07761 -0.046567,-0.122766 -0.046567,-0.04516 -0.1284111,-0.04516 H 6.1225172 Z m 0.6985,0.150989 v -1.03011 h 0.6110107 v 0.143933 h -0.448733 v 0.280811 H 7.382639 v 0.143933 H 6.9832949 v 0.3175 h 0.448733 v 0.143933 z m 1.147233,0.01411 q -0.097367,0 -0.1707443,-0.03669 -0.071967,-0.03669 -0.1114777,-0.104422 -0.039511,-0.06914 -0.039511,-0.160867 v -0.454377 q 0,-0.09313 0.039511,-0.160867 0.039511,-0.06773 0.1114777,-0.104422 0.073378,-0.03669 0.1707443,-0.03669 0.098778,0 0.1693332,0.0381 0.071967,0.03669 0.1114777,0.104423 0.039511,0.06632 0.039511,0.159455 H 8.1248835 q 0,-0.0762 -0.040922,-0.115711 -0.040922,-0.04092 -0.1157111,-0.04092 -0.074789,0 -0.1171221,0.04092 -0.040922,0.03951 -0.040922,0.115711 v 0.454377 q 0,0.07479 0.040922,0.115711 0.042333,0.04092 0.1171221,0.04092 0.074789,0 0.1157111,-0.04092 0.040922,-0.04092 0.040922,-0.115711 h 0.1636887 q 0,0.09031 -0.039511,0.159456 -0.039511,0.06773 -0.1114777,0.105833 -0.070556,0.03669 -0.1693332,0.03669 z m 0.4727225,-0.01411 0.2610553,-1.03011 h 0.2144887 l 0.2610554,1.03011 h -0.166511 l -0.060678,-0.255411 h -0.282222 l -0.059267,0.255411 z m 0.256822,-0.390878 H 8.919339 l -0.064911,-0.286455 q -0.016933,-0.07338 -0.029633,-0.131233 -0.011289,-0.05786 -0.015522,-0.08043 -0.00423,0.02258 -0.015522,0.08043 -0.011289,0.05644 -0.028222,0.129822 z m 0.8762999,0.390878 V 98.139705 L 9.2692948,97.486362 h 0.1707443 l 0.1721554,0.373944 q 0.018345,0.03951 0.029633,0.0762 0.0127,0.03669 0.016933,0.05786 0.00423,-0.02117 0.015522,-0.05786 0.0127,-0.03669 0.029633,-0.0762 l 0.1679221,-0.373944 h 0.1707442 l -0.3047997,0.653343 v 0.376767 z"
       id="text15"
       style="font-weight:600;font-size:1.41111px;font-family:'JetBrains Mono';-inkscape-font-specification:'JetBrains Mono Semi-Bold';fill:#b3b3b3;stroke-width:0.264583"
       inkscape:label="cv-decay"
       aria-label="DECAY" /><path
       d="m 36.213593,98.515053 v -1.030111 h 0.611011 v 0.143934 h -0.448733 v 0.280811 h 0.399344 v 0.143933 h -0.399344 v 0.3175 h 0.448733 v 0.143933 z m 0.826911,0 v -1.030111 h 0.2032 l 0.293511,0.843844 q -0.0028,-0.04233 -0.0085,-0.100189 -0.0042,-0.05927 -0.0071,-0.121355 -0.0028,-0.0635 -0.0028,-0.112889 v -0.509411 h 0.150988 v 1.030111 h -0.2032 L 37.17456,97.671209 q 0.0042,0.0381 0.0071,0.09454 0.0042,0.05644 0.0071,0.117122 0.0028,0.05927 0.0028,0.110067 v 0.522111 z m 1.0541,0 -0.261055,-1.030111 h 0.169333 l 0.160866,0.678744 q 0.01411,0.05503 0.0254,0.112889 0.01129,0.05786 0.01693,0.09313 0.0056,-0.03528 0.01552,-0.09313 0.01129,-0.05785 0.0254,-0.1143 l 0.158044,-0.677333 h 0.1651 l -0.261055,1.030111 z m 0.616656,0 v -1.030111 h 0.198966 l 0.1016,0.328789 q 0.01552,0.04798 0.0254,0.09031 0.0099,0.04092 0.01411,0.06068 0.0042,-0.01976 0.01411,-0.06068 0.0099,-0.04233 0.02399,-0.09031 l 0.09737,-0.328789 h 0.198966 v 1.030111 h -0.155222 v -0.333022 q 0,-0.06914 0.0042,-0.150989 0.0042,-0.08184 0.0099,-0.1651 0.0071,-0.08326 0.01411,-0.158044 0.0085,-0.0762 0.01411,-0.131233 l -0.145344,0.492477 h -0.155222 l -0.148167,-0.492477 q 0.0071,0.05362 0.01411,0.127 0.0071,0.07197 0.0127,0.155222 0.0071,0.08184 0.01129,0.1651 0.0042,0.08325 0.0042,0.158044 v 0.333022 z m 1.183922,0.01411 q -0.09737,0 -0.169334,-0.03669 -0.07055,-0.03669 -0.108655,-0.104422 -0.0381,-0.06915 -0.0381,-0.160867 v -0.454377 q 0,-0.09313 0.0381,-0.160867 0.0381,-0.06773 0.108655,-0.104422 0.07197,-0.03669 0.169334,-0.03669 0.09878,0 0.169333,0.03669 0.07055,0.03669 0.108655,0.104422 0.0381,0.06773 0.0381,0.160867 v 0.454377 q 0,0.09172 -0.0381,0.160867 -0.0381,0.06773 -0.108655,0.104422 -0.07056,0.03669 -0.169333,0.03669 z m 0,-0.145344 q 0.07479,0 0.112888,-0.04092 0.03951,-0.04092 0.03951,-0.115711 v -0.454377 q 0,-0.0762 -0.03951,-0.115711 -0.0381,-0.04092 -0.112888,-0.04092 -0.07479,0 -0.1143,0.04092 -0.0381,0.03951 -0.0381,0.115711 v 0.454377 q 0,0.07479 0.03951,0.115711 0.03951,0.04092 0.112889,0.04092 z m 0.534811,0.131233 v -1.030111 h 0.296333 q 0.104422,0 0.179211,0.03951 0.0762,0.03951 0.118533,0.111477 0.04233,0.07056 0.04233,0.167922 v 0.390878 q 0,0.09737 -0.04233,0.169333 -0.04233,0.07197 -0.118533,0.111478 -0.07479,0.03951 -0.179211,0.03951 z m 0.165099,-0.150989 h 0.131234 q 0.08184,0 0.128411,-0.04516 0.04657,-0.04515 0.04657,-0.124177 v -0.390878 q 0,-0.07761 -0.04657,-0.122766 -0.04657,-0.04516 -0.128411,-0.04516 h -0.131234 z"
       id="text16"
       style="font-weight:600;font-size:1.41111px;font-family:'JetBrains Mono';-inkscape-font-specification:'JetBrains Mono Semi-Bold';fill:#b3b3b3;stroke-width:0.264583"
       inkscape:label="cv-envmod"
       aria-label="ENVMOD" /><path
       d="m 35.212155,86.51506 v -1.03011 h 0.324555 q 0.100189,0 0.173567,0.0381 0.07479,0.03669 0.115711,0.105833 0.04092,0.06773 0.04092,0.159456 0,0.103011 -0.05221,0.180622 -0.05221,0.0762 -0.141111,0.107244 l 0.207433,0.438855 H 35.696166 L 35.51131,86.098783 h -0.135466 v 0.416277 z m 0.163689,-0.561621 h 0.160866 q 0.07479,0 0.118533,-0.04233 0.04516,-0.04374 0.04516,-0.118533 0,-0.07479 -0.04516,-0.118533 -0.04374,-0.04374 -0.118533,-0.04374 h -0.160866 z m 0.6985,0.561621 v -1.03011 h 0.61101 v 0.143933 h -0.448733 v 0.280811 h 0.399344 v 0.143933 h -0.399344 v 0.3175 h 0.448733 v 0.143933 z m 1.14441,0.01411 q -0.104422,0 -0.180622,-0.03528 -0.0762,-0.03528 -0.118533,-0.100189 -0.04092,-0.06491 -0.04092,-0.1524 h 0.163689 q 0,0.06632 0.04798,0.104422 0.04798,0.0381 0.131234,0.0381 0.07761,0 0.122766,-0.03669 0.04516,-0.0381 0.04516,-0.104422 0,-0.05503 -0.03104,-0.09454 -0.03104,-0.04092 -0.0889,-0.05503 l -0.124177,-0.03528 q -0.117122,-0.03246 -0.180622,-0.111478 -0.0635,-0.08043 -0.0635,-0.1905 0,-0.08749 0.0381,-0.150989 0.03951,-0.0635 0.110066,-0.09878 0.07197,-0.03669 0.169333,-0.03669 0.146756,0 0.232834,0.07761 0.08608,0.0762 0.08749,0.204611 h -0.165099 q 0,-0.0635 -0.04092,-0.100189 -0.04092,-0.03669 -0.115711,-0.03669 -0.07197,0 -0.112888,0.03528 -0.03951,0.03387 -0.03951,0.09454 0,0.05644 0.02963,0.09596 0.03104,0.03951 0.08749,0.05644 l 0.128411,0.03669 q 0.117122,0.03104 0.179211,0.110067 0.0635,0.07902 0.0635,0.193322 0,0.08749 -0.04233,0.153811 -0.04092,0.06491 -0.115711,0.1016 -0.07479,0.03669 -0.176389,0.03669 z m 0.843845,0 q -0.09737,0 -0.169333,-0.03669 -0.07056,-0.03669 -0.108656,-0.104422 -0.0381,-0.06914 -0.0381,-0.160867 v -0.454377 q 0,-0.09313 0.0381,-0.160867 0.0381,-0.06773 0.108656,-0.104422 0.07197,-0.03669 0.169333,-0.03669 0.09878,0 0.169333,0.03669 0.07055,0.03669 0.108655,0.104422 0.0381,0.06773 0.0381,0.160867 v 0.454377 q 0,0.09172 -0.0381,0.160867 -0.0381,0.06773 -0.108655,0.104422 -0.07056,0.03669 -0.169333,0.03669 z m 0,-0.145345 q 0.07479,0 0.112889,-0.04092 0.03951,-0.04092 0.03951,-0.115711 v -0.454377 q 0,-0.0762 -0.03951,-0.115711 -0.0381,-0.04092 -0.112889,-0.04092 -0.07479,0 -0.1143,0.04092 -0.0381,0.03951 -0.0381,0.115711 v 0.454377 q 0,0.07479 0.03951,0.115711 0.03951,0.04092 0.112889,0.04092 z m 0.531989,0.131233 v -1.03011 h 0.2032 l 0.293511,0.843844 q -0.0028,-0.04233 -0.0085,-0.100189 -0.0042,-0.05927 -0.0071,-0.121355 -0.0028,-0.0635 -0.0028,-0.112889 V 85.48495 h 0.150989 v 1.03011 h -0.2032 l -0.2921,-0.843843 q 0.0042,0.0381 0.0071,0.09454 0.0042,0.05644 0.0071,0.117122 0.0028,0.05927 0.0028,0.110067 v 0.52211 z m 0.793044,0 0.261055,-1.03011 h 0.214489 l 0.261055,1.03011 H 39.95772 l -0.06068,-0.25541 h -0.282222 l -0.05927,0.25541 z m 0.256822,-0.390877 h 0.221544 l -0.06491,-0.286455 q -0.01693,-0.07338 -0.02963,-0.131234 -0.01129,-0.05786 -0.01552,-0.08043 -0.0042,0.02258 -0.01552,0.08043 -0.01129,0.05644 -0.02822,0.129822 z m 0.643467,0.390877 v -1.03011 h 0.2032 l 0.293511,0.843844 q -0.0028,-0.04233 -0.0085,-0.100189 -0.0042,-0.05927 -0.0071,-0.121355 -0.0028,-0.0635 -0.0028,-0.112889 V 85.48495 h 0.150989 v 1.03011 h -0.2032 l -0.2921,-0.843843 q 0.0042,0.0381 0.0071,0.09454 0.0042,0.05644 0.0071,0.117122 0.0028,0.05927 0.0028,0.110067 v 0.52211 z m 1.166989,0.01411 q -0.09737,0 -0.170745,-0.03669 -0.07197,-0.03669 -0.111477,-0.104422 -0.03951,-0.06914 -0.03951,-0.160867 v -0.454377 q 0,-0.09313 0.03951,-0.160867 0.03951,-0.06773 0.111477,-0.104422 0.07338,-0.03669 0.170745,-0.03669 0.09878,0 0.169333,0.0381 0.07197,0.03669 0.111478,0.104422 0.03951,0.06632 0.03951,0.159456 h -0.163689 q 0,-0.0762 -0.04092,-0.115711 -0.04092,-0.04092 -0.115711,-0.04092 -0.07479,0 -0.117122,0.04092 -0.04092,0.03951 -0.04092,0.115711 v 0.454377 q 0,0.07479 0.04092,0.115711 0.04233,0.04092 0.117122,0.04092 0.07479,0 0.115711,-0.04092 0.04092,-0.04092 0.04092,-0.115711 h 0.163689 q 0,0.09031 -0.03951,0.159455 -0.03951,0.06773 -0.111478,0.105834 -0.07056,0.03669 -0.169333,0.03669 z m 0.5461,-0.01411 v -1.03011 h 0.61101 v 0.143933 h -0.448733 v 0.280811 h 0.399344 v 0.143933 h -0.399344 v 0.3175 h 0.448733 v 0.143933 z"
       id="text17"
       style="font-weight:600;font-size:1.41111px;font-family:'JetBrains Mono';-inkscape-font-specification:'JetBrains Mono Semi-Bold';fill:#b3b3b3;stroke-width:0.264583"
       inkscape:label="cv-res"
       aria-label="RESONANCE" /><path
       d="m 20.414226,86.527752 q -0.09737,0 -0.170744,-0.03669 -0.07197,-0.03669 -0.111478,-0.104423 -0.03951,-0.06914 -0.03951,-0.160866 v -0.454378 q 0,-0.09313 0.03951,-0.160866 0.03951,-0.06773 0.111478,-0.104422 0.07338,-0.03669 0.170744,-0.03669 0.09878,0 0.169333,0.0381 0.07197,0.03669 0.111478,0.104422 0.03951,0.06632 0.03951,0.159455 h -0.163689 q 0,-0.0762 -0.04092,-0.115711 -0.04092,-0.04092 -0.115711,-0.04092 -0.07479,0 -0.117122,0.04092 -0.04092,0.03951 -0.04092,0.115711 v 0.454378 q 0,0.07479 0.04092,0.115711 0.04233,0.04092 0.117122,0.04092 0.07479,0 0.115711,-0.04092 0.04092,-0.04092 0.04092,-0.115711 h 0.163689 q 0,0.09031 -0.03951,0.159455 -0.03951,0.06773 -0.111478,0.105834 -0.07056,0.03669 -0.169333,0.03669 z m 0.841022,0 q -0.149578,0 -0.232833,-0.08184 -0.08184,-0.08184 -0.08184,-0.222955 v -0.739422 h 0.163688 v 0.738011 q 0,0.0762 0.0381,0.119944 0.0381,0.04233 0.112889,0.04233 0.07338,0 0.111478,-0.04233 0.03951,-0.04374 0.03951,-0.119944 v -0.738011 h 0.163689 v 0.739422 q 0,0.141111 -0.08184,0.222955 -0.08184,0.08184 -0.232833,0.08184 z m 0.764822,-0.01411 V 85.63452 h -0.273755 v -0.1524 h 0.711199 v 0.1524 h -0.273755 v 0.879121 z m 0.928511,0.01411 q -0.09737,0 -0.169333,-0.03669 -0.07055,-0.03669 -0.108655,-0.104423 -0.0381,-0.06914 -0.0381,-0.160866 v -0.454378 q 0,-0.09313 0.0381,-0.160866 0.0381,-0.06773 0.108655,-0.104422 0.07197,-0.03669 0.169333,-0.03669 0.09878,0 0.169334,0.03669 0.07055,0.03669 0.108655,0.104422 0.0381,0.06773 0.0381,0.160866 v 0.454378 q 0,0.09172 -0.0381,0.160866 -0.0381,0.06773 -0.108655,0.104423 -0.07056,0.03669 -0.169334,0.03669 z m 0,-0.145344 q 0.07479,0 0.112889,-0.04092 0.03951,-0.04092 0.03951,-0.115711 v -0.454378 q 0,-0.0762 -0.03951,-0.115711 -0.0381,-0.04092 -0.112889,-0.04092 -0.07479,0 -0.1143,0.04092 -0.0381,0.03951 -0.0381,0.115711 v 0.454378 q 0,0.07479 0.03951,0.115711 0.03951,0.04092 0.112889,0.04092 z m 0.541867,0.131233 V 85.48212 h 0.632177 v 0.1524 h -0.47131 v 0.2921 h 0.434622 v 0.152399 h -0.4318 v 0.434622 z m 0.846666,0 V 85.48212 h 0.632178 v 0.1524 h -0.471311 v 0.2921 h 0.434622 v 0.152399 h -0.4318 v 0.434622 z"
       id="text19"
       style="font-weight:600;font-size:1.41111px;font-family:'JetBrains Mono';-inkscape-font-specification:'JetBrains Mono Semi-Bold';fill:#b3b3b3;stroke-width:0.264583"
       inkscape:label="cv-cutoff"
       aria-label="CUTOFF" /><path
       d="m 6.2473321,86.513641 v -1.03011 h 0.3414886 q 0.1015999,0 0.1763888,0.03951 0.074789,0.0381 0.115711,0.108656 0.042333,0.07055 0.042333,0.166511 0,0.09313 -0.042333,0.165099 -0.040922,0.07056 -0.115711,0.110067 -0.074789,0.0381 -0.1763888,0.0381 H 6.412432 v 0.402166 z M 6.412432,85.963308 h 0.1763887 q 0.0762,0 0.1213555,-0.04515 0.046567,-0.04516 0.046567,-0.119944 0,-0.07761 -0.046567,-0.121356 -0.045155,-0.04515 -0.1213555,-0.04515 H 6.412432 Z m 0.7013222,0.550333 V 86.368297 H 7.3211874 V 85.628875 H 7.1137542 v -0.145344 h 0.5813773 v 0.145344 H 7.4876984 v 0.739422 h 0.2074331 v 0.145344 z m 1.0555109,0 V 85.63452 H 7.8955097 v -0.1524 h 0.7111995 v 0.1524 H 8.3329538 v 0.879121 z m 0.9341554,0.01411 q -0.097367,0 -0.1707444,-0.03669 -0.071967,-0.03669 -0.1114776,-0.104423 -0.039511,-0.06914 -0.039511,-0.160866 v -0.454378 q 0,-0.09313 0.039511,-0.160866 0.039511,-0.06773 0.1114776,-0.104422 0.073378,-0.03669 0.1707444,-0.03669 0.098778,0 0.1693332,0.0381 0.071967,0.03669 0.1114777,0.104422 0.039511,0.06632 0.039511,0.159455 H 9.2600537 q 0,-0.0762 -0.040922,-0.115711 -0.040922,-0.04092 -0.115711,-0.04092 -0.074789,0 -0.1171222,0.04092 -0.040922,0.03951 -0.040922,0.115711 v 0.454378 q 0,0.07479 0.040922,0.115711 0.042333,0.04092 0.1171222,0.04092 0.074789,0 0.115711,-0.04092 0.040922,-0.04092 0.040922,-0.115711 h 0.1636887 q 0,0.09031 -0.039511,0.159455 -0.039511,0.06773 -0.1114777,0.105834 -0.070556,0.03669 -0.1693332,0.03669 z m 0.531989,-0.01411 v -1.03011 h 0.1650999 v 0.420511 h 0.2878666 v -0.420511 h 0.1651 v 1.03011 h -0.1651 V 86.056442 H 9.8005094 v 0.457199 z"
       id="text20"
       style="font-weight:600;font-size:1.41111px;font-family:'JetBrains Mono';-inkscape-font-specification:'JetBrains Mono Semi-Bold';fill:#b3b3b3;stroke-width:0.264583"
       inkscape:label="cv-pitch"
       aria-label="PITCH" /><path
       d="m 50.481383,86.513649 0.261055,-1.03011 h 0.214489 l 0.261055,1.03011 h -0.166511 l -0.06068,-0.255411 h -0.282222 l -0.05927,0.255411 z m 0.256822,-0.390877 h 0.221544 l -0.06491,-0.286456 q -0.01693,-0.07338 -0.02963,-0.131233 -0.01129,-0.05786 -0.01552,-0.08043 -0.0042,0.02258 -0.01552,0.08043 -0.01129,0.05644 -0.02822,0.129822 z m 0.963789,0.404988 q -0.09737,0 -0.170745,-0.03669 -0.07197,-0.03669 -0.111477,-0.104422 -0.03951,-0.06914 -0.03951,-0.160866 v -0.454378 q 0,-0.09313 0.03951,-0.160866 0.03951,-0.06773 0.111477,-0.104423 0.07338,-0.03669 0.170745,-0.03669 0.09878,0 0.169333,0.0381 0.07197,0.03669 0.111478,0.104422 0.03951,0.06632 0.03951,0.159455 h -0.163689 q 0,-0.0762 -0.04092,-0.115711 -0.04092,-0.04092 -0.115711,-0.04092 -0.07479,0 -0.117122,0.04092 -0.04092,0.03951 -0.04092,0.115711 v 0.454378 q 0,0.07479 0.04092,0.115711 0.04233,0.04092 0.117122,0.04092 0.07479,0 0.115711,-0.04092 0.04092,-0.04092 0.04092,-0.115711 h 0.163689 q 0,0.09031 -0.03951,0.159455 -0.03951,0.06773 -0.111478,0.105833 -0.07056,0.03669 -0.169333,0.03669 z m 0.846666,0 q -0.09737,0 -0.170744,-0.03669 -0.07197,-0.03669 -0.111478,-0.104422 -0.03951,-0.06914 -0.03951,-0.160866 v -0.454378 q 0,-0.09313 0.03951,-0.160866 0.03951,-0.06773 0.111478,-0.104423 0.07338,-0.03669 0.170744,-0.03669 0.09878,0 0.169333,0.0381 0.07197,0.03669 0.111478,0.104422 0.03951,0.06632 0.03951,0.159455 h -0.163689 q 0,-0.0762 -0.04092,-0.115711 -0.04092,-0.04092 -0.115711,-0.04092 -0.07479,0 -0.117122,0.04092 -0.04092,0.03951 -0.04092,0.115711 v 0.454378 q 0,0.07479 0.04092,0.115711 0.04233,0.04092 0.117122,0.04092 0.07479,0 0.115711,-0.04092 0.04092,-0.04092 0.04092,-0.115711 h 0.163689 q 0,0.09031 -0.03951,0.159455 -0.03951,0.06773 -0.111478,0.105833 -0.07055,0.03669 -0.169333,0.03669 z m 0.5461,-0.01411 v -1.03011 h 0.611011 v 0.143933 h -0.448733 v 0.280811 h 0.399344 v 0.143933 h -0.399344 v 0.3175 h 0.448733 v 0.143933 z m 0.826911,0 v -1.03011 h 0.2032 l 0.293511,0.843843 q -0.0028,-0.04233 -0.0085,-0.100188 -0.0042,-0.05927 -0.0071,-0.121356 -0.0028,-0.0635 -0.0028,-0.112889 v -0.50941 h 0.150988 v 1.03011 h -0.203199 l -0.2921,-0.843844 q 0.0042,0.0381 0.0071,0.09454 0.0042,0.05644 0.0071,0.117122 0.0028,0.05927 0.0028,0.110066 v 0.522111 z m 1.0795,0 v -0.879122 h -0.273755 v -0.152399 h 0.711199 v 0.152399 H 55.16486 v 0.879122 z"
       id="text21"
       style="font-weight:600;font-size:1.41111px;font-family:'JetBrains Mono';-inkscape-font-specification:'JetBrains Mono Semi-Bold';fill:#b3b3b3;stroke-width:0.264583"
       inkscape:label="cv-accent"
       aria-label="ACCENT" /><path
       style="font-size:8px;font-family:'JetBrains Mono';-inkscape-font-specification:'JetBrains Mono';white-space:pre;fill:#b3b3b3"
       d="m 85.351453,473.87322 -1.472,-4.4 h 0.736 l 0.976,2.96 q 0.088,0.264 0.16,0.512 0.072,0.24 0.104,0.376 0.04,-0.136 0.112,-0.376 0.072,-0.248 0.152,-0.512 l 0.952,-2.96 h 0.728 l -1.472,4.4 z m 5.280003,0.08 q -0.76,0 -1.216,-0.448 -0.456,-0.456 -0.456,-1.232 v -2.8 h 0.72 v 2.8 q 0,0.496 0.256,0.776 0.256,0.272 0.696,0.272 0.448,0 0.704,-0.272 0.264,-0.28 0.264,-0.776 v -2.8 h 0.72 v 2.8 q 0,0.776 -0.464,1.232 -0.464,0.448 -1.224,0.448 z m 5.408003,-0.08 q -0.384,0 -0.672,-0.152 -0.288,-0.152 -0.448,-0.432 -0.16,-0.28 -0.16,-0.656 v -3.944 h -1.48 v -0.656 h 2.2 v 4.6 q 0,0.272 0.152,0.432 0.152,0.152 0.408,0.152 h 1.4 v 0.656 z m 2.536003,1.44 v -5.84 h 0.72 v 0.84 h 0.144 l -0.144,0.168 q 0,-0.504 0.328,-0.792 0.336,-0.296 0.879998,-0.296 0.664,0 1.056,0.44 0.4,0.432 0.4,1.192 v 1.288 q 0,0.504 -0.184,0.872 -0.176,0.368 -0.504,0.568 -0.32,0.2 -0.768,0.2 -0.535998,0 -0.871998,-0.296 -0.336,-0.296 -0.336,-0.792 l 0.144,0.168 h -0.16 l 0.016,1 v 1.28 z m 1.687998,-1.984 q 0.456,0 0.712,-0.272 0.264,-0.272 0.264,-0.784 v -1.2 q 0,-0.512 -0.264,-0.784 -0.256,-0.272 -0.712,-0.272 -0.439998,0 -0.703998,0.28 -0.264,0.28 -0.264,0.776 v 1.2 q 0,0.496 0.264,0.776 0.264,0.28 0.703998,0.28 z m 4.77601,0.624 q -0.52,0 -0.912,-0.208 -0.384,-0.208 -0.6,-0.584 -0.208,-0.384 -0.208,-0.888 v -1.2 q 0,-0.512 0.208,-0.888 0.216,-0.376 0.6,-0.584 0.392,-0.208 0.912,-0.208 0.52,0 0.904,0.208 0.392,0.208 0.6,0.584 0.216,0.376 0.216,0.888 v 0.776 h -2.736 v 0.424 q 0,0.52 0.264,0.8 0.264,0.272 0.752,0.272 0.416,0 0.672,-0.144 0.256,-0.152 0.312,-0.448 h 0.72 q -0.072,0.552 -0.544,0.88 -0.464,0.32 -1.16,0.32 z m 1.016,-2.584 v -0.296 q 0,-0.52 -0.264,-0.8 -0.256,-0.28 -0.752,-0.28 -0.488,0 -0.752,0.28 -0.264,0.28 -0.264,0.8 v 0.232 h 2.088 z m 3.648,2.568 q -0.448,0 -0.784,-0.136 -0.328,-0.144 -0.528,-0.4 -0.192,-0.256 -0.232,-0.608 h 0.72 q 0.048,0.232 0.256,0.368 0.216,0.136 0.568,0.136 h 0.336 q 0.424,0 0.632,-0.168 0.208,-0.176 0.208,-0.464 0,-0.28 -0.192,-0.44 -0.184,-0.168 -0.552,-0.224 l -0.592,-0.096 q -0.648,-0.112 -0.968,-0.4 -0.312,-0.296 -0.312,-0.856 0,-0.592 0.376,-0.912 0.376,-0.328 1.128,-0.328 h 0.304 q 0.632,0 1.016,0.296 0.384,0.296 0.464,0.8 h -0.72 q -0.048,-0.208 -0.24,-0.328 -0.192,-0.128 -0.52,-0.128 h -0.304 q -0.408,0 -0.6,0.152 -0.184,0.152 -0.184,0.456 0,0.272 0.16,0.4 0.16,0.128 0.504,0.184 l 0.592,0.096 q 0.712,0.112 1.032,0.416 0.328,0.304 0.328,0.88 0,0.608 -0.392,0.96 -0.384,0.344 -1.168,0.344 z m 4.016,-0.064 2.088,-5.184 h -2.208 v 0.864 h -0.72 v -1.52 h 3.64 v 0.704 l -2.024,5.136 z m 4.816,0 1.656,-2.656 -0.032,-0.024 q -0.152,0.224 -0.416,0.344 -0.264,0.12 -0.592,0.12 -0.472,0 -0.832,-0.224 -0.352,-0.224 -0.544,-0.632 -0.192,-0.416 -0.192,-0.968 0,-0.568 0.232,-0.984 0.232,-0.424 0.648,-0.656 0.416,-0.24 0.968,-0.24 0.56,0 0.976,0.24 0.424,0.232 0.656,0.656 0.232,0.416 0.232,0.984 0,0.44 -0.128,0.864 -0.12,0.424 -0.368,0.816 l -1.464,2.36 z m 0.904,-2.8 q 0.512,0 0.824,-0.336 0.312,-0.344 0.312,-0.904 0,-0.56 -0.312,-0.896 -0.312,-0.344 -0.824,-0.344 -0.512,0 -0.824,0.344 -0.312,0.336 -0.312,0.896 0,0.56 0.312,0.904 0.312,0.336 0.824,0.336 z"
       id="text23"
       inkscape:label="brand"
       transform="matrix(0.26458333,0,0,0.26458333,3.4570681,1.8373773)"
       aria-label="vulpes79" /><path
       d="m 38.496872,112.44463 q -0.121709,0 -0.211667,-0.0459 -0.08819,-0.0459 -0.13582,-0.13052 -0.04763,-0.0864 -0.04763,-0.20109 v -0.56797 q 0,-0.11642 0.04763,-0.20108 0.04762,-0.0847 0.13582,-0.13053 0.08996,-0.0459 0.211667,-0.0459 0.123472,0 0.211667,0.0459 0.08819,0.0459 0.135819,0.13053 0.04763,0.0847 0.04763,0.20108 v 0.56797 q 0,0.11466 -0.04763,0.20109 -0.04762,0.0847 -0.135819,0.13052 -0.08819,0.0459 -0.211667,0.0459 z m 0,-0.18169 q 0.09349,0 0.141111,-0.0512 0.04939,-0.0511 0.04939,-0.14464 v -0.56797 q 0,-0.0952 -0.04939,-0.14464 -0.04762,-0.0512 -0.141111,-0.0512 -0.09349,0 -0.142875,0.0512 -0.04762,0.0494 -0.04762,0.14464 v 0.56797 q 0,0.0935 0.04939,0.14464 0.04939,0.0512 0.141111,0.0512 z m 1.058334,0.18169 q -0.186972,0 -0.291041,-0.10231 -0.102306,-0.10231 -0.102306,-0.27869 v -0.92428 h 0.204611 v 0.92251 q 0,0.0953 0.04763,0.14993 0.04762,0.0529 0.141111,0.0529 0.09172,0 0.139348,-0.0529 0.04939,-0.0547 0.04939,-0.14993 v -0.92251 h 0.204611 v 0.92428 q 0,0.17638 -0.102306,0.27869 -0.102305,0.10231 -0.291042,0.10231 z m 0.95603,-0.0176 v -1.09891 h -0.342195 v -0.1905 h 0.889 v 0.1905 h -0.342194 v 1.09891 z m 1.830919,0 v -1.28764 h 0.405695 q 0.125236,0 0.216958,0.0476 0.09349,0.0459 0.144639,0.13229 0.05115,0.0847 0.05115,0.19932 0,0.12877 -0.06526,0.22578 -0.06526,0.0952 -0.176389,0.13406 l 0.259292,0.54857 h -0.23107 l -0.23107,-0.52035 h -0.169333 v 0.52035 z m 0.204611,-0.70203 h 0.201084 q 0.09349,0 0.148166,-0.0529 0.05644,-0.0547 0.05644,-0.14816 0,-0.0935 -0.05644,-0.14817 -0.05468,-0.0547 -0.148166,-0.0547 h -0.201084 z"
       id="text24"
       style="font-weight:600;font-size:1.76389px;font-family:'JetBrains Mono';-inkscape-font-specification:'JetBrains Mono Semi-Bold';fill:#b3b3b3;stroke-width:0.264583"
       inkscape:label="out-r"
       aria-label="OUT R" /><path
       d="m 18.191866,112.44463 q -0.121709,0 -0.211667,-0.0459 -0.08819,-0.0459 -0.13582,-0.13052 -0.04763,-0.0864 -0.04763,-0.20109 v -0.56797 q 0,-0.11642 0.04763,-0.20108 0.04763,-0.0847 0.13582,-0.13053 0.08996,-0.0459 0.211667,-0.0459 0.123472,0 0.211667,0.0459 0.08819,0.0459 0.135819,0.13053 0.04763,0.0847 0.04763,0.20108 v 0.56797 q 0,0.11466 -0.04763,0.20109 -0.04763,0.0847 -0.135819,0.13052 -0.08819,0.0459 -0.211667,0.0459 z m 0,-0.18169 q 0.09349,0 0.141111,-0.0512 0.04939,-0.0511 0.04939,-0.14464 v -0.56797 q 0,-0.0952 -0.04939,-0.14464 -0.04763,-0.0512 -0.141111,-0.0512 -0.09349,0 -0.142875,0.0512 -0.04763,0.0494 -0.04763,0.14464 v 0.56797 q 0,0.0935 0.04939,0.14464 0.04939,0.0512 0.141111,0.0512 z m 1.058334,0.18169 q -0.186972,0 -0.291041,-0.10231 -0.102306,-0.10231 -0.102306,-0.27869 v -0.92428 h 0.204611 v 0.92251 q 0,0.0953 0.04763,0.14993 0.04763,0.0529 0.141111,0.0529 0.09172,0 0.139348,-0.0529 0.04939,-0.0547 0.04939,-0.14993 v -0.92251 h 0.204611 v 0.92428 q 0,0.17638 -0.102306,0.27869 -0.102305,0.10231 -0.291042,0.10231 z m 0.95603,-0.0176 v -1.09891 h -0.342195 v -0.1905 h 0.889 v 0.1905 h -0.342194 v 1.09891 z m 1.87678,0 v -1.28764 h 0.206375 v 1.09714 h 0.553862 v 0.1905 z"
       id="text25"
       style="font-weight:600;font-size:1.76389px;font-family:'JetBrains Mono';-inkscape-font-specification:'JetBrains Mono Semi-Bold';fill:#b3b3b3;stroke-width:0.264583"
       inkscape:label="out-l"
       aria-label="OUT L" /><path
       style="font-weight:bold;font-size:2.11667px;font-family:'JetBrains Mono';-inkscape-font-specification:'JetBrains Mono Bold';fill:#1a1a1a;stroke-width:0.264583"
       d="m 42.071919,42.243636 v -1.545169 h 0.927101 v 0.230717 h -0.666751 v 0.402167 h 0.592668 v 0.2286 h -0.592668 v 0.452968 h 0.666751 v 0.230717 z m 1.236136,0 v -1.545169 h 0.32385 l 0.429684,1.248835 q -0.0063,-0.06773 -0.01482,-0.15875 -0.0063,-0.09313 -0.01058,-0.188384 -0.0042,-0.09737 -0.0042,-0.169333 v -0.732368 h 0.2413 v 1.545169 h -0.32385 l -0.425451,-1.248835 q 0.0042,0.06138 0.01058,0.148166 0.0063,0.08678 0.01058,0.177801 0.0042,0.09102 0.0042,0.167217 v 0.755651 z m 1.581153,0 -0.389467,-1.545169 h 0.275167 l 0.232833,1.007535 q 0.01905,0.07408 0.03598,0.15875 0.01693,0.08467 0.0254,0.137583 0.0085,-0.05292 0.02328,-0.137583 0.01482,-0.08467 0.03175,-0.160867 l 0.230717,-1.005418 h 0.266701 l -0.389468,1.545169 z m 0.924985,0 v -1.545169 h 0.313267 l 0.150284,0.491067 q 0.02328,0.07408 0.0381,0.135467 0.01482,0.06138 0.01905,0.0889 0.0042,-0.02752 0.01905,-0.0889 0.01482,-0.06138 0.03598,-0.135467 l 0.143934,-0.491067 h 0.313267 v 1.545169 h -0.24765 v -0.480484 q 0,-0.105834 0.0063,-0.230717 0.0064,-0.124884 0.01482,-0.249767 0.0085,-0.124884 0.01905,-0.237067 0.0127,-0.112184 0.02117,-0.196851 l -0.207433,0.730251 H 46.212081 L 45.998297,40.84875 q 0.01058,0.08043 0.02117,0.190501 0.01058,0.10795 0.01905,0.232833 0.01058,0.122767 0.01693,0.249767 0.0064,0.127001 0.0064,0.241301 v 0.480484 z m 1.78647,0.02117 q -0.148166,0 -0.258233,-0.05503 -0.10795,-0.05715 -0.167217,-0.15875 -0.05715,-0.103717 -0.05715,-0.243417 v -0.673101 q 0,-0.1397 0.05715,-0.241301 0.05927,-0.103716 0.167217,-0.15875 0.110067,-0.05715 0.258233,-0.05715 0.150284,0 0.258234,0.05715 0.10795,0.05503 0.1651,0.15875 0.05927,0.101601 0.05927,0.239184 v 0.675215 q 0,0.1397 -0.05927,0.243417 -0.05715,0.1016 -0.1651,0.15875 -0.10795,0.05503 -0.258234,0.05503 z m 0,-0.232833 q 0.107951,0 0.162984,-0.05715 0.05503,-0.05927 0.05503,-0.167217 v -0.673101 q 0,-0.110067 -0.05503,-0.167217 -0.05503,-0.05715 -0.162984,-0.05715 -0.10795,0 -0.162983,0.05715 -0.05503,0.05715 -0.05503,0.167217 v 0.673101 q 0,0.10795 0.05503,0.167217 0.05715,0.05715 0.162983,0.05715 z m 0.793753,0.211667 v -1.545169 h 0.459317 q 0.156634,0 0.270934,0.05927 0.116417,0.05927 0.179917,0.167216 0.0635,0.107951 0.0635,0.256117 v 0.577851 q 0,0.146051 -0.0635,0.256117 -0.0635,0.107951 -0.179917,0.169334 -0.1143,0.05927 -0.270934,0.05927 z m 0.264583,-0.243417 h 0.194734 q 0.1143,0 0.182034,-0.0635 0.06773,-0.06562 0.06773,-0.177801 v -0.577851 q 0,-0.110066 -0.06773,-0.173566 -0.06773,-0.06562 -0.182034,-0.06562 h -0.194734 z"
       id="text26"
       inkscape:label="envmod"
       aria-label="ENVMOD" /><path
       style="font-weight:bold;font-size:2.11667px;font-family:'JetBrains Mono';-inkscape-font-specification:'JetBrains Mono Bold';fill:#1a1a1a;stroke-width:0.264583"
       d="M 12.168707,42.378839 V 40.83367 h 0.459317 q 0.156634,0 0.270934,0.05927 0.116417,0.05927 0.179917,0.167216 0.0635,0.107951 0.0635,0.256117 v 0.577851 q 0,0.146051 -0.0635,0.256117 -0.0635,0.107951 -0.179917,0.169334 -0.1143,0.05927 -0.270934,0.05927 z m 0.264583,-0.243417 h 0.194734 q 0.1143,0 0.182034,-0.0635 0.06773,-0.06562 0.06773,-0.177801 V 41.31627 q 0,-0.110066 -0.06773,-0.173566 -0.06773,-0.06562 -0.182034,-0.06562 H 12.43329 Z m 1.032936,0.243417 V 40.83367 h 0.927102 v 0.230717 h -0.666751 v 0.402167 h 0.592667 v 0.2286 h -0.592667 v 0.452968 h 0.666751 v 0.230717 z m 1.727204,0.02117 q -0.148167,0 -0.260351,-0.05503 -0.110067,-0.05715 -0.17145,-0.15875 -0.05927,-0.103717 -0.05927,-0.243417 v -0.673101 q 0,-0.141817 0.05927,-0.243417 0.06138,-0.1016 0.17145,-0.156634 0.112184,-0.05715 0.260351,-0.05715 0.150283,0 0.258233,0.05715 0.110067,0.05503 0.171451,0.156634 0.06138,0.1016 0.06138,0.243417 h -0.2667 q 0,-0.110067 -0.05927,-0.167217 -0.05715,-0.05715 -0.1651,-0.05715 -0.107951,0 -0.167217,0.05715 -0.05927,0.05715 -0.05927,0.1651 v 0.675215 q 0,0.10795 0.05927,0.167217 0.05927,0.05715 0.167217,0.05715 0.10795,0 0.1651,-0.05715 0.05927,-0.05927 0.05927,-0.167217 h 0.2667 q 0,0.137583 -0.06138,0.2413 -0.06138,0.103717 -0.171451,0.160867 -0.10795,0.05503 -0.258233,0.05503 z m 0.700618,-0.02117 0.389467,-1.545169 h 0.340784 l 0.391584,1.545169 h -0.270934 l -0.08467,-0.374651 h -0.410634 l -0.08467,0.374651 z m 0.404284,-0.590551 h 0.313267 l -0.09313,-0.414867 q -0.02328,-0.103717 -0.04022,-0.186267 -0.01693,-0.08467 -0.02328,-0.122767 -0.0063,0.0381 -0.02328,0.122767 -0.01482,0.08255 -0.04022,0.18415 z m 1.293286,0.590551 v -0.560918 l -0.452967,-0.984251 h 0.277284 l 0.2413,0.535517 q 0.02752,0.0635 0.04657,0.124884 0.01905,0.06138 0.0254,0.09525 0.0085,-0.03387 0.0254,-0.09525 0.01905,-0.06138 0.04657,-0.124884 l 0.234951,-0.535517 h 0.275167 l -0.452967,0.984251 v 0.560918 z"
       id="text27"
       inkscape:label="decay"
       aria-label="DECAY" /><path
       style="font-weight:bold;font-size:2.11667px;font-family:'JetBrains Mono';-inkscape-font-specification:'JetBrains Mono Bold';fill:#1a1a1a;stroke-width:0.264583"
       d="m 9.5975784,72.421165 v -1.545169 h 0.3132672 l 0.1502834,0.491068 q 0.02328,0.07408 0.0381,0.135467 0.01482,0.06138 0.01905,0.0889 0.0042,-0.02752 0.01905,-0.0889 0.01482,-0.06138 0.03598,-0.135467 l 0.143933,-0.491068 h 0.313267 v 1.545169 h -0.24765 v -0.480484 q 0,-0.105833 0.0063,-0.230717 0.0063,-0.124883 0.01482,-0.249767 0.0085,-0.124883 0.01905,-0.237067 0.0127,-0.112183 0.02117,-0.19685 l -0.207433,0.730251 H 9.9955124 L 9.7817287,71.02628 q 0.010583,0.08043 0.021167,0.1905 0.010583,0.10795 0.01905,0.232834 0.010583,0.122767 0.016933,0.249767 0.00635,0.127 0.00635,0.2413 v 0.480484 z m 1.7864706,0.02117 q -0.148167,0 -0.258234,-0.05503 -0.10795,-0.05715 -0.167217,-0.15875 -0.05715,-0.103717 -0.05715,-0.243418 V 71.31203 q 0,-0.1397 0.05715,-0.2413 0.05927,-0.103717 0.167217,-0.15875 0.110067,-0.05715 0.258234,-0.05715 0.150283,0 0.258233,0.05715 0.10795,0.05503 0.165101,0.15875 0.05927,0.1016 0.05927,0.239184 v 0.675217 q 0,0.139701 -0.05927,0.243418 -0.05715,0.1016 -0.165101,0.15875 -0.10795,0.05503 -0.258233,0.05503 z m 0,-0.232834 q 0.10795,0 0.162983,-0.05715 0.05503,-0.05927 0.05503,-0.167217 V 71.31203 q 0,-0.110066 -0.05503,-0.167216 -0.05503,-0.05715 -0.162983,-0.05715 -0.107951,0 -0.162984,0.05715 -0.05503,0.05715 -0.05503,0.167216 v 0.673101 q 0,0.107951 0.05503,0.167217 0.05715,0.05715 0.162984,0.05715 z m 0.793752,0.211667 v -1.545169 h 0.459317 q 0.156634,0 0.270934,0.05927 0.116417,0.05927 0.179917,0.167217 0.0635,0.10795 0.0635,0.256117 v 0.577851 q 0,0.14605 -0.0635,0.256117 -0.0635,0.10795 -0.179917,0.169334 -0.1143,0.05927 -0.270934,0.05927 z m 0.264583,-0.243417 h 0.194734 q 0.1143,0 0.182034,-0.0635 0.06773,-0.06562 0.06773,-0.1778 v -0.577851 q 0,-0.110067 -0.06773,-0.173567 -0.06773,-0.06562 -0.182034,-0.06562 h -0.194734 z m 1.032936,0.243417 v -1.545169 h 0.927101 v 0.230717 H 13.73567 v 0.402168 h 0.592668 v 0.2286 H 13.73567 v 0.452967 h 0.666751 v 0.230717 z"
       id="text28"
       inkscape:label="mode"
       aria-label="MODE"
       transform="translate(0,-2)" /><path
       style="font-weight:bold;font-size:2.11667px;font-family:'JetBrains Mono';-inkscape-font-specification:'JetBrains Mono Bold';fill:#1a1a1a;stroke-width:0.264583"
       d="m 26.726929,72.421165 0.389467,-1.545169 h 0.340784 l 0.391584,1.545169 H 27.57783 l -0.08467,-0.37465 h -0.410634 l -0.08467,0.37465 z m 0.404284,-0.59055 h 0.313267 l -0.09313,-0.414868 q -0.02328,-0.103717 -0.04022,-0.186267 -0.01693,-0.08467 -0.02328,-0.122767 -0.0063,0.0381 -0.02328,0.122767 -0.01482,0.08255 -0.04022,0.184151 z m 1.435103,0.611717 q -0.148167,0 -0.260351,-0.05503 -0.110066,-0.05715 -0.17145,-0.15875 -0.05927,-0.103717 -0.05927,-0.243418 V 71.31203 q 0,-0.141816 0.05927,-0.243417 0.06138,-0.1016 0.17145,-0.156633 0.112184,-0.05715 0.260351,-0.05715 0.150283,0 0.258233,0.05715 0.110067,0.05503 0.171451,0.156633 0.06138,0.101601 0.06138,0.243417 h -0.2667 q 0,-0.110066 -0.05927,-0.167216 -0.05715,-0.05715 -0.1651,-0.05715 -0.10795,0 -0.167217,0.05715 -0.05927,0.05715 -0.05927,0.1651 v 0.675217 q 0,0.107951 0.05927,0.167217 0.05927,0.05715 0.167217,0.05715 0.10795,0 0.1651,-0.05715 0.05927,-0.05927 0.05927,-0.167217 h 0.2667 q 0,0.137584 -0.06138,0.241301 -0.06138,0.103717 -0.171451,0.160867 -0.10795,0.05503 -0.258233,0.05503 z m 1.270002,0 q -0.148166,0 -0.26035,-0.05503 -0.110067,-0.05715 -0.17145,-0.15875 -0.05927,-0.103717 -0.05927,-0.243418 V 71.31203 q 0,-0.141816 0.05927,-0.243417 0.06138,-0.1016 0.17145,-0.156633 0.112184,-0.05715 0.26035,-0.05715 0.150284,0 0.258234,0.05715 0.110067,0.05503 0.17145,0.156633 0.06138,0.101601 0.06138,0.243417 h -0.266701 q 0,-0.110066 -0.05927,-0.167216 -0.05715,-0.05715 -0.165101,-0.05715 -0.10795,0 -0.167216,0.05715 -0.05927,0.05715 -0.05927,0.1651 v 0.675217 q 0,0.107951 0.05927,0.167217 0.05927,0.05715 0.167216,0.05715 0.107951,0 0.165101,-0.05715 0.05927,-0.05927 0.05927,-0.167217 h 0.266701 q 0,0.137584 -0.06138,0.241301 -0.06138,0.103717 -0.17145,0.160867 -0.10795,0.05503 -0.258234,0.05503 z m 0.812802,-0.02117 v -1.545169 h 0.927102 v 0.230717 h -0.666751 v 0.402168 h 0.592667 v 0.2286 h -0.592667 v 0.452967 h 0.666751 v 0.230717 z m 1.236137,0 v -1.545169 h 0.32385 l 0.429684,1.248836 q -0.0063,-0.06773 -0.01482,-0.158751 -0.0063,-0.09313 -0.01058,-0.188383 -0.0042,-0.09737 -0.0042,-0.169334 v -0.732368 h 0.2413 v 1.545169 h -0.323851 l -0.42545,-1.248835 q 0.0042,0.06138 0.01058,0.148167 0.0064,0.08678 0.01058,0.1778 0.0042,0.09102 0.0042,0.167217 v 0.755651 z m 1.619253,0 V 71.12153 h -0.404284 v -0.245534 h 1.075268 V 71.12153 H 33.77121 v 1.299635 z"
       id="text29"
       inkscape:label="accent"
       aria-label="ACCENT"
       transform="translate(0,-2)" /><path
       style="font-weight:bold;font-size:2.11667px;font-family:'JetBrains Mono';-inkscape-font-specification:'JetBrains Mono Bold';fill:#1a1a1a;stroke-width:0.264583"
       d="m 46.991067,72.442332 q -0.148167,0 -0.260351,-0.05503 -0.110067,-0.05715 -0.17145,-0.15875 -0.05927,-0.103717 -0.05927,-0.243418 V 71.31203 q 0,-0.141816 0.05927,-0.243417 0.06138,-0.1016 0.17145,-0.156633 0.112184,-0.05715 0.260351,-0.05715 0.150283,0 0.258233,0.05715 0.110067,0.05503 0.171451,0.156633 0.06138,0.101601 0.06138,0.243417 h -0.2667 q 0,-0.110066 -0.05927,-0.167216 -0.05715,-0.05715 -0.1651,-0.05715 -0.10795,0 -0.167217,0.05715 -0.05927,0.05715 -0.05927,0.1651 v 0.675217 q 0,0.107951 0.05927,0.167217 0.05927,0.05927 0.167217,0.05927 0.10795,0 0.1651,-0.05927 0.05927,-0.05927 0.05927,-0.167217 v -0.156633 h -0.262467 v -0.2286 h 0.529167 v 0.385233 q 0,0.139701 -0.06138,0.243418 -0.06138,0.1016 -0.171451,0.15875 -0.10795,0.05503 -0.258233,0.05503 z m 0.700618,-0.02117 0.389467,-1.545169 h 0.340784 l 0.391584,1.545169 h -0.270934 l -0.08467,-0.37465 h -0.410634 l -0.08467,0.37465 z m 0.404284,-0.59055 h 0.313267 l -0.09313,-0.414868 q -0.02328,-0.103717 -0.04022,-0.186267 -0.01693,-0.08467 -0.02328,-0.122767 -0.0063,0.0381 -0.02328,0.122767 -0.01482,0.08255 -0.04022,0.184151 z m 1.293286,0.59055 V 71.12153 h -0.404284 v -0.245534 h 1.075269 v 0.245534 h -0.404284 v 1.299635 z m 0.954619,0 v -1.545169 h 0.927101 v 0.230717 h -0.666751 v 0.402168 h 0.592668 v 0.2286 h -0.592668 v 0.452967 h 0.666751 v 0.230717 z"
       id="text30"
       inkscape:label="gate"
       aria-label="GATE"
       transform="translate(0,-2)" /><path
       style="font-weight:bold;font-size:2.11667px;font-family:'JetBrains Mono';-inkscape-font-specification:'JetBrains Mono Bold';fill:#1a1a1a;stroke-width:0.264583"
       d="M 9.7139936,58.400002 9.5552433,56.854833 h 0.2286004 l 0.093134,1.079501 q 0.00423,0.03598 0.00635,0.0889 0.00423,0.0508 0.00635,0.103717 0.00423,0.05292 0.00423,0.09313 0.00423,-0.04022 0.00847,-0.09313 0.00423,-0.05292 0.00847,-0.103717 0.00635,-0.05292 0.010583,-0.0889 l 0.1269998,-1.079501 h 0.222251 l 0.118533,1.079501 q 0.0064,0.03598 0.01058,0.0889 0.0064,0.0508 0.0127,0.103717 0.0063,0.05292 0.01058,0.09313 0.0021,-0.04022 0.0042,-0.09313 0.0021,-0.05292 0.0042,-0.103717 0.0042,-0.05292 0.0085,-0.0889 l 0.09102,-1.079501 h 0.226484 l -0.167217,1.545169 h -0.292101 l -0.1143,-1.083735 q -0.0042,-0.04022 -0.01058,-0.09313 -0.0042,-0.05503 -0.0085,-0.10795 -0.0042,-0.05503 -0.0064,-0.09313 -0.0021,0.0381 -0.0085,0.09313 -0.0042,0.05292 -0.0085,0.10795 -0.0042,0.05292 -0.0085,0.09313 l -0.124883,1.083735 z m 1.1514694,0 0.389467,-1.545169 h 0.340784 l 0.391584,1.545169 h -0.270934 l -0.08467,-0.374651 h -0.410634 l -0.08467,0.374651 z m 0.404284,-0.590551 h 0.313267 l -0.09313,-0.414868 q -0.02328,-0.103716 -0.04022,-0.186267 -0.01693,-0.08467 -0.02328,-0.122766 -0.0063,0.0381 -0.02328,0.122766 -0.01482,0.08255 -0.04022,0.184151 z m 1.255186,0.590551 -0.389467,-1.545169 h 0.275167 l 0.232833,1.007534 q 0.01905,0.07408 0.03598,0.158751 0.01693,0.08467 0.0254,0.137583 0.0085,-0.05292 0.02328,-0.137583 0.01482,-0.08467 0.03175,-0.160867 L 12.9906,56.854833 h 0.266701 l -0.389468,1.545169 z m 0.992719,0 v -1.545169 h 0.927101 v 0.230717 h -0.666751 v 0.402167 h 0.592668 v 0.2286 h -0.592668 v 0.452968 h 0.666751 v 0.230717 z"
       id="text31"
       inkscape:label="wave"
       aria-label="WAVE"
       transform="translate(0,-2)" /><path
       style="font-weight:bold;font-size:2.11667px;font-family:'JetBrains Mono';-inkscape-font-specification:'JetBrains Mono Bold';fill:#1a1a1a;stroke-width:0.264583"
       d="m 47.195755,17.698835 v -1.545169 h 0.488951 q 0.154517,0 0.266701,0.05715 0.1143,0.05715 0.1778,0.160867 0.0635,0.1016 0.0635,0.2413 0,0.1524 -0.07832,0.268817 -0.0762,0.116417 -0.207433,0.1651 l 0.306917,0.651935 H 47.917537 L 47.64872,17.085 h -0.188384 v 0.613835 z m 0.264584,-0.846668 h 0.224367 q 0.112184,0 0.175684,-0.06138 0.0635,-0.06138 0.0635,-0.169333 0,-0.110067 -0.0635,-0.171451 -0.0635,-0.0635 -0.175684,-0.0635 h -0.224367 z m 1.030819,0.846668 v -1.545169 h 0.927102 v 0.230717 h -0.666751 v 0.402167 h 0.592667 v 0.2286 h -0.592667 v 0.452968 h 0.666751 v 0.230717 z m 1.72297,0.02117 q -0.15875,0 -0.275167,-0.05292 -0.116417,-0.05292 -0.179917,-0.150284 -0.06138,-0.09948 -0.0635,-0.232834 h 0.264584 q 0,0.09525 0.06773,0.150284 0.06985,0.05292 0.188384,0.05292 0.1143,0 0.1778,-0.05292 0.06562,-0.05292 0.06562,-0.14605 0,-0.07832 -0.04657,-0.135467 -0.04445,-0.05927 -0.129117,-0.08043 l -0.1778,-0.04868 q -0.182033,-0.04657 -0.281517,-0.167217 -0.09737,-0.12065 -0.09737,-0.2921 0,-0.131234 0.05927,-0.228601 0.05927,-0.09737 0.167217,-0.150283 0.11007,-0.05292 0.258237,-0.05292 0.224367,0 0.3556,0.116417 0.131234,0.1143 0.13335,0.309034 h -0.264583 q 0,-0.09102 -0.05927,-0.141817 -0.05927,-0.05292 -0.167217,-0.05292 -0.103717,0 -0.160867,0.04868 -0.05715,0.04868 -0.05715,0.137584 0,0.08043 0.04233,0.137583 0.04445,0.05503 0.127001,0.07832 l 0.18415,0.0508 q 0.18415,0.04657 0.281517,0.167217 0.09737,0.118534 0.09737,0.294217 0,0.131234 -0.0635,0.232834 -0.0635,0.09948 -0.177801,0.154517 -0.1143,0.05503 -0.268817,0.05503 z"
       id="text32"
       inkscape:label="res"
       aria-label="RES" /><path
       style="font-weight:bold;font-size:2.11667px;font-family:'JetBrains Mono';-inkscape-font-specification:'JetBrains Mono Bold';fill:#1a1a1a;stroke-width:0.264583"
       d="m 9.9912792,18.045168 v -1.299635 h -0.404284 v -0.245534 h 1.0752688 v 0.245534 H 10.25798 v 1.299635 z m 1.4033528,0.02117 q -0.226483,0 -0.3556,-0.122767 -0.127,-0.124884 -0.127,-0.338667 v -1.104902 h 0.2667 v 1.102785 q 0,0.110067 0.05503,0.17145 0.05503,0.06138 0.160867,0.06138 0.103717,0 0.158751,-0.06138 0.05715,-0.06138 0.05715,-0.17145 v -1.102785 h 0.2667 v 1.104902 q 0,0.213783 -0.127,0.338667 -0.127,0.122767 -0.355601,0.122767 z m 0.787402,-0.02117 v -1.545169 h 0.323851 l 0.429684,1.248835 q -0.0063,-0.06773 -0.01482,-0.15875 -0.0063,-0.09313 -0.01058,-0.188384 -0.0042,-0.09737 -0.0042,-0.169333 v -0.732368 h 0.241301 v 1.545169 h -0.323851 l -0.42545,-1.248835 q 0.0042,0.06138 0.01058,0.148167 0.0063,0.08678 0.01058,0.1778 0.0042,0.09102 0.0042,0.167217 v 0.755651 z m 1.30387,0 v -1.545169 h 0.927101 v 0.230717 h -0.666751 v 0.402167 h 0.592668 v 0.228601 h -0.592668 v 0.452967 h 0.666751 v 0.230717 z"
       id="text33"
       inkscape:label="tune"
       aria-label="TUNE" /><path
       style="font-weight:bold;font-size:2.11667px;font-family:'JetBrains Mono';-inkscape-font-specification:'JetBrains Mono Bold';fill:#1a1a1a;stroke-width:0.505999"
       d="m 24.677703,28.234812 q -0.270955,0 -0.476107,-0.11006 -0.20128,-0.1143 -0.313532,-0.317502 -0.108388,-0.207432 -0.108388,-0.486834 v -1.346203 q 0,-0.283634 0.108388,-0.486834 0.112246,-0.2032 0.313532,-0.313266 0.205152,-0.1143 0.476107,-0.1143 0.274824,0 0.472234,0.1143 0.201281,0.11006 0.313534,0.313266 0.112247,0.2032 0.112247,0.486834 H 25.088 q 0,-0.220132 -0.108388,-0.334434 -0.10451,-0.1143 -0.30192,-0.1143 -0.197411,0 -0.305791,0.1143 -0.108388,0.1143 -0.108388,0.330202 v 1.350435 q 0,0.215902 0.108388,0.334434 0.108387,0.1143 0.305791,0.1143 0.19741,0 0.30192,-0.1143 Q 25.088,27.53631 25.088,27.320416 h 0.487718 q 0,0.275168 -0.112247,0.482602 -0.112246,0.207434 -0.313534,0.321734 -0.19741,0.11006 -0.472234,0.11006 z m 2.306986,0 q -0.414174,0 -0.650292,-0.245534 -0.232246,-0.249766 -0.232246,-0.677334 v -2.209805 h 0.487717 v 2.205571 q 0,0.220134 0.100634,0.342902 0.100634,0.12276 0.294179,0.12276 0.189667,0 0.290308,-0.12276 0.104511,-0.12276 0.104511,-0.342902 v -2.205571 h 0.487717 v 2.209805 q 0,0.427568 -0.232246,0.677334 -0.232246,0.245534 -0.65029,0.245534 z m 2.078608,-0.04234 v -2.599271 h -0.739319 v -0.491068 h 1.966357 v 0.491068 h -0.739319 v 2.599271 z m 2.566328,0.04234 q -0.270955,0 -0.472236,-0.11006 -0.197409,-0.1143 -0.305791,-0.317502 -0.104511,-0.207432 -0.104511,-0.486834 v -1.346203 q 0,-0.2794 0.104511,-0.4826 0.108388,-0.207434 0.305791,-0.3175 0.201281,-0.1143 0.472236,-0.1143 0.274826,0 0.472235,0.1143 0.19741,0.11006 0.301921,0.3175 0.108387,0.2032 0.108387,0.478368 v 1.350435 q 0,0.279402 -0.108387,0.486834 -0.104511,0.203202 -0.301921,0.317502 -0.197409,0.11006 -0.472235,0.11006 z m 0,-0.465668 q 0.197409,0 0.298051,-0.1143 0.100634,-0.11854 0.100634,-0.334434 v -1.346203 q 0,-0.220132 -0.100634,-0.334434 -0.100634,-0.1143 -0.298051,-0.1143 -0.197409,0 -0.298051,0.1143 -0.100634,0.1143 -0.100634,0.334434 v 1.346203 q 0,0.215902 0.100634,0.334434 0.104511,0.1143 0.298051,0.1143 z m 1.470897,0.423334 v -3.090339 h 1.757335 v 0.491068 h -1.281228 v 0.825502 h 1.180586 v 0.491067 h -1.172846 v 1.282702 z m 2.322469,0 v -3.090339 h 1.757333 v 0.491068 h -1.281226 v 0.825502 h 1.180587 v 0.491067 h -1.172846 v 1.282702 z"
       id="text34"
       inkscape:label="cutoff"
       aria-label="CUTOFF" /><path
       style="font-weight:bold;font-size:2.11667px;font-family:'JetBrains Mono';-inkscape-font-specification:'JetBrains Mono Bold';fill:#1a1a1a;stroke-width:0.264583"
       d="m 27.962219,58.421168 q -0.15875,0 -0.275167,-0.05292 -0.116417,-0.05292 -0.179917,-0.150283 -0.06138,-0.09948 -0.0635,-0.232834 h 0.264584 q 0,0.09525 0.06773,0.150284 0.06985,0.05292 0.188384,0.05292 0.1143,0 0.1778,-0.05292 0.06562,-0.05292 0.06562,-0.14605 0,-0.07832 -0.04657,-0.135467 -0.04445,-0.05927 -0.129117,-0.08043 l -0.1778,-0.04868 q -0.182034,-0.04657 -0.281517,-0.167217 -0.09737,-0.12065 -0.09737,-0.292101 0,-0.131233 0.05927,-0.2286 0.05927,-0.09737 0.167217,-0.150283 0.110066,-0.05292 0.258233,-0.05292 0.224367,0 0.355601,0.116417 0.131233,0.1143 0.13335,0.309033 h -0.264584 q 0,-0.09102 -0.05927,-0.141816 -0.05927,-0.05292 -0.167217,-0.05292 -0.103717,0 -0.160867,0.04868 -0.05715,0.04868 -0.05715,0.137584 0,0.08043 0.04233,0.137583 0.04445,0.05503 0.127,0.07832 l 0.184151,0.0508 q 0.18415,0.04657 0.281517,0.167217 0.09737,0.118534 0.09737,0.294217 0,0.131234 -0.0635,0.232834 -0.0635,0.09948 -0.1778,0.154517 -0.1143,0.05503 -0.268817,0.05503 z m 0.848785,-0.02117 v -1.545169 h 0.264584 v 1.299635 h 0.656168 v 0.245534 z m 1.242486,0 v -0.232834 h 0.311151 V 57.087666 H 30.05349 v -0.232833 h 0.889002 v 0.232833 h -0.311151 v 1.079502 h 0.311151 v 0.232834 z m 1.238253,0 v -1.545169 h 0.459317 q 0.156634,0 0.270934,0.05927 0.116417,0.05927 0.179917,0.167217 0.0635,0.10795 0.0635,0.256117 v 0.577851 q 0,0.14605 -0.0635,0.256117 -0.0635,0.10795 -0.179917,0.169334 -0.1143,0.05927 -0.270934,0.05927 z m 0.264584,-0.243418 h 0.194733 q 0.114301,0 0.182034,-0.0635 0.06773,-0.06562 0.06773,-0.1778 v -0.577851 q 0,-0.110067 -0.06773,-0.173567 -0.06773,-0.06562 -0.182034,-0.06562 h -0.194733 z m 1.032936,0.243418 v -1.545169 h 0.927101 v 0.230717 h -0.666751 v 0.402167 h 0.592668 v 0.2286 h -0.592668 v 0.452968 h 0.666751 v 0.230717 z"
       id="text35"
       inkscape:label="slide"
       aria-label="SLIDE"
       transform="translate(0,-2)" /><path
       style="font-weight:800;font-size:3.52778px;font-family:'JetBrains Mono';-inkscape-font-specification:'JetBrains Mono Ultra-Bold';fill:#1a1a1a;stroke-width:0.264583"
       d="m 19.005888,6.9522221 0.631473,-2.5752795 h 0.670278 l 0.638528,2.5752795 h -0.53975 L 20.282945,6.3701384 h -0.613834 l -0.123473,0.5820837 z m 0.751417,-1.0054174 h 0.433917 L 20.06775,5.3259155 Q 20.04306,5.1918598 20.01483,5.0613319 19.99014,4.9272763 19.97603,4.8531929 19.96192,4.9272759 19.93722,5.0578042 19.91605,5.188332 19.88783,5.3223877 Z m 2.353031,1.0406952 q -0.261056,0 -0.455084,-0.09525 Q 21.461224,6.793472 21.351863,6.6206107 21.24603,6.4442217 21.24603,6.2113882 V 5.1177764 q 0,-0.2363612 0.105833,-0.4092225 0.109361,-0.1728612 0.303389,-0.2681112 0.194028,-0.098778 0.455084,-0.098778 0.257528,0 0.448028,0.098778 0.194028,0.09525 0.299861,0.2681112 0.109362,0.1728613 0.109362,0.4092225 H 22.43842 q 0,-0.1552223 -0.08819,-0.2363612 -0.08467,-0.081139 -0.243417,-0.081139 -0.15875,0 -0.246944,0.081139 -0.08467,0.081139 -0.08467,0.2363612 v 1.0936118 q 0,0.1516946 0.08467,0.2363613 0.08819,0.081139 0.246944,0.081139 0.15875,0 0.243417,-0.081139 0.08819,-0.084667 0.08819,-0.2363613 h 0.529167 q 0,0.2328335 -0.109362,0.4092225 -0.105833,0.1728613 -0.299861,0.2716391 -0.1905,0.09525 -0.448028,0.09525 z m 1.322919,-0.035278 V 6.4936107 h 0.511528 V 4.835554 H 23.433255 V 4.3769426 h 1.552223 V 4.835554 H 24.47395 v 1.6580567 h 0.511528 v 0.4586114 z m 2.056697,0 V 4.3769426 h 0.836084 q 0.268111,0 0.465667,0.1023056 0.201083,0.1023057 0.310444,0.289278 0.112889,0.1834446 0.112889,0.433917 v 0.9207505 q 0,0.2469447 -0.112889,0.433917 -0.109361,0.1869723 -0.310444,0.2928057 -0.197556,0.1023057 -0.465667,0.1023057 z m 0.529167,-0.4938892 h 0.306917 q 0.162278,0 0.261055,-0.091722 0.09878,-0.091722 0.09878,-0.2434169 V 5.2024432 q 0,-0.1481668 -0.09878,-0.2398891 -0.09878,-0.091722 -0.261055,-0.091722 h -0.306917 z m 3.764144,0.4938892 V 4.3769426 h 1.587501 v 0.4515559 h -1.068917 v 0.5785559 h 0.945445 v 0.4515558 h -0.945445 v 0.642056 h 1.068917 v 0.4515559 z m 2.046113,0 V 4.3769426 h 0.617362 l 0.66675,1.9931958 q -0.01058,-0.1305279 -0.02469,-0.2998614 -0.01411,-0.1728612 -0.0247,-0.3421946 -0.0071,-0.1728612 -0.0071,-0.2928058 v -1.058334 h 0.465713 V 6.9522221 H 32.905349 L 32.245655,4.9590263 q 0.01058,0.112889 0.02117,0.2681113 0.01058,0.1552223 0.01764,0.3139724 0.01058,0.1587501 0.01058,0.2822224 v 1.1288897 z m 2.980976,0.035278 q -0.261055,0 -0.455083,-0.09525 Q 34.161241,6.793472 34.05188,6.6206107 33.946046,6.4442217 33.946046,6.2113882 V 5.1177764 q 0,-0.2363612 0.105834,-0.4092225 0.109361,-0.1728612 0.303389,-0.2681112 0.194028,-0.098778 0.455083,-0.098778 0.257528,0 0.448028,0.098778 0.194028,0.09525 0.299862,0.2681112 0.109361,0.1728613 0.109361,0.4092225 h -0.529167 q 0,-0.1552223 -0.08819,-0.2363612 -0.08467,-0.081139 -0.243417,-0.081139 -0.15875,0 -0.246944,0.081139 -0.08467,0.081139 -0.08467,0.2363612 v 1.0936118 q 0,0.1516946 0.08467,0.2363613 0.08819,0.081139 0.246944,0.081139 0.158751,0 0.243417,-0.081139 0.08819,-0.084667 0.08819,-0.2363613 V 5.9891381 h -0.381 V 5.54111 h 0.910167 v 0.6702782 q 0,0.2328335 -0.109361,0.4092225 -0.105834,0.1728613 -0.299862,0.2716391 -0.1905,0.09525 -0.448028,0.09525 z m 1.322919,-0.035278 V 6.4936107 h 0.511528 V 4.835554 H 36.133271 V 4.3769426 h 1.552224 V 4.835554 h -0.511529 v 1.6580567 h 0.511529 v 0.4586114 z m 2.046113,0 V 4.3769426 h 0.617362 l 0.66675,1.9931958 q -0.01058,-0.1305279 -0.02469,-0.2998614 -0.01411,-0.1728612 -0.0247,-0.3421946 -0.0071,-0.1728612 -0.0071,-0.2928058 v -1.058334 h 0.465667 V 6.9522221 H 39.255357 L 38.595663,4.9590263 q 0.01058,0.112889 0.02117,0.2681113 0.01058,0.1552223 0.01764,0.3139724 0.01058,0.1587501 0.01058,0.2822224 v 1.1288897 z m 2.187227,0 V 4.3769426 h 1.587501 v 0.4515559 h -1.068918 v 0.5785559 h 0.945445 v 0.4515558 h -0.945445 v 0.642056 h 1.068918 v 0.4515559 z"
       id="text36"
       inkscape:label="title"
       aria-label="ACID ENGINE" /></g><path
     d="m 10.592952,9.3334847 h -0.0048 L 2.130162,9.1808327 C 1.9809314,9.1781027 1.8373335,9.0714187 1.7705969,8.8887047 1.6794756,8.6390347 1.7384407,8.3493477 1.9007903,8.1997217 L 3.9555799,6.6854993 c 0.065168,-0.059929 0.1407459,-0.091455 0.218819,-0.091455 H 10.535342 L 12.043119,4.964357 c 0.06795,-0.071251 0.152511,-0.1105849 0.238213,-0.1105849 h 4.727178 c 0.161708,0 0.317142,0.1220044 0.379814,0.3259959 0.07002,0.2280021 0.02232,0.4791362 -0.117074,0.6304217 l -1.471058,1.415545 c -0.0693,0.074764 -0.155576,0.1158557 -0.243346,0.1158557 h -2.915379 c -0.06524,0 -0.128553,0.030552 -0.17939,0.086477 l -1.611875,1.7736523 c -0.07137,0.08501 -0.162492,0.131668 -0.257179,0.131668 z m -8.1467179,-0.730173 7.9936369,0.144356 c 0.09091,0.0017 0.179319,-0.04012 0.250192,-0.1181 l 1.580716,-1.7393938 c 0.07137,-0.084817 0.162635,-0.1315699 0.257036,-0.1315699 h 2.897126 c 0.07815,0 0.154364,-0.032795 0.218463,-0.093992 l 1.111707,-1.0613415 c 0.05362,-0.051242 0.02717,-0.166512 -0.03822,-0.166512 h -4.282196 c -0.09176,0 -0.180888,0.04236 -0.252972,0.1202478 l -1.396689,1.5094395 c -0.06781,0.071153 -0.152511,0.1104876 -0.238213,0.1104876 H 4.3114374 c -0.083064,0 -0.1649167,0.027914 -0.2382841,0.081304 L 2.4209227,8.4602257 c -0.050694,0.03689 -0.032085,0.142013 0.025311,0.143086 z m -0.3075161,0.07984 v 0 c 0,0 0,0 1.425e-4,0 z"
     fill="#221f1f"
     stroke-width="0"
     id="path1-8" /><path
     d="m 50.613296,8.8213727 h 0.0048 l 8.45799,-0.152652 c 0.149231,-0.0027 0.292829,-0.109414 0.359565,-0.292128 0.09112,-0.24967 0.03216,-0.539357 -0.130193,-0.688983 l -2.05479,-1.514223 c -0.06517,-0.05993 -0.140746,-0.09145 -0.218819,-0.09145 h -6.360943 l -1.507777,-1.629687 c -0.06795,-0.07125 -0.152511,-0.110585 -0.238213,-0.110585 h -4.727178 c -0.161708,0 -0.317142,0.122004 -0.379814,0.325996 -0.07002,0.228002 -0.02232,0.479136 0.117074,0.630422 l 1.471058,1.415545 c 0.0693,0.07476 0.155576,0.115855 0.243346,0.115855 h 2.915379 c 0.06524,0 0.128553,0.03055 0.17939,0.08648 l 1.611875,1.773653 c 0.07137,0.08501 0.162492,0.131668 0.257179,0.131668 z m 8.146718,-0.730173 -7.993637,0.144356 c -0.09091,0.0017 -0.179319,-0.04012 -0.250192,-0.1181 l -1.580716,-1.739394 c -0.07137,-0.08482 -0.162635,-0.13157 -0.257036,-0.13157 h -2.897126 c -0.07815,0 -0.154364,-0.0328 -0.218463,-0.09399 l -1.111707,-1.061342 c -0.05362,-0.05124 -0.02717,-0.166511 0.03822,-0.166511 h 4.282196 c 0.09176,0 0.180888,0.04236 0.252972,0.120247 l 1.396689,1.50944 c 0.06781,0.07115 0.152511,0.110487 0.238213,0.110487 h 6.235384 c 0.08306,0 0.164916,0.02791 0.238284,0.0813 l 1.65223,1.201989 c 0.05069,0.03689 0.03208,0.142013 -0.02531,0.143086 z m 0.307516,0.07984 v 0 c 0,0 0,0 -1.42e-4,0 z"
     fill="#221f1f"
     stroke-width="0"
     id="path1-8-5" /><use
     width="82.286003"
     height="105.063"
     transform="matrix(0.0858726,0,0,0.09650735,45.352429,56.80781)"
     xlink:href="#a"
     id="use1" /><rect
     style="fill:#ffff00;stroke-width:0.264583"
     id="rect2"
     width="87.370399"
     height="1.1432827"
     x="-12.909118"
     y="83.06736" /></svg>
